<?xml version="1.0" encoding="utf-8"?>
<!-- Generator: Adobe Illustrator 23.0.1, SVG Export Plug-In . SVG Version: 6.00 Build 0)  -->
<svg version="1.1" id="Layer_1" xmlns="http://www.w3.org/2000/svg" xmlns:xlink="http://www.w3.org/1999/xlink" x="0px" y="0px"
	 viewBox="0 0 190 190" style="enable-background:new 0 0 190 190;" xml:space="preserve">
<style type="text/css">
	.st0{fill:#FC5F45;}
	.st1{fill:#E8863D;}
	.st2{fill:#FFFFFF;}
	.st3{fill:#E6F3FF;}
	.st4{fill:#B5F1F4;}
	.st5{fill:#324A5E;}
	.st6{fill:#2B3B4E;}
</style>
<circle class="st0" cx="95" cy="95" r="95"/>
<path class="st1" d="M186.4,121.1l-54.4-54.4L91.6,115l-33.5,32.7l42.1,42.1C141.3,187.7,175.5,159.3,186.4,121.1z"/>
<polygon class="st2" points="107.5,42.2 58.1,42.2 58.1,147.8 131.9,147.8 131.9,66.7 "/>
<polygon class="st3" points="131.9,66.7 107.5,42.2 94.8,42.2 94.8,147.8 131.9,147.8 "/>
<polygon class="st4" points="107.5,66.7 131.9,66.7 107.5,42.2 "/>
<polygon class="st5" points="80.8,118.6 62.5,100.3 80.8,81.9 84.9,86 70.6,100.3 84.9,114.6 "/>
<polygon class="st6" points="107.6,118.6 103.5,114.6 117.8,100.3 103.5,86 107.6,81.9 125.9,100.3 "/>
<rect x="75.8" y="97.4" transform="matrix(0.2367 -0.9716 0.9716 0.2367 -25.9014 167.5961)" class="st5" width="35.8" height="5.8"/>
<polygon class="st6" points="95.2,82.2 94.8,83.7 94.8,108.1 100.7,83.6 "/>
</svg>
