<svg id="Layer_1" data-name="Layer 1" xmlns="http://www.w3.org/2000/svg" viewBox="0 0 193.17 80.84"><defs><style>.cls-1{fill:#fc5f45;}</style></defs><title>logoJaime</title><path class="cls-1" d="M56.79,36.09l0,0s0,0,0,0h-.1l.14-.43.29-.75c.1-.24.21-.48.34-.74v.05h.09l.1-.1h0l0-.05v-.09l-.05,0v-.05a11.82,11.82,0,0,1,4-4.85,7.3,7.3,0,0,1,2.23-1,8,8,0,0,1,1.51-.22,4.47,4.47,0,0,1,1,.1A2.27,2.27,0,0,1,67.83,29a4.1,4.1,0,0,1,.48,1.49l0,.05v-.05l.77-1.25.05-.1s0,0,0,0,0,0,0,0a1.53,1.53,0,0,1,.48-.39,2.76,2.76,0,0,1,.55-.14,4.9,4.9,0,0,1,.7,0h.31a1.63,1.63,0,0,1,.36,0v.09h0v.1a.22.22,0,0,1,0,.15s0,.09,0,.19v0l0,.05c.06.07.11.1.14.1a.38.38,0,0,0,.24,0s.06,0,.07,0a.08.08,0,0,0,.07,0,.14.14,0,0,1,.1.05l0,0a0,0,0,0,1,0,.05v.05h.09c.1,0,.11,0,0-.1v-.1s0,0,0,0v-.1a.2.2,0,0,1,0-.14h0a.28.28,0,0,0-.1-.19.16.16,0,0,0-.14,0h0l-.1-.1,0-.05v-.05l0,0a8.24,8.24,0,0,1,1,.38s.08,0,.15.1.06.16,0,.28v.05c-.26.55-.6,1.32-1,2.33s-.82,2-1.2,3.1a24.5,24.5,0,0,0-.87,2.85c-.19.85-.17,1.39,0,1.61a.76.76,0,0,0,.48.14,2.92,2.92,0,0,0,1.85-1.12,17.8,17.8,0,0,0,2.28-3.15.27.27,0,0,1,.1-.19v-.05l.57-1a5.89,5.89,0,0,1,.24-.58l.29-.58,0-.09a13.63,13.63,0,0,0,.53-1.3l0-.05a.17.17,0,0,1,0-.12.12.12,0,0,0,0-.07c.07-.16.16-.24.29-.24A.3.3,0,0,1,77,31a2.62,2.62,0,0,1,.67.81,4.32,4.32,0,0,1,.48,1.63.43.43,0,0,1-.05.24c-.09.26-.19.52-.28.77a7.51,7.51,0,0,1-.34.77L77.1,36c-.23.42-.57,1-1,1.78a16.75,16.75,0,0,1-1.7,2.3,11.09,11.09,0,0,1-2.28,2,4.83,4.83,0,0,1-2.71.84,3,3,0,0,1-.67,0,4.19,4.19,0,0,1-1.11-.33,5.27,5.27,0,0,1-1-.63,2.94,2.94,0,0,1-.81-1.05l0,0,0,0a0,0,0,0,1,0-.05v0l.05,0s0-.05,0-.05v0l0-.05v0s.05,0,.05,0v0a0,0,0,0,0,0-.05l0,0v0l0-.05v0l0-.05v0l0,0v-.1h0v0a0,0,0,0,1,0-.05V39.6h.05v-.1l0,0v-.09h0v-.15h.05v-.14h0v-.19h0v-.15l0,.1-.72,1c-.23.31-.37.49-.43.56a5.88,5.88,0,0,1-4.76,2.54l-.21,0a1.12,1.12,0,0,0-.27,0,5.83,5.83,0,0,1-1.94-.45,3.64,3.64,0,0,1-1.25-.89,4,4,0,0,1-.69-1.13,4,4,0,0,1-.29-1.18,1.68,1.68,0,0,1-.05-.48,7.33,7.33,0,0,1,.14-1.41c.1-.46.21-.91.34-1.32v.14a0,0,0,0,1,0,0h.05v0s0,0,0,0Zm.72-.09v0h0v0a.14.14,0,0,0-.09,0,.06.06,0,0,0,0,.09v0l.05.05h0a0,0,0,0,1,0-.05l.05,0V36Zm.43-1.44h0v-.05c-.07,0-.1,0-.1.05h0a0,0,0,0,0,0,0v.14l.05,0h0s0-.05,0-.05,0,0,0,0Zm.53,2.25h0v0h0s0-.05-.05-.05h-.1v.05h0l0,0,.05,0h.14Zm-.09-3.26v.05c0,.09.06.17.19.24l0-.05a.14.14,0,0,0,.09,0v-.05Zm.81,1.78,0,0v-.05s0,0,0,0h-.05l-.1,0H58.9v.1l.1.09c.06,0,.1,0,.1-.05h.14Zm1.39-.82c0,.06,0,.1.05.1v0l.1.1h.05c.16,0,.24,0,.24-.14v-.15a.31.31,0,0,0-.15-.09h0a.3.3,0,0,0-.19,0A.11.11,0,0,1,60.58,34.51Zm6.15-.91a7.41,7.41,0,0,0,.12-.74c0-.21,0-.37,0-.46a1.78,1.78,0,0,0-.09-.53,1.23,1.23,0,0,0-.72-1l-.29-.09h-.24q-1.92,0-3.84,3.64a9.14,9.14,0,0,0-1.06,2.88,2.92,2.92,0,0,0,.15,1.49.66.66,0,0,0,.26.34.92.92,0,0,1,.26.19l.15.09h0a.16.16,0,0,0,.14,0h0a.63.63,0,0,1,.19,0l.19,0a2.38,2.38,0,0,0,1.42-.46A5.62,5.62,0,0,0,64.66,38a8.37,8.37,0,0,0,.92-1.44c.25-.51.48-1,.67-1.4V35a.46.46,0,0,0,.12-.24.6.6,0,0,1,.12-.29v0a.29.29,0,0,1,0-.09.19.19,0,0,0,0-.1.93.93,0,0,0,.09-.24.45.45,0,0,0,.05-.19.12.12,0,0,1,0-.07.1.1,0,0,0,0-.08Zm-5.67,1.63a.13.13,0,0,1,0-.1h-.15s0,0,0,0,0,0,0,0,0,0,0,0,0,0,0,.05v0s0,0,0,0h.05s0,0,0,0,0,0,.05,0l0,0ZM68,33l0,0s0,0,0,0v-.2H68l0,0h-.05s0,0,0,0l0,.05h0l0,0a.21.21,0,0,0,0,.15l0,0s0,0,0,0h.14A.14.14,0,0,0,68,33Zm0-1.15h0c.13,0,.19,0,.19-.1h0c0-.09,0-.16,0-.19l-.24.24Zm.2,1.82V33.6h-.15v.14h.19Zm.38.44a.38.38,0,0,0,0-.24l0,0s0-.05-.09-.05-.15,0-.15.1a.2.2,0,0,0,0,.14v.1h0a.16.16,0,0,1,.1,0h.09Zm.19-1.44h-.05s0,0,0,0l0,0q-.11.09,0,.09s0,0,0,0h.09Zm.82,1.82v-.1l0,0h-.1a.12.12,0,0,0,0,.09s0,0,0,0Zm-.1.39v0a0,0,0,0,1,0,.05v.14h.14s0-.07,0-.14V34.9ZM69.8,30a.2.2,0,0,0,0,.14v.05s0,.05,0,.05,0,0,0,0l.1.05h0c.07,0,.1,0,.1-.05h0a.23.23,0,0,0,0-.24V30l0-.05a.14.14,0,0,0-.1,0A.28.28,0,0,0,69.8,30Zm0,2.16a.11.11,0,0,0,.09,0A.14.14,0,0,1,70,32v-.15l0,.05h-.19v.24Zm.05,1.73s0,0,0,0l0-.1v0l0-.09h-.19l0,0v.15Zm.57-3.46h.19s0,0,0-.05v-.19h-.19v.15l0,0Zm.29-1a.15.15,0,0,0,0,.19l0,.05H71v-.09a.32.32,0,0,0,0-.2l0,0a.12.12,0,0,0-.09,0Zm0,3.79v.2h0v0H71v-.15Zm.53-3,0,0s.05,0,.05,0,0,0,0,0a0,0,0,0,0,0-.05h.14v0c.07-.06.1-.11.1-.14a.16.16,0,0,0,0-.1s0,0,0-.05h-.14s0,0,0,0,0,0,0,0,0,.05,0,.05,0,0,0,.05a.12.12,0,0,0,0,.09Z"/><path class="cls-1" d="M83.53,34.08a3.13,3.13,0,0,0,.33-.63c.1-.22.21-.44.34-.67l.29-.77h.05v-.09l.24-.53v-.05l.09-.19c.07-.16.16-.24.29-.24a.27.27,0,0,1,.19.05l.05.05a2.62,2.62,0,0,1,.67.81,3.89,3.89,0,0,1,.43,1.63v.24c-.12.26-.24.52-.33.77a7.51,7.51,0,0,1-.34.77l-.38.72c-.16.29-.39.7-.67,1.22a15.25,15.25,0,0,1-1.11,1.71h0l0,0s0,0,0,0V39c-.1.13-.2.24-.29.34a1.12,1.12,0,0,0-.24.33h0V39.6h0v-.05h-.09s-.08,0-.15.1,0,0,0,0h-.09a.19.19,0,0,1-.19-.09.23.23,0,0,0-.15-.05s0,.05,0,.05,0,0,0,0v.09a.2.2,0,0,0-.14-.05.16.16,0,0,0-.14.1s-.05,0-.05.05a0,0,0,0,0,0,0v0h0l0,0H82a.16.16,0,0,1,.1,0,.3.3,0,0,1,.19.1l.14.14a.14.14,0,0,1,.1,0h0q-2.44,2.64-4.85,2.64h-.31a.78.78,0,0,1-.31,0,4.42,4.42,0,0,1-1-.26,5.29,5.29,0,0,1-.89-.48,2.51,2.51,0,0,1-.81-.89c-.8-1.21-.82-3,0-5.32a.92.92,0,0,1,0-.2,1.54,1.54,0,0,0,.09-.24c0-.09.08-.22.15-.38l.29-.72a19.12,19.12,0,0,1,.84-2,26.66,26.66,0,0,1,1.36-2.49h0v0h0a.19.19,0,0,1,.1.05h0V29.9a.13.13,0,0,0,.1,0v-.15a.14.14,0,0,1,0-.1s0,0,0,0,0,0,0,0a.26.26,0,0,1,.19-.1l.07,0a.09.09,0,0,1,.07,0v-.05l0-.09,0-.05a.22.22,0,0,0,.14-.24V28.9l0,0a.43.43,0,0,1,.29-.15,2.74,2.74,0,0,1,.53-.14,4.36,4.36,0,0,1,.67,0,3.7,3.7,0,0,1,1.92.48s.07,0,.12.1,0,.16,0,.28a.09.09,0,0,0-.1.1.14.14,0,0,1,0,.1h0l-.1,0,0,.05v.1s0,0,0,0l0,.05.05,0c-.16.36-.34.75-.53,1.2s-.4.93-.63,1.44c0,0,0,0,0,0s0,0,0,0-.1,0-.1,0h-.1v.1l0,0,.1,0h0c-.29.7-.56,1.41-.82,2.13s-.46,1.39-.62,2a11.94,11.94,0,0,0-.32,1.61c0,.45,0,.73.17.86a.57.57,0,0,0,.43.14,2.88,2.88,0,0,0,1.83-1.08,17,17,0,0,0,2.25-3.09l.15.14v-.05q.14.1.24-.09v-.15s0,0-.05,0a0,0,0,0,0,0-.05l-.07,0a.09.09,0,0,1-.07,0h0s0,0,.1-.15l.28-.57h.05v0h.1a.26.26,0,0,0,.14-.09c0-.1,0-.16,0-.19h0v-.05Zm-6.29-2.26a.14.14,0,0,0,0-.09H77.1l0,0,.09.15,0-.05h0Zm.29.15s0,0,0,0,0,0,0-.05a.19.19,0,0,0,0-.1v-.09h-.1l-.05.05s0,0,0,0,0,0,0,.05v.05s0,0,0,.05a0,0,0,0,0,.05,0Zm.29-1.78s0,0,0,0h.2v-.1l0-.05h-.1l0,.05h0Zm.24,3.89v.05h0a.14.14,0,0,0-.05.09v.05a0,0,0,0,0,.05,0h0l0,0h.1Zm.24-3v0l0-.05h-.1a0,0,0,0,0-.05.05h0a.12.12,0,0,1,0,.09s.05,0,.05,0,0,0,0,0Zm0-2a.16.16,0,0,0,0,.14l.09.1h0c.1,0,.14-.05.14-.15a.2.2,0,0,0,0-.14l-.05,0h0A.3.3,0,0,0,78.25,29Zm.48,6.57,0,0s-.05,0-.05,0-.09,0-.09,0v.1l0,.05h-.09l0,0s0,0,0,0,0,.1,0,.1v.14l0,0s0,0,.05,0l0,0a.16.16,0,0,0,0-.14s0,0,.05,0,0-.05,0-.05Zm0-3.69a0,0,0,0,0,0,0h.09v-.1h-.19Zm.24.09-.19.1v0l0,.05,0,0h.1l0,0h0Zm0,.87a.14.14,0,0,0,.09-.05s0,0,0,0,0,0,0,0,0-.09,0-.09a.17.17,0,0,0,0-.15h0c-.13,0-.2.05-.2.15v0l.05.1A.16.16,0,0,0,79,32.88Zm1.53-5.23a3.16,3.16,0,0,1-.88-.34,1.62,1.62,0,0,1-.75-1.63,4.63,4.63,0,0,1,.31-1.3,7.39,7.39,0,0,1,.65-1.25c.55-.79,1.11-1.2,1.68-1.2a1.63,1.63,0,0,1,1.39,1,3.57,3.57,0,0,1,.56,1.25,2.07,2.07,0,0,1-.12,1.35,5.38,5.38,0,0,1-.6,1.12,3.39,3.39,0,0,1-.8.75,1.88,1.88,0,0,1-1.1.33A.94.94,0,0,1,80.5,27.65Zm-1.44,3.6c-.09,0-.11.11,0,.24s0,0,0,0l.1.1h0v.05h.05l0-.05h.15v-.24l-.1-.1A.21.21,0,0,0,79.06,31.25Zm.44,2a.19.19,0,1,0-.29-.23l0,0,0,0c-.06,0-.09,0-.09.1s0,0,0,0l0,0h.19v.05h0C79.45,33.31,79.5,33.28,79.5,33.21Zm-.15-8,.05.05h0c.06,0,.09,0,.09-.05a.14.14,0,0,0,.1-.05.2.2,0,0,0,0-.14V25H79.4l-.05.09Zm.05,4.37,0,0a.11.11,0,0,0,.09.05h.1c.06,0,.1,0,.1-.09v-.15a0,0,0,0,0,0-.05s0,0,0,0h0c-.13,0-.19,0-.19.09Zm.19-3h.1a0,0,0,0,0,0-.05v-.05l0,0h-.19ZM80,30.43c0-.06,0-.1-.15-.1s-.14,0-.14.1,0,.16,0,.19l.09.1,0,.05.05.05,0,0v.05l0-.05v-.19a.2.2,0,0,0,0-.1A.26.26,0,0,1,80,30.43Zm0,2.21s0,0,0,0h0Zm.72-8.83h.15l0-.1,0-.05v-.05h-.14l0,.05-.05.1Zm.2,1.15,0,.05s0,0,0,0v.1H81s0,0,0-.1v0l0-.05Zm.28,13.63h0v-.05l-.05,0,0,0H81v.05s0,0,0,0h0v0h0l.05,0h0Zm0-15.12q-.11.15,0,.24l0,.05a.12.12,0,0,0,0-.1l.15-.14v-.1l0-.05h-.05C81.22,23.37,81.18,23.41,81.18,23.47Zm.19.48v.14h.14l0,0V24h0l-.1-.05Zm.43,15.31h-.1s0,0,0,0h0a.16.16,0,0,0-.1,0v.15l0,0a.11.11,0,0,0,.1,0,.26.26,0,0,0,.14-.09Zm.62-2c0-.1,0-.18-.14-.24h0a.17.17,0,0,0-.19.19c0,.09,0,.17.14.24h0c.13,0,.19,0,.19-.15Zm-.14.62h0v0h-.09l0,.1,0,0h.14Zm.43.34a0,0,0,0,0,.05-.05h0v0c0-.06,0-.1,0-.1s0,0-.05,0v0s0,0,0,0,0,0,0,0-.05,0-.05,0,0,0,0,0v.05a0,0,0,0,1,0,0l.09.1Zm.24.48v-.1a.14.14,0,0,0,0-.1s0,0,0,0,0,0,0,0l-.1.1.05.09,0,.05s0,0,0-.05S83,38.72,83,38.69Zm-.14-1.4c-.07.07-.07.1,0,.1a.26.26,0,0,0,.09.14.14.14,0,0,1,.1,0v0a.28.28,0,0,0,.1-.19s0-.05-.1-.05v0h-.1C82.84,37.25,82.81,37.26,82.81,37.29Zm.67.68.1-.2c0-.06,0-.09,0-.09v0c0-.1,0-.14-.15-.14h-.14a.2.2,0,0,0-.14,0,.28.28,0,0,0-.1.2v.09c-.06.07-.1.12-.1.15a.09.09,0,0,0,0,.07.14.14,0,0,1,0,.07.27.27,0,0,0,.19.1h0s.08,0,.15-.1l.09-.1ZM83,35.13l0,0v0Zm.53,3.6a.14.14,0,0,0,0-.07.08.08,0,0,1,0-.07.14.14,0,0,1-.05-.1l-.19.1c0,.13,0,.21.1.24h0S83.42,38.8,83.48,38.73Zm-.1-2.49s0,0,0,0,0,.09,0,.09h.1v-.05h0l-.1-.14h-.05Zm.44-1.44s0,0,0,0,0,0,0,0l0,0h0l0,.09,0,0h0a.14.14,0,0,0,.09,0l0-.09v0l0-.1ZM84,37.92l.14.09h.05a.31.31,0,0,0,.15-.09v-.05c0-.06,0-.13-.15-.19h-.09l-.1.09Zm.62-4.8a0,0,0,0,0,0,.05v0s.05,0,.05,0a.19.19,0,0,0,.1-.05V33l0,0h0s-.05,0-.05,0h0Zm.63.48a.45.45,0,0,1,0,.19v.05l0,0v0l.05,0h0s0,0,0,0h.05v0s0,0,0-.1a.3.3,0,0,1-.1-.24h0v0h0S85.21,33.53,85.21,33.6Zm0-1.3h.05s0,.05,0,.05,0,0,0,0,0,0,0,0h.05V32.3l-.05-.09h-.09s0,0-.05,0Z"/><path class="cls-1" d="M90.44,29.71a4.47,4.47,0,0,1,3.12-2h.1a2.77,2.77,0,0,1,2.11.77,2.4,2.4,0,0,1,.77,1.54v.09l0-.05c1.06-1.5,2.18-2.28,3.36-2.35h.1a2.76,2.76,0,0,1,2.11.77,2.27,2.27,0,0,1,.72,1.37,5.73,5.73,0,0,1,0,1.65v0l0,0-.09-.05c-.07,0-.1,0-.1.05h-.05c0,.06,0,.1,0,.12a.12.12,0,0,1,0,.07l.1.1h.09l.05-.05h0a6.73,6.73,0,0,1-.29,1.3l-.38,1.34c-1.12,2.94-1.46,4.61-1,5a.76.76,0,0,0,.48.14,1.62,1.62,0,0,0,.91-.33h.05v0h0A11.06,11.06,0,0,0,104,37.82a19.22,19.22,0,0,0,1.87-2.69l.09-.19,1.11-2.16.57-1.39,0-.1a.2.2,0,0,1,0-.14c.06-.19.16-.29.29-.29a1.19,1.19,0,0,1,.24.1,3.38,3.38,0,0,1,.67.86,3.93,3.93,0,0,1,.43,1.59v.28c-.09.26-.2.52-.31.77s-.22.5-.31.72l-.43.77c-.2.42-.52,1-1,1.78a16.75,16.75,0,0,1-1.7,2.3,11.36,11.36,0,0,1-2.28,2,4.83,4.83,0,0,1-2.71.84,2.77,2.77,0,0,1-.68,0,5.25,5.25,0,0,1-1-.28,4.92,4.92,0,0,1-.87-.51,3.62,3.62,0,0,1-.81-.84q-1.2-1.92-.05-5.32a.55.55,0,0,1,.05-.2,1.54,1.54,0,0,0,.09-.24c0-.09.08-.22.15-.38l.76-1.92h.1s0,0,0,0h0l0,0v-.09h0v0l.29-.58c.32-.67.38-1.12.19-1.34a.32.32,0,0,0-.1-.12l-.09-.07a.29.29,0,0,0-.15-.05,1.19,1.19,0,0,0-.91.57h0v0s0,0,0-.05l-.1.05h-.05l0,0h0s0,.05.05.05,0,.05,0,.05h0a6.15,6.15,0,0,0-.75,1.25q-.36.77-.72,1.68t-.69,1.89q-.34,1-.63,1.95-.24.77-.45,1.68A6.58,6.58,0,0,0,94,41.37v.05a.41.41,0,0,1-.05.19.32.32,0,0,1-.24.15l-.45.09a2.8,2.8,0,0,1-.6,0,2.29,2.29,0,0,1-1.83-.72l-.29-.57a7.4,7.4,0,0,1,.15-3.6,5.07,5.07,0,0,1,.19-.77v-.05l0,0v0l0,0h0v0a.16.16,0,0,1,0-.14v0h0a.12.12,0,0,0,.1.05h0l.09-.09v0h0v-.05h-.05l0,0h0a0,0,0,0,1,0,0l0,.05.45-1.44c.15-.45.28-.84.41-1.16l.38-.91c.32-.67.39-1.12.2-1.34a.44.44,0,0,0-.1-.12l-.1-.07a.26.26,0,0,0-.14-.05c-.42,0-.9.38-1.44,1.25h-.05l0,0h0l-.05,0s0,0,0,0l0,.05h0a0,0,0,0,1,0,0h.09a22.31,22.31,0,0,0-1.15,2.42c-.38.95-.72,1.88-1,2.79s-.52,1.75-.69,2.52a13.86,13.86,0,0,0-.31,1.63l.14.24a2.28,2.28,0,0,1,.1.31.55.55,0,0,1-.15.46,2.06,2.06,0,0,1-.89.48,4.07,4.07,0,0,1-.79.09,3.49,3.49,0,0,1-.62,0c-.16,0-.24-.07-.24-.1a2,2,0,0,1-1.3-1.25,6.68,6.68,0,0,1-.41-2.28,17.16,17.16,0,0,1,.22-2.85,30.18,30.18,0,0,1,.62-3,4.25,4.25,0,0,1,.2-.72l.43-1.58v0l0,.05v.05h.09v.05H85q.24-.11.24-.24l.05-.05c.06,0,.12,0,.19-.17l.14-.26s0,0,0-.15v0a.19.19,0,0,0,.1-.05H86s0,0,0,.05a.14.14,0,0,0,.1-.05v-.19h.14l.1-.15v-.05l0,0V29.9l0,.05h-.1s0,0,0,.05h0a.3.3,0,0,1-.19.09l-.1,0a.41.41,0,0,1-.19-.05h-.15V30h-.09a.14.14,0,0,0-.1.05,0,0,0,0,1,0,.05v0h.1s0,.05,0,.05h0l0-.05v.05a.16.16,0,0,1,0,.1.28.28,0,0,0,0,.14l0,.1h-.1s0,.05,0,.05,0,0,0,0v.05l-.09.05h-.1v-.1a.14.14,0,0,0,0-.09h0v-.05l0,.05.14-.43a4.07,4.07,0,0,1,.22-.65A3.31,3.31,0,0,1,85.5,29V29h0l0,.05a0,0,0,0,0,0-.05c.13,0,.16-.08.1-.24V28.7h-.1l.14-.19v-.1l.15-.14a1.79,1.79,0,0,1,.38-.29,2.78,2.78,0,0,1,.63-.24l.57,0a6.05,6.05,0,0,1,.63,0c.25,0,.5,0,.74,0s.47,0,.7.07a.54.54,0,0,1,.57.58l-.09.33-.77,2h-.1v0h0s0,0,0,.05v.09h0v.05l-.09.29-.43,1.13c-.2.49-.39,1.05-.58,1.65,0,0,0,.05-.05.05a.12.12,0,0,1,0,.1.56.56,0,0,0-.09.14l.05,0s0,0,0,0a.36.36,0,0,0,.24.09h.15a.14.14,0,0,1,.09-.05l0,.05.1,0h.05a.13.13,0,0,0,.14-.14v-.1l-.07,0a.17.17,0,0,0-.12,0,.26.26,0,0,1-.19-.09l0-.05a0,0,0,0,1,0,0s0,0,0-.05h-.09A18.1,18.1,0,0,1,90.44,29.71Zm-5.33,1a.28.28,0,0,0-.19.24.16.16,0,0,0,0,.1s-.05,0-.05,0h0l.14-.43h0v.05Zm.19,2.16c0-.06,0-.1,0-.1s0,0-.1,0h-.1c-.12,0-.16,0-.09.14s0,.15.14.15h0C85.26,33,85.3,32.93,85.3,32.83ZM85,31.49v.14l0,.05,0,.05h0s0-.05,0-.05a.16.16,0,0,1,0-.1h0s0,0,0,0,0,0,0,0h0l0,0v0Zm.57.43.15-.15v0h0v-.05c-.07-.07-.11-.1-.14-.1s-.1,0-.1.05h-.05v.14l.1.1a0,0,0,0,1,0,.05Zm.39,5.23a.35.35,0,0,0-.1-.24,0,0,0,0,0,0,0s0,0,0,0,0,0,0,0a.16.16,0,0,0-.1,0V37a.14.14,0,0,1,0,.09l.19.15v0h.1Zm.29-4.66a.11.11,0,0,1,0-.09v0s0-.05,0-.05v0s0,0,0,0,0-.1-.1-.1a.27.27,0,0,0-.19,0l0,0c-.06.07-.09.11-.09.14a.14.14,0,0,0,0,.1v.1a.21.21,0,0,0,0,.14.17.17,0,0,1,0,.1.14.14,0,0,1,0,.09s.07,0,.14,0H86l.2-.14Zm-.39-.91,0,.1s.05,0,.05.05h0s0-.05,0-.05v-.05l0-.05v0s0,0,0,0l0,0h0l-.05,0Zm.39.48c0,.07,0,.1.14.1l.1-.1.09-.09h0s0,0,0,0,0,0,0,0h-.1a.14.14,0,0,0-.09,0Zm0,.77a.16.16,0,0,0,.1.05h.1c.06,0,.09,0,.09-.1v-.14a.38.38,0,0,0-.24,0h0Zm.15,5.62,0-.05,0,0,0-.05h-.15a0,0,0,0,0,0,.05v0a.12.12,0,0,1,.1.05Zm.09-4.56-.09,0,0,0,0,0,.15.09,0-.05Zm.15,5.9H86.6s0,0-.1,0h0a.12.12,0,0,0,0,.1.26.26,0,0,0,.09.14h0l.1-.09ZM86.6,30s.05,0,.05-.1l0,0h-.15s0,0,0,0V30Zm.05,7.49,0-.05,0,0v0s0,0,0-.05h0v0H86.6s0,0,0,0a.11.11,0,0,1,0,.1v0h0a0,0,0,0,0,0,.05Zm-.1-2.07.1.1,0-.05s0,0,0,0,0-.05,0-.05,0,0,0,0v0l-.09-.05h-.1a0,0,0,0,1,0,.05Zm.29-4.89a.16.16,0,0,0,0-.1v-.05s0-.05,0-.05,0,0,0,0h-.19a.2.2,0,0,0-.05.14v.1l.1,0,0,0Zm-.19-2.12v.15s0,.05.09.05h.1a0,0,0,0,0,0-.05s0-.08,0-.15v0s-.06,0-.07,0l-.08,0ZM87,39.74v-.05l-.09-.09,0-.05,0,.05-.05,0v.09c0,.07,0,.1.1.1h0a0,0,0,0,0,0-.05Zm0-7.82v-.05h-.1l0,.05v0s0,0,0,0v.05h0l0-.05,0-.09Zm0,.48v.05h0v0a.17.17,0,0,0,.14.29s0,0,0,0v0h.09l0-.05a.14.14,0,0,1,0-.09v-.15a.3.3,0,0,0-.19-.09Zm0,2.4c0,.1,0,.14,0,.14l0,.05h0l.05-.05.09,0v0a.21.21,0,0,0,0-.15l.05-.05-.24,0s0,0,0,0a.09.09,0,0,0-.1.1Zm0,1.06.15.14h0l.1-.1s.05,0,.05,0a.18.18,0,0,0-.19-.2C87.08,35.73,87,35.79,87,35.86Zm.34,2.39s-.05,0-.05,0h0s0,0,0,0,0,0,0,0l.09.1a.19.19,0,0,0,.1,0l0-.05Zm0-.33-.05-.05h0v.05a.14.14,0,0,0,0,.09l.1.05c.06,0,.1,0,.1-.09Zm.29-.82a.18.18,0,0,0,.14-.19c0-.13-.08-.19-.24-.19s0,0,0,0,0,0-.05,0l0,0V37s0,0,0,0,0,0,0,0h.05l0,.05Zm-.24,1.35s0,0,0,0h.05v0h0a0,0,0,0,1,0,0V38.4s0,0-.1,0h-.05A.13.13,0,0,0,87.42,38.45Zm0-7.54.05.05h0a0,0,0,0,0,0-.05h0l0-.05h0l0,0h-.1l-.05,0Zm.15,8.74s0,0,0,0,0,0,0,0,0,0-.05,0l.1.1s0,0,0,0,0,0,0,0v-.05l0,0Zm.09-4h0v0h-.1v.14a0,0,0,0,1,0,0l0,.05v-.05a.14.14,0,0,0,0-.1Zm.58,1.25c.1-.06.13-.13.1-.19s-.07-.14-.2-.14l-.09.09s0,0,0,.1.06.14.19.14Zm-.1-8s0,0,0,0l0-.09,0-.05v-.05h-.15s0,0,0,0l0,.05v.1Zm.44,7.34V36l-.05,0a0,0,0,1,0-.1,0v0h0v0l0,0v.1l0,.05Zm.19-2.88h0l-.05,0a0,0,0,0,0,0,0l0,0-.05,0h.05a.11.11,0,0,0,.09,0h.05l0,0Zm0-5.42s0,0,0,0,0,.05.1.05l0-.05h0v0l0-.05H88.9Zm.38,6.52a0,0,0,0,0,0-.05h0a.14.14,0,0,0-.09.05l0,0h0v.05h0v0s0,0,0,0h.1l.14-.09v-.05h0ZM90,31.39c0-.06,0-.1-.05-.1a.27.27,0,0,1,0-.19.2.2,0,0,0,0-.14h-.14s0,.05,0,.05,0,0,0,0v.05l0,0h0v.1c-.06.09-.08.16,0,.19l0,0a.3.3,0,0,0,.19.09l.15-.14Zm1,7.1s0,0,0,0V38.4s0,0,0,0h0a0,0,0,0,0,0-.05v0l0,0v.05a.14.14,0,0,0-.05.1.31.31,0,0,0,.15.09Zm.38.44h-.05l0,0-.09-.05c-.1-.06-.18,0-.24.1v.14a.12.12,0,0,0,0,.07.09.09,0,0,1,0,.07v0l0,.05v0a0,0,0,0,0,0,0l0,0a0,0,0,0,0,0,0v-.1a.11.11,0,0,1,.05-.09l.09-.1L91.4,39ZM91.74,35l0-.05s0,0,0,0H91.5a.16.16,0,0,1-.1,0c-.1,0-.14.07-.14.19s.06.13.19.2h0s.07,0,.14-.15l0,0v0l0-.05Zm.19.53h0l0-.05h0a.2.2,0,0,0,.05-.14v0c0-.1-.06-.15-.19-.15v0h-.05l0,.1a0,0,0,0,0,0,0h0Zm.24,2.35a.28.28,0,0,0,.09-.19c0-.07,0-.1-.09-.1v0h-.1l0,0h-.09s0-.05-.05-.05h0l0,0v.1s0,0,0,0v0l0,.05.14.19s0,0,.1,0ZM92,33.6l.2.09s0,0,0,0v-.1l0,0s0,0,0,0l-.1.1Zm.39,2.83h0c-.07,0-.1,0-.1,0h-.09l0,0a.09.09,0,0,0-.1.1v.09a.12.12,0,0,1,0,.1h.05a.14.14,0,0,0,.1.05.12.12,0,0,0,.09,0h0l.1-.09C92.52,36.65,92.5,36.56,92.41,36.43Zm0-.72-.1-.05-.14.15.19.14.15-.19h0Zm.24.24a0,0,0,0,0,0-.05h-.14V36l0,0s0,0,0,0,0,0,0,0h0l.05,0Zm.14,2.35a.31.31,0,0,0-.14.24c0,.1.05.15.14.15h.05a.09.09,0,0,0,.1-.1,0,0,0,0,0,0-.05v0c0-.06,0-.12-.15-.19Zm.53-1.73h0s0,0,.05,0,0,0,0,0,0,0,0,0,0,0,.05,0v-.05h-.05l0,0h-.1a0,0,0,0,0,0,0v.09Zm.34-1.15a0,0,0,0,0,0,0,.19.19,0,0,0,0,.1s0,0,0,0h.14v0s0,0,0,0a0,0,0,0,0,0-.05.09.09,0,0,0-.1-.1v0h0s0,0,0,0Zm.19,1.83h0a.12.12,0,0,0,.09,0s0,0,0,0,0,0,.05,0v0l0-.05h-.15v0l0,0-.05.05Zm.34,1.1a.19.19,0,0,0,0-.1h0s0,0-.1,0-.14.12-.14.19.06.14.19.14.1,0,.1-.09h0Zm-.24-2.93a.14.14,0,0,1,.09,0,.16.16,0,0,0,.1,0v-.05l-.15-.09v0s0,0,0,0ZM96.3,32l.09.2h0v-.05a0,0,0,0,0,0,0c0-.06,0-.1,0-.1H96.3Zm.38,0a.16.16,0,0,0-.1.05s0,.08.1.15v0h.1l.09-.09a.12.12,0,0,0,0-.07.1.1,0,0,1,0-.08l0,0h0S96.68,32,96.68,32Zm.43-1.58a0,0,0,0,0,0,.05,0,0,0,0,0,0,.05c.06,0,.09,0,.09-.05h0v-.05h0s0-.05,0-.05h-.1Zm.43-1.1a.06.06,0,0,0,0,.09,0,0,0,0,0,0,0s0,.05.1.05h0s.07,0,.14-.1,0-.12-.14-.19h0C97.59,29.23,97.54,29.26,97.54,29.33Zm.39,6.72s0,0,0,0,0,0,0,0a.16.16,0,0,0,0-.1v0h-.1s0,0-.1,0V36l0,.1v0h0c-.06,0-.09,0-.09.1v.19h0s0-.05,0-.05,0,0,0,0l0,0v-.15Zm.33.52s0,0,0,0a.14.14,0,0,0-.1-.05s0,0-.05,0,0,0,0,.05v0s0,0,0,0,0,0,0,.05h.05l0-.05h.09Zm.1-3.26a.12.12,0,0,1,0,.07.09.09,0,0,0,0,.07l0,0v0h.29a.15.15,0,0,0,.14-.1q.09-.14-.09-.24a.13.13,0,0,0-.2,0,.11.11,0,0,1-.09,0A0,0,0,0,1,98.36,33.31Zm.14,4.51s0,0,0,0v0l.15-.15a.12.12,0,0,0,0-.09v-.05l-.09-.1-.1-.09a.28.28,0,0,0-.19.09v.29l0,0v.14s0,0,.1,0h0Zm.44.43q0-.14-.15-.24H98.7l-.15.1v0c0,.06,0,.09,0,.09v0h.05l0,.05h.14a.19.19,0,0,0,.1-.05Zm-.29-8.54a.2.2,0,0,0,0,.15.08.08,0,0,0,.09.09h0a.26.26,0,0,0,.14-.09l0-.05a.17.17,0,0,0,0-.15l-.09-.09h0Zm.43.91-.1.05,0,0a.08.08,0,0,0,0,.07.08.08,0,0,1,0,.07l.15.15a.14.14,0,0,1,.05.09s0,0,0,0h0v0a0,0,0,0,1,0-.05.14.14,0,0,1,0-.09.69.69,0,0,0,0-.29s0-.05-.09-.05Zm0,4.13s0,0,0,0,0,0,0,0h.05l-.05-.05a.14.14,0,0,0,0-.09l-.1,0h0v0l0,.05Zm.29-1.92-.1-.1h-.09l-.1.1h0v.05l.1.1a.14.14,0,0,0,.09,0,0,0,0,0,0,0,0Zm-.19,1.68v.1l.05,0v.05l.09-.09,0,0v-.1l0-.05a0,0,0,0,0,0,.05C99.16,34.46,99.13,34.48,99.13,34.51Zm.19.72v0l0-.09V35h0v.05c-.06,0-.09,0-.09,0s0,0,0,0,0,0,0,0v.05l0,0v0h0Zm.1-2.5a.3.3,0,0,0,.09.2h0c.1,0,.14,0,.14-.1a.2.2,0,0,0,0-.14l0-.1h0a0,0,0,0,1,0,0Zm.33,1.4a.16.16,0,0,0,0-.1h0l0,0h0v.05l0,0,0,0h.09v0h0S99.78,34.13,99.75,34.13Zm0-1.15,0,0v0a.14.14,0,0,0,.1,0h.05s0,0,0,0v0s0,0,0,0Zm.19.86a0,0,0,0,1,0-.05h0l-.05.05,0,0v0l0,.09v0l.05,0h0l0-.05Zm.34-3.84c0,.06,0,.09,0,.09s.11.1.14.1,0,0,0,0,0,0,.05,0a.26.26,0,0,0,.09-.14v-.19l.05,0v-.1h-.14l-.05.1,0,0h0a.14.14,0,0,1-.09.05l0,0h0V30Zm0,6.09h0v0h.19v0s0,0,0,0l0,0h-.14Zm0,2.74a0,0,0,0,0,0,.05s0,0,0,0h.09v-.1l0,0h-.09Zm.43-4h-.29l0,0h0v0h0V35h.19l.05-.05h.09Zm-.33-4.18s0,0,0,0v.05h0v-.05h0a.16.16,0,0,0,0-.1.09.09,0,0,0,0-.07.14.14,0,0,1,0-.07h0l0,.05s0,0,0,0Zm.38,1-.05-.05a.19.19,0,0,0,0-.1h-.09s0,0,0,0,0,0,0,0v.05a0,0,0,0,1,0,.05l0,.05h.14v-.05Zm.19,3.45c-.13-.06-.21,0-.24,0v.1a0,0,0,0,0,.05,0c0,.06,0,.09.1.09a.14.14,0,0,1,.09,0s0,.05,0,.05,0,0,0,0v0a.19.19,0,0,1,0,.1c0,.1.08.15.14.15s0,0,0,0,0,0,.05,0,.19-.05.19-.15h0v0a.09.09,0,0,0,0-.07.12.12,0,0,1,0-.07l-.1-.1a.2.2,0,0,0-.14,0h-.1s-.06,0-.09-.1l0,0v0Zm.15,4.47-.1-.1h-.1a.2.2,0,0,0-.14,0v.05l0,.09v.05H101l.1-.09ZM100.81,34l0,.05.14-.09h0v0l0,0h0l0,0Zm.14-1c.1,0,.15,0,.15-.1a.19.19,0,0,0,0-.1v-.05l0,0v0h0l-.09.1Zm.58-2,0-.1s0,0,0-.05v-.09a0,0,0,0,0,0-.05v0a0,0,0,0,0,0-.05v-.05h-.19a.08.08,0,0,0-.07,0l-.07,0s0,0,0,0,0,0,0,0l0,0h0v.05s0,0,0,0,0,0,0,0h.09v0a0,0,0,0,0,0,.05c-.12.13-.11.24,0,.34s0,0,0,0,0,0,.05,0h0a.2.2,0,0,0,.14,0,.19.19,0,0,1,0-.08s0-.05,0-.12a.19.19,0,0,1,0,.1l.14.24h0a.14.14,0,0,0,.09-.05v-.05a.69.69,0,0,0,0-.28h0s0-.05-.1-.05,0,0,0,0,0,0,0,0l0,0Zm-.43,9.07s0,.05,0,.05,0,0,0,0v0h.33a.21.21,0,0,1,.15.05v0l.19.09.1.1.09-.1.1-.24h.09s0,0,.05,0h0a.19.19,0,0,0,.1-.05v0a.3.3,0,0,0-.1-.19h-.1a.08.08,0,0,0-.09.09L102,40h-.1a.36.36,0,0,1-.24-.09l0,0h0l-.1.09V40l-.09-.1-.2.1v0Zm.67-6.48a0,0,0,0,1,0-.05h0v.05a.11.11,0,0,0-.09,0v.24h.09l0,0,0-.1Zm0-3.17a.26.26,0,0,0,.09.19l.2.1.09.1v0a.46.46,0,0,0,.34.15h.14c.16-.07.24-.16.24-.29v-.29a.14.14,0,0,1-.05-.1v0a.12.12,0,0,0,.05-.1v-.05a.3.3,0,0,0-.09-.19l-.1-.05h-.05s-.08,0-.14.1a.35.35,0,0,1-.39.14.14.14,0,0,0-.09-.05.22.22,0,0,0-.24.15Zm.62,2.88,0-.1,0,0,0-.05h0a.12.12,0,0,0-.14.14v.1a.08.08,0,0,0,.09.09h0a.2.2,0,0,0,.14,0l0,0Zm0,6.86,0,.1v0h.05l0,0,.08,0s0,0,0,0a.2.2,0,0,0,0-.14h0l-.05.05S102.44,40.14,102.44,40.17Zm.19-.57a.26.26,0,0,0,.1.19.14.14,0,0,0,.09.05,0,0,0,0,0,.05,0c.1,0,.18-.07.24-.2a.31.31,0,0,0-.14-.24C102.78,39.42,102.66,39.47,102.63,39.6Zm.19-.39v0s0,.05,0,.05,0,0,0,0l0,0a0,0,0,0,0,0,0,.14.14,0,0,0,.09,0v-.05l0,0a.14.14,0,0,0,0-.09,0,0,0,0,0,0,.05h0Z"/><path class="cls-1" d="M108,30.62l.41-.43a3.06,3.06,0,0,1,.41-.38,8.3,8.3,0,0,1,2.88-1.73c.35-.1.68-.18,1-.24a4.47,4.47,0,0,1,1-.1,3.78,3.78,0,0,1,.51,0,4.14,4.14,0,0,1,.45.07,2.78,2.78,0,0,1,1.35.77,3.17,3.17,0,0,1,.55.84,5.45,5.45,0,0,1,.29,1,3.92,3.92,0,0,1,0,1.44,7.14,7.14,0,0,1-.16.81,4.84,4.84,0,0,1-.36,1,6,6,0,0,1-2.93,2.84,6.45,6.45,0,0,1-1.59.52,8.85,8.85,0,0,1-1.87.2,3.73,3.73,0,0,1-.67,0,2.61,2.61,0,0,1-.48-.05l-.5-.1a3.27,3.27,0,0,1-.56-.14h0V37h0v0l0,0v.05h0l0,0a0,0,0,0,1,0,.05h0v0h0l0,0H108s0,.05,0,.05h0l.05,0h0a0,0,0,0,1,0,0h.09s0,0,0,.05h.15l0,0h.24s0,0,.05,0h.24a.89.89,0,0,0,0,.22,1.83,1.83,0,0,1,0,.21,3.16,3.16,0,0,0,.17.48,1.27,1.27,0,0,0,.41.53,2.57,2.57,0,0,0,1.24.43,1.68,1.68,0,0,0,.48,0h.15l.45,0,.46-.07.41-.1a2.4,2.4,0,0,0,.36-.14,1,1,0,0,1,.24-.08.64.64,0,0,0,.29-.12c.28-.15.64-.36,1.08-.62a10.11,10.11,0,0,0,1.46-1.1l.1.09,0,0v-.1s0,0,0,0l0,0,0-.05.91-.86.62-.63c.29-.32.57-.65.84-1l.84-1c.07-.07.1-.12.1-.15l0,0,.62-.86c.22-.29.41-.54.55-.77s.25-.38.31-.48v-.05c.07-.06.1-.11.1-.14s.22-.19.29-.19a.46.46,0,0,1,.29.14,6.17,6.17,0,0,1,.48.94,3.72,3.72,0,0,1,.14,1.65.62.62,0,0,1-.1.29V34l-.38.67v-.05a.2.2,0,0,0,0-.14s0,0,0,0,0,0,0-.05h-.19a.19.19,0,0,0-.05.1,0,0,0,0,0,0,.05s0,0,0,0,0,0,0,0-.15.12-.15.19,0,.14,0,.24a0,0,0,0,1,0,.05h0v0h0v0h0c-.35.55-.79,1.17-1.32,1.87a18.7,18.7,0,0,1-1.87,2.12,20.79,20.79,0,0,1-2.4,2,12.28,12.28,0,0,1-2.9,1.51l-.63.19a3.75,3.75,0,0,1-.62.15l0,0c-.22,0-.45.06-.67.08l-.72,0h-.1l-.6,0c-.33,0-.74-.06-1.22-.12a5.68,5.68,0,0,1-2.4-1,4.44,4.44,0,0,1-1.27-1.51,4.15,4.15,0,0,1-.48-1.58,7.32,7.32,0,0,1,0-1.3.26.26,0,0,1,0-.14.49.49,0,0,0,0-.15,6.91,6.91,0,0,1,.46-1.92,17,17,0,0,1,.79-1.72,12.41,12.41,0,0,1,.89-1.47,11.42,11.42,0,0,1,.84-1.08Zm.62.72a0,0,0,0,1,0-.05l.05,0c0-.07,0-.1-.05-.1v0h0v0h0v.19Zm.2,3.94v-.05h-.15v.14s.05,0,.05,0,0,0,0,0v0a0,0,0,0,1,0,.05.26.26,0,0,0,.14.09v0s0,0,0,0,0,0,0,0l0,0h.24c.07,0,.1,0,.1.05s0,0,0,0v0s0,.05,0,.05h.09c.07,0,.1-.11.1-.24v-.24a.27.27,0,0,0,0-.19.38.38,0,0,0-.24-.05h-.1l-.07,0a.09.09,0,0,1-.07,0h-.1l0,0a.32.32,0,0,1-.2,0Zm.28-.72s0,0,0,0,0,0,0,0h.1s.07,0,.14-.1v-.14c0-.1,0-.15-.05-.15s-.22,0-.29.15Zm.15-4.18s0,.05.05.05l0,.05h.15l0-.05h0v-.05l0-.05-.05,0h-.09s0,0-.05,0Zm.09-.77v.05s0,0,0,0,0,0,.05,0h0s0-.05,0-.05v-.09h0v-.05h0s-.05,0-.05.05h-.09Zm.68,4.18s0,0,0,0,0,0-.05,0a.12.12,0,0,0,0,.07.09.09,0,0,1,0,.07,0,0,0,0,1,0,.05h0l.15-.09s0,0,0,0,0,0,0,0v-.1h-.05s0,0,0,0S110,33.79,110,33.79Zm2.78-2.64a7.68,7.68,0,0,0-2.5,3l-.09.1a.28.28,0,0,1-.1.19.16.16,0,0,1,0,.1l-.09,0v0l0,.05s0,0,0,0v0H110v.05h.15l.26,0a1.12,1.12,0,0,0,.27,0H111a4.56,4.56,0,0,0,1.85-.34,7.56,7.56,0,0,0,1.23-.67l.14-.15a4,4,0,0,0,.48-.57l.24-.39a.86.86,0,0,0,.1-.33,1.64,1.64,0,0,0,.09-.58.88.88,0,0,0,0-.17.43.43,0,0,1,0-.17.12.12,0,0,1,0-.09l-.1-.15a.85.85,0,0,0-.48-.38,1.3,1.3,0,0,0-.53-.09A2.14,2.14,0,0,0,112.76,31.15Zm-2.83.86,0,.05v.15l0-.05h0l.1-.1v-.14h0v-.05a0,0,0,0,0-.05.05.2.2,0,0,0-.14,0Zm.53-2.3s0,.05,0,.05,0,0,.1,0h.1a.31.31,0,0,0,.09-.15l-.09-.14,0-.05h-.19l-.1.05v.05Zm.38,1.06-.1.05h0v0h0v.05a0,0,0,0,0,.05.05.16.16,0,0,0,.1-.05v-.09Zm0-1a0,0,0,0,0,0,0s0,.05,0,.05H111l0-.05h0v0l0-.05h-.09Zm.53.57a.18.18,0,0,0-.05.15v.05l.09.09h0a.11.11,0,0,0,.1-.05s0,0,0,0a0,0,0,0,0,0-.05v-.05q.09-.09,0-.24h-.15l-.05,0h0s0,.05,0,.05Zm.38,1.11c-.13,0-.19,0-.19.14s0,.16.1.19h0l.1-.33Zm4.66,5.76,0,0S116.37,37.2,116.41,37.2Zm0,.53v0l0,0a.18.18,0,0,0,.15,0v0h0v-.09a.16.16,0,0,0,0-.1.28.28,0,0,0-.09-.19h-.15l0,.05s0,0,0,0,0,0,0,0v.15Zm.62,1.34a.16.16,0,0,0,0,.1v0h0s0,0,0,0h.05l.09-.09a0,0,0,0,1,0-.05v0l-.24-.1Zm.14-.48a0,0,0,0,0,0,0s0,0,0,0h.05v-.15s0,0-.1,0a0,0,0,0,0,0,0Zm.15-2s-.05,0-.05.05v.1h.09l0-.05v-.1l-.09,0Zm.53,1.44s-.05,0-.05.1,0,.05.05.05l0,0h.1v-.19l-.1-.05,0,0Zm.72-1.49s0,0,0,0,0,0,0,0,0,0,.05,0a0,0,0,0,0,0-.05s0,0,0,0,0,0,0,0l0-.05h0a.14.14,0,0,1-.09,0h-.1l-.09.1Zm.33,1.68h.1a.12.12,0,0,0,.09,0v-.05l0,0H119v0a0,0,0,0,0,0,.05Zm.67-3.5a.3.3,0,0,0-.09.19V35a.34.34,0,0,0,.24.14h0l.14-.19v-.09a0,0,0,0,0,0-.05l-.09-.1h-.15Zm.44.67,0,0h.05a.14.14,0,0,0,.1.05h0a.21.21,0,0,0,0-.15h0v0h0v0h-.14a.16.16,0,0,0-.1,0v.09Zm.72-.72c-.1,0-.12.12,0,.24l.09.05h.05l0-.05a.14.14,0,0,1,0-.07.08.08,0,0,0,0-.07c0-.07,0-.1-.1-.1Zm.33.82c-.16.06-.22.13-.19.19s0,0,0,0,0,0,0,.05l.09,0a.19.19,0,0,0,.1,0l0,0h.05l.09-.1v-.1a.26.26,0,0,0-.19-.14A0,0,0,0,0,121.11,35.52Z"/><path class="cls-1" d="M55.3,71.87a.07.07,0,0,0-.08-.07c0-.09-.07-.14-.21-.14a.29.29,0,0,0-.22.07h-.07a.21.21,0,0,0-.07.14.21.21,0,0,0-.07.15l.07.14s.07,0,.21.15a.21.21,0,0,1-.14.07h-.14a.29.29,0,0,1-.22.07v.07h-.07v.07H51.62v-.07s0-.07-.07-.07v-.07h-.14c-.15,0-.22.05-.22.14h-.07v.07H20.38c-2.55,0-4.58,0-6.09,0l-3,0-.79,0c-.48,0-1,.07-1.65.15a14.4,14.4,0,0,0-1.95.36A5.15,5.15,0,0,0,5.18,74L5,74.11V74a4.51,4.51,0,0,0-.32.37,1.26,1.26,0,0,0-.26.57,4,4,0,0,0,.11.5c.07.29.49.56,1.26.8a6.06,6.06,0,0,0,1.8.21h.22a15.85,15.85,0,0,0,1.62-.14,26.63,26.63,0,0,0,2.7-.54c1.05-.27,2.24-.63,3.56-1.08A35.21,35.21,0,0,0,19.87,73a21.86,21.86,0,0,1,8.71,1.37,32.8,32.8,0,0,1-4.68,2.59v-.14h-.07s0,.07-.07.07a.06.06,0,0,0-.07.07v.15l-1.23.5v-.21l-.07.07h-.14v.21a.22.22,0,0,0-.15.08L22,77.42H22l-.07.07c-.05,0-.07,0-.07.07v.22l-1.16.36c.05,0,.05-.12,0-.22a.19.19,0,0,0-.07-.14v-.07a.4.4,0,0,0-.21-.15l-.08.07h-.07v.15a.19.19,0,0,0-.07.14.33.33,0,0,0,.07.36h.15a30.93,30.93,0,0,1-10,1.59H9.94l-.08-.08v-.07l-.07-.07v-.07a.06.06,0,0,1-.07-.07H9.58v.14a.23.23,0,0,0-.08.14v.08a17.79,17.79,0,0,1-2.16-.18A13.2,13.2,0,0,1,4.57,79a7.18,7.18,0,0,1-2.41-1.4,3.09,3.09,0,0,1-1-2.41,5.37,5.37,0,0,1,2.59-4.68Q6.33,68.79,12,67.84q2.6-.44,13.61-.86c.53,0,1.07,0,1.62,0s1.12-.06,1.69-.11c.44-.38.87-.78,1.3-1.18s.84-.83,1.22-1.26a36.69,36.69,0,0,0,3-3.86c.89-1.32,1.6-2.36,2.13-3.13q1.94-3.3,3.56-6.59c1.08-2.18,2-4.2,2.84-6s1.49-3.43,2-4.76.89-2.19,1.08-2.62l.36-1c.53-1.44,1-2.83,1.4-4.18s.76-2.64,1-3.89H49v.15l.07.07h.29l.14-.14a.4.4,0,0,1,.08-.29v-.22l-.08-.07s0-.07-.07-.07h-.07c-.1,0-.14,0-.14.07a.07.07,0,0,0-.08.07A.26.26,0,0,0,49,28a.17.17,0,0,0-.07.14v.07l-.07.07.29-1.44V26.8a.06.06,0,0,1,.07-.07v-.14c.09-.72.17-1.41.21-2.06s.08-1.23.08-1.76a.07.07,0,0,1,.07.07h.14a.06.06,0,0,0,.07.07.16.16,0,0,0,.11,0,.18.18,0,0,1,.11,0h.14a.33.33,0,0,1,.36.29v.07h.08v.07h.07l.07-.07h.07l.07-.07v-.07a.14.14,0,0,1,0-.11.16.16,0,0,0,0-.11c0-.09-.1-.14-.29-.14h-.07c0,.05-.12,0-.22-.07h-.07l-.15-.15c0-.19-.09-.29-.28-.29h-.15c-.09,0-.14,0-.14.08h-.07a6,6,0,0,1-.11-.72,3.16,3.16,0,0,0-.18-.72h.07l.07.07a1.06,1.06,0,0,0,.36.14L49.9,21H50c.05,0,.07,0,.07-.07l.07-.07v-.15a.2.2,0,0,0,0-.11.11.11,0,0,1,0-.1s-.07,0-.07-.08l-.14-.14v.07l-.08-.07-.28.14v.08l-.08.07-.07-.07h-.21L49,20.18h.07c0,.05,0,.07.15.07a.19.19,0,0,0,.14-.07s.07-.07.07-.22v-.07h-.07v-.07h-.07l-.14-.15h-.29a.07.07,0,0,1-.07.08,2.52,2.52,0,0,0-1.44-1h.07v-.22l-.07-.07h-.15v.29a1.33,1.33,0,0,1-.32,0l-.33,0A6.76,6.76,0,0,0,42,20.86a34.18,34.18,0,0,0-4.4,5.22V26h-.21s-.07,0-.07.07,0,.07.07.07v.08h.14c-.81,1.2-1.59,2.44-2.34,3.74s-1.43,2.56-2.05,3.78S32,36.1,31.5,37.13s-.83,1.89-1.12,2.56a2,2,0,0,1-.64.72,1.12,1.12,0,0,1-.51.14.55.55,0,0,1-.21,0,.28.28,0,0,0-.15,0,6.2,6.2,0,0,1-2.45-2,14.61,14.61,0,0,1-1.36-2.27A1.91,1.91,0,0,1,25,35.3a2.31,2.31,0,0,1,.15-.51c.24-.47.63-1.22,1.19-2.23s1.22-2.16,2-3.45,1.72-2.64,2.77-4a46.41,46.41,0,0,1,3.46-4h.29A.21.21,0,0,1,35,21l.07-.07h.08a.52.52,0,0,0,.14-.36v-.22q6-5.89,11.88-5.9h.9a3.27,3.27,0,0,1,.68.07v.14a.22.22,0,0,0,.15.08H49v-.08H49v-.14c.39.1.75.19,1.08.29l1,.29.58.28v.08h-.08v.28a.22.22,0,0,0,.15.08.27.27,0,0,0,.21-.08l.15-.14A7.2,7.2,0,0,1,55.22,20a.07.07,0,0,0-.07.08H55a.07.07,0,0,1-.07.07V20h-.08a.12.12,0,0,0-.14-.14l-.14.14a.29.29,0,0,1,0,.18.34.34,0,0,0,0,.18v.15a.21.21,0,0,0,.08.14.12.12,0,0,1,.1,0,.18.18,0,0,0,.11,0l.07-.07h.08l.07.07h.21c0,.05,0,.07.08.07h.07l.21,1.44h-.07a.06.06,0,0,0-.07-.07H55.3c0,.05,0,.07-.15.07a.06.06,0,0,0-.07-.07H55l-.07.07h-.22a.6.6,0,0,0-.14.44h.07l.07.07h.07a.21.21,0,0,0,.15.07H55l.14.14a.41.41,0,0,0,.29.15h.22v1.15h-.22v.22c0,.05.05.07.14.07h.08a1.17,1.17,0,0,0-.08.5h-.14v.29l.07.07h.07l-.21,1.95h-.15v.07a.19.19,0,0,0,.08.14h.07c-.1.58-.19,1.06-.29,1.44H55l-.07.07-.08.15v.14s.08,0,.08,0,0,0,.07,0c0,.29-.1.57-.15.83a3.7,3.7,0,0,1-.21.76v.07h-.07a.29.29,0,0,0-.08.22.06.06,0,0,0-.07.07v.07h.15c-.1.43-.21.88-.33,1.33s-.25.9-.39,1.33h-.08l-.07.08a.15.15,0,0,1,0,.1.26.26,0,0,0,0,.18v.08l.07.07-.29.86v.07l-.79,2.31c-.05.19-.09.36-.14.5a3.41,3.41,0,0,1-.22.51l-.21.14v.14h.07v.15l-.22.5Q50.7,43,48.74,47.47a86.22,86.22,0,0,1-4.53,8.93l-.07.07h.07c-.1.19-.32.54-.65,1s-.71,1.08-1.12,1.73-.84,1.31-1.29,2S40.3,62.47,40,63v-.08l-.07.08c-.43.67-.88,1.29-1.33,1.87s-.93,1.15-1.41,1.73l-.07.07h.07l18.58-.51a.21.21,0,0,0-.07.15c0,.09,0,.14.07.14s.14,0,.14-.07v-.22H57v.29l.08-.07h.07l.07-.07v-.15c.38,0,.76,0,1.12,0s.66,0,.9,0a1.18,1.18,0,0,1,.86.36,1.14,1.14,0,0,1,.14.79,21.06,21.06,0,0,1-.57,2.24q-.36,1.08-.69,1.83a8,8,0,0,1-.54,1.12.74.74,0,0,1-.28.18l-.22,0H55v-.07a.06.06,0,0,0-.07-.07v-.14a.29.29,0,0,0,.21-.08c.1,0,.15,0,.15.08h.07l.14.07.15-.15v-.57l-.08-.07v.07h-.07s-.07,0-.07,0,0,0-.07,0A.21.21,0,0,1,55.3,71.87ZM10.37,79.36a.26.26,0,0,1-.07.15.36.36,0,0,0,.14.21h.07a.21.21,0,0,0,.15-.07.33.33,0,0,0,.07-.21.26.26,0,0,0-.07-.15h-.29Zm1.29-.43.08.07v.07h.07s.07,0,.07-.07.07,0,.07-.14v-.15l-.07.08h-.07l-.07.07v.07ZM13,76.84a.24.24,0,0,0,.22.22l.14-.07s.12,0,.22-.15v-.07s-.07,0-.07-.07v-.15s-.08,0-.08-.07l-.07-.07c-.05,0-.07,0-.07,0s0,0-.07,0l-.07.07H13.1v.08a.21.21,0,0,1-.07.14Zm.79-.43s.08,0,.08.14H14v.08l.07-.08v.08c.05,0,.07,0,.07.07a.06.06,0,0,0,.07.07c0,.1.05.14.15.14h.07a.18.18,0,0,0,.11,0,.12.12,0,0,1,.11,0l.14-.14c0-.1,0-.15-.07-.15v-.07a.29.29,0,0,0-.22-.07h-.14l-.15-.14L14,76.19H14l-.07.08-.08.07Zm1.95.14h.07a.06.06,0,0,1,.07-.07l.07-.07.08-.07L16,76.27v-.08h-.07c-.09,0-.14,0-.14.08Zm.5-.72c.05,0,.07,0,.07.08s0,.07,0,.07,0,0,0,.07l.14.07h.07l.07.07c0,.1,0,.15.08.15H17v-.15a.21.21,0,0,0-.07-.14h-.29c.05,0,.07,0,.07-.07a.16.16,0,0,0,0-.11.12.12,0,0,1,0-.11h-.36Zm1.15,2.67s.08,0,.08.07a.27.27,0,0,1,.21-.07h.07v-.14a.07.07,0,0,1-.07-.08h-.29Zm.87-.07.07.07v.07a.21.21,0,0,1,.07.14h.29l-.07-.07v-.07a.21.21,0,0,0-.07-.14h-.15l.07-.07v-.29l-.07.07h-.07c-.05,0-.07,0-.07.07ZM19,75.76l.07.07V76l.29-.15-.07-.07a.21.21,0,0,0-.08-.14h-.07a.19.19,0,0,0-.14.07Zm1.87,1.95s0,.07,0,.07,0,0,0,.07h.15c.09,0,.14,0,.14-.07h.07l.07-.15a.21.21,0,0,1-.07-.14l-.07-.07c-.24-.1-.36-.07-.36.07Zm1.73-2.09c.05,0,.07,0,.07.07a.17.17,0,0,0,.07.14H23l.07-.07.07-.07H23v-.07c0-.05,0-.07-.07-.07a.07.07,0,0,0-.07-.08l-.15.08h-.14Zm.21-.51v.08l.08.07v.07H23l.07-.07V75ZM31,65.75s.07,0,.07,0,0,0,.08,0l.07-.08h.07v-.07l-.14-.14c-.1,0-.15,0-.15.14Zm1.23-.64.07.07v.07h.07l.07-.07.07-.07c0-.1,0-.15-.14-.15S32.26,65,32.26,65.11Zm.36-.87a.29.29,0,0,0,.07.22l.07.07h.14l.15-.07.07-.07v-.07L33,64.1,32.9,64h-.07A.19.19,0,0,0,32.62,64.24Zm.86.72a.77.77,0,0,0-.29.07.65.65,0,0,0-.29.51l.15.29V66l.07.07v.15a.41.41,0,0,0,.14.43.29.29,0,0,0,.22.07c.1,0,.14,0,.14-.07l.15-.15a.4.4,0,0,1,.5-.28h.07c.15,0,.27-.1.36-.29v-.29h-.07c0-.1-.07-.19-.21-.29a.31.31,0,0,1-.18,0,.14.14,0,0,0-.11,0,.21.21,0,0,0-.15-.07l-.07-.07a1.19,1.19,0,0,0-.36-.15Zm.72-.57.14.36s.08,0,.08.07h.21s.07,0,.07,0,0,0,.08,0v-.08h.07l-.07-.07v-.07c-.05,0-.08,0-.08-.07l-.14-.14-.07-.08a.06.06,0,0,0-.07-.07c-.05,0-.08,0-.08,0s0,0-.07,0l-.07.08ZM34.85,25h-.22v.07l-.07.08v.07h.29l.07-.07V25Zm-.07,35.28h.07l.07.08H35v-.08l.07-.07a.06.06,0,0,1-.07-.07.06.06,0,0,1-.07-.07l-.14.14Zm.5,4h-.07c-.15-.09-.27,0-.36.15v.36s.07,0,.07,0,0,0,.07,0,0,.07,0,.07,0,0,0,.07L35,65c0,.1,0,.15.07.15s0,.07,0,.07,0,0,0,.07h.07a.19.19,0,0,0,.14-.07h.07a.21.21,0,0,1,.15-.07v-.07a.21.21,0,0,0,.14-.08l.07-.07h-.14s0-.07-.07-.07v-.07H35.5l-.08.07h-.07v-.07a.06.06,0,0,0,.07-.07q.15-.23,0-.36Zm-.22-2.59a.06.06,0,0,0-.07.07c0,.05,0,.07-.07.07s0,.15.07.15a.06.06,0,0,0,.07.07v.07l.15-.14v-.15c-.05,0-.07,0-.07-.07Zm.44-39s.07-.05.07-.15v-.14h-.22l-.07.07v.22Zm.07-1.44.07.07h.22V21h-.15l-.07.07a.06.06,0,0,0-.07.07Zm.29,1.94a.23.23,0,0,0,.07-.14v-.08h-.07a.07.07,0,0,0-.08-.07h-.07l-.07-.07-.07.36Zm.28,2.59-.07-.07h-.21l-.08.07v.15s.08,0,.08.07h.07a.06.06,0,0,0,.07-.07h.07v-.15Zm-.28,37.8v.07l.07.08h.14v-.08h.15v-.07s-.08,0-.08-.07a.17.17,0,0,0-.14-.07h-.07l-.07.07h-.08v.07Zm.57-38.45A.07.07,0,0,1,36.5,25v-.14h-.07l-.07-.07s-.07,0-.07.07h-.07v.21Zm-.21,34.85.07.15v.07h.07l.07-.07L36.5,60v-.14a.06.06,0,0,1-.07-.07l-.07-.07h-.07v.07s-.07,0-.07.07Zm.21-34.41s0,.07,0,.07,0,0,0,.07v.07h.07l.07.07h.08v-.07a.06.06,0,0,0,.07-.07l.07-.07v-.07Zm0,39.31a.19.19,0,0,0-.07.14c0,.05,0,.12.14.22h.08c0-.05,0-.07.07-.07V65l-.07-.07v-.14H36.5ZM37,65.9a.06.06,0,0,1-.07-.07.22.22,0,0,1-.08-.15h-.07l-.07-.07a.29.29,0,0,0-.22.07l-.07.07s-.07,0-.07.15v.5l.07.07h.15a.21.21,0,0,1,.07-.14v-.07c0-.05,0-.07.07-.07v-.08h.07l.15-.14V65.9Zm-.51-6.34a.22.22,0,0,0,.08.15h.07l.07-.08.07-.07-.07-.07a.21.21,0,0,0-.14-.07l-.08.07h-.07v.07Zm.36,1.59h-.07a.21.21,0,0,0-.14-.08l-.07.08-.08.07s.08,0,.08.07l.07.07h.07l.07-.07.07-.07Zm0-36.65v.07h-.14v.07c0,.05,0,.07.07.07v.08h.07s.08,0,.08,0,0,0,.07,0h.21a.29.29,0,0,0,.08-.22l.07-.07V24.5Zm-.07,33.41s0,.07,0,.07,0,0,0,.07h.08v.07l.07-.07h.07v-.14L37,57.76h-.07v-.07l-.15.14Zm.29.79a.19.19,0,0,0-.07.14v.07l.14.15V59h.07v-.08l.08-.07V58.7a.07.07,0,0,1-.08-.07h-.07Zm.22,2.95.14-.14-.07-.07-.07-.08s0-.07-.08-.07h-.07l-.07.07H37v.22l.07.07c0,.05,0,.07,0,.07s0,0,0,.07h.07s0-.07,0-.07S37.3,61.7,37.3,61.65Zm-.08-3a.26.26,0,0,0,.15.07h.07l.07-.07h.07l-.14-.15H37.3v.07h-.08Zm.36,2.59a.07.07,0,0,0,0,.14l.15.15.14-.07v-.08l.07-.07-.07-.07H37.8s0-.07-.07-.07h-.15Zm.36-5.69a.07.07,0,0,1,.08.07.17.17,0,0,0,.14.07h.07l.15-.14H38.3v-.07l-.07-.07h-.07l-.14.07h-.08Zm.44,4.54c-.15,0-.22.07-.22.21s-.07,0-.07.08l.07.14.14.14h.15a.23.23,0,0,0,.21-.14v-.07h.08s0-.07.07-.07v-.22l-.07-.07Zm.36,4.32v-.07l-.15-.15L38.45,64c-.05,0-.07,0-.07,0s0,0-.08,0l-.07-.07-.07-.07-.07.07V64l.07.07a.25.25,0,0,0,0,.14.4.4,0,0,1,0,.15.07.07,0,0,0,.07.07c0,.09.08.14.22.14Zm-.22-8,.14.14s0-.07.08-.07l.07-.07v-.22a.06.06,0,0,1-.07-.07h.14s0-.08.07-.08v-.14c-.05,0-.07,0-.07-.07v-.15h-.07l-.07.08a.19.19,0,0,0-.08.14h-.07V56a.26.26,0,0,0,.07.15l-.07.07s0,.07,0,.07,0,0,0,.07Zm.14-36a.07.07,0,0,0,.08.08h.07s.07,0,.07-.08v-.14H39l-.07-.07h-.22v.07a.07.07,0,0,0-.07.07v.07ZM39,23.63s.07-.14.07-.28v-.08a.21.21,0,0,0-.14-.07h-.14v.15a.21.21,0,0,0-.08.14v.22l.15.07C38.9,23.78,39,23.73,39,23.63Zm0,36.94s0,.07-.07.07,0,.07-.07.07l-.07.08h.07v.07l.07.07V61a.21.21,0,0,0,.14.07c.2,0,.29-.07.29-.21a.25.25,0,0,0-.29-.29ZM39.38,63a.3.3,0,0,0-.07-.43.21.21,0,0,0-.14-.08.26.26,0,0,0-.15-.07h-.14c0,.05,0,.07-.07.07s-.07,0-.07.08v.07a.27.27,0,0,0,.07.21c0,.05,0,.08,0,.08s0,0,0,.07H39a.29.29,0,0,0,.22.07A.27.27,0,0,0,39.38,63Zm0-1.58s-.07,0-.07,0,0,0-.07,0v.07h-.07l.14.21.29-.21-.07-.07Zm.15.35V62h.21l.08-.07-.08-.07-.07-.08Zm.21-3.45.22.14H40v-.07s.07,0,.07-.07,0-.15-.14-.15a.19.19,0,0,0-.14.08Zm.58-38.59H40.1V20h.15s.07,0,.07-.07Zm.58-3.1a.21.21,0,0,1-.15-.07h-.07l-.07.07-.07.14v.08h.07s.07,0,.07,0,0,0,.07,0l.15-.15Zm0,2.3a.07.07,0,0,0-.08.08v.14a.29.29,0,0,0,.22.07h.07s.07,0,.07-.14V19Zm.28,2v-.43l-.28-.07v.14s-.08.05-.08.14.17.15.22.15l.07.07ZM40.9,69.86H41s0,.07,0,.07,0,0,0,.07l.29.22s0,.07,0,.07,0,0,0,.07v.29l.07.07h.07a.16.16,0,0,0,.11,0,.14.14,0,0,1,.11,0v-.07a.06.06,0,0,0,.07-.07v-.07c0-.1,0-.15-.07-.15a.21.21,0,0,1-.07-.14v-.08a1.93,1.93,0,0,1,.21-.28c.1-.1.15-.17.15-.22l-.15-.07a.17.17,0,0,0-.14-.07.22.22,0,0,0,.14-.22.53.53,0,0,0-.07-.22l-.07-.07s0-.07-.07-.07l-.07-.07h-.08V69l-.07.15c0,.19,0,.31-.14.36l-.07.07c-.1,0-.15.05-.15.14a.21.21,0,0,0-.14.08ZM41.33,71a.21.21,0,0,0-.07-.14H41l-.07.07S41,71,41,71s0,.14.07.14a.21.21,0,0,0,.15-.07h.07Zm.14-53.86.07-.07v-.36h-.28v.07c0,.1,0,.15-.08.15v.14a.07.07,0,0,1,.08.07Zm.07,2.31c0,.05,0,.07.08.07l.07-.07v-.07h.07v-.15h-.22a.26.26,0,0,0-.07.15v.07Zm.29.29h-.21c0,.05,0,.07,0,.07s0,0,0,.07l.15.14h.07Zm.29,52.05a.39.39,0,0,0-.07-.5H41.9a.34.34,0,0,0-.36.21v.29l.15.15a.23.23,0,0,0,.14.07C41.93,72,42,72,42.12,71.8Zm.07,0a.06.06,0,0,1,.07.07c0,.1,0,.15.08.15h.14c.05,0,.07,0,.07,0s0,0,.07,0,0-.08,0-.08,0,0,0-.07,0-.14-.07-.14a.21.21,0,0,1-.14.07c-.05,0-.08,0-.08.07Zm.15-3.17v.22a.17.17,0,0,0,.07.14c.05,0,.07,0,.07.08s.07,0,.07-.08.07,0,.07-.07a.21.21,0,0,0,.08-.14v-.07a.22.22,0,0,0-.08-.15h-.21v.07Zm.43,2.88c0,.1,0,.15.14.15h.15l.07-.07h.14l-.14-.29c-.19-.1-.31-.07-.36.07Zm.21-.79a.29.29,0,0,1,.08.22h.28l.08-.07h-.08v-.15a.19.19,0,0,0-.07-.14h-.21v.07H43Zm.51-55.08-.07-.07h-.15v.14l-.07.15h.07l.07.07h.08l.07-.07v-.15l.07-.07Zm.29,52.71a.23.23,0,0,0,.14-.08v-.21h-.14v.07H43.7v.22Zm.57,2.88a.4.4,0,0,0-.21-.15H44c-.19.1-.29.17-.29.22v.07a.29.29,0,0,0,0,.18.16.16,0,0,1,0,.11l.21.21a.21.21,0,0,1,.07.15.16.16,0,0,1,.11,0,.14.14,0,0,0,.11,0h.14c.2,0,.29-.07.29-.22V71.8h.07v-.14a.29.29,0,0,0-.07-.22l-.07-.07a.21.21,0,0,0-.14-.07A.26.26,0,0,1,44.35,71.23Zm-.21-52.64a.1.1,0,0,0,0-.14c0-.05,0-.07-.15-.07v-.07h-.07l-.14.36.36.07Zm-.08,51.92a.21.21,0,0,1-.14.07v.07c-.05,0-.05,0,0,.07v.15h.22l.07-.08h.07v-.07l-.07-.14v-.14h-.07A.07.07,0,0,1,44.06,70.51Zm.29-.44.07.08h.22l-.07-.22-.07-.07h-.08s0,.07,0,.07,0,0,0,.07Zm.51,1.37a.18.18,0,0,0,.28,0v-.07s.08-.05.08-.14a.22.22,0,0,0-.08-.15h-.07a.49.49,0,0,0-.29.07.21.21,0,0,1-.07.15Zm.28-1,.15.14a.19.19,0,0,1,.14.07.44.44,0,0,0,.29-.14v-.07a.18.18,0,0,0,0-.22c0-.15,0-.22-.14-.22h-.29l-.15.15Zm1.08-54.87s-.07,0-.07,0,0,0-.07,0h-.22a.19.19,0,0,0,0,.29v.07l.08.07h.14l.07-.07c.05,0,.07,0,.07-.15Zm.08,56.81a.06.06,0,0,1,.07.07l.21-.07v-.15l-.07-.07a.21.21,0,0,0-.14.07H46.3Zm.57-55.15a.34.34,0,0,0,.22.07l.14-.07.07-.08v-.21l-.07-.07v-.08l-.07-.07h-.22a.26.26,0,0,0-.07.15v.36Zm.07-2.16H47l.07.07h.14v-.29H47l-.08.07Zm.36,2.44s0,.08,0,.08,0,0,0,.07v.14a.29.29,0,0,0-.07.22v.07l.07.14v.08h.07a.07.07,0,0,1,.08-.08l.07-.07a1.36,1.36,0,0,0,.14-.36v-.29Zm.44,51.7h.07v.07l.07-.07H48a.21.21,0,0,0,.07-.14V69L48,68.92h-.07V69a.19.19,0,0,0-.14.08Zm.64,3.1s0-.08,0-.08,0,0,0-.07v-.07L48.17,72V71.8l-.29.22v.07a.34.34,0,0,0,.07.36h.15s0,.07.07.07h.07a.19.19,0,0,0,.07-.14Zm-.5-30.6s0,.07.14.07l.08.07h.07v-.14l.07-.08a.06.06,0,0,0-.07-.07v-.07H48l-.07.07Zm.36,28.51a.29.29,0,0,0-.22.07l-.07.15v.07a.49.49,0,0,0,.15.36.21.21,0,0,1,.14.07c.34,0,.5-.15.5-.43a.13.13,0,0,1,.15-.15s.07,0,.07,0,0,0,.07,0h.07v-.07a.45.45,0,0,0,0-.36H49a.44.44,0,0,0-.29.14c0,.1-.05.15-.14.15h-.15A.21.21,0,0,0,48.24,70.22Zm.22-51.84c.09-.1.13-.17.1-.22a.32.32,0,0,1,0-.14.41.41,0,0,0-.29-.15h-.07c-.05,0-.07,0-.07.08S48,18,48,18.16v.15l.15.14h.07c.1,0,.14,0,.14-.07Zm-.29-.65c0,.05,0,.07.07.07h.07v-.21h-.07l-.07-.08H48.1v.22ZM48.31,42c-.09,0-.14,0-.14.15v.07l.07.07.14.07h.08s0,.08.14.08h.07a.74.74,0,0,0,.36-.08V42h-.14a.26.26,0,0,0-.15-.07s0,.07-.07.07ZM49,15.43s.07,0,.07-.15v-.07H49a.36.36,0,0,0-.21-.14.22.22,0,0,0-.15-.08h-.21v.15a.17.17,0,0,0,.07.14h.07c0,.05,0,.07.07.07l.07.08a.21.21,0,0,0,.15.07C49,15.5,49,15.48,49,15.43ZM50,40.63h-.15l-.07-.08-.07.08h-.22a.41.41,0,0,0-.21.36l-.07.07v.07l-.08-.07v.21h.22l.07-.07h.22s.12-.07.21-.21l.08-.08a.21.21,0,0,1,.07-.14Zm-.29-22s.07,0,.07-.07h.07l.15-.14q.08,0,.21-.15v-.07a.21.21,0,0,0-.07-.14L50,18v-.08l-.14-.14a.12.12,0,0,1-.11,0,.18.18,0,0,0-.11,0,1.36,1.36,0,0,0-.36.14l-.07.15c0,.14,0,.24.07.28l.07.08.15.14s.07,0,.07,0,0,0,.07,0Zm.07,18.08s.07,0,.07-.08v-.14l-.14-.14h-.22l-.14.14v.14l.14.15v.07h.22S49.75,36.76,49.75,36.67Zm.36,3.38L50,40v-.22l-.14-.14a.29.29,0,0,0-.22-.07h-.07c-.1,0-.15,0-.15.14s-.14.17-.14.22V40l.07.07a.3.3,0,0,0,.29.22l.07-.08a.29.29,0,0,0,.22-.07h.14ZM49.39,67.7a.06.06,0,0,0,.07.07v.07a.29.29,0,0,0,.22-.07h.07V67.7a.21.21,0,0,1-.07-.15h-.22l-.07.08Zm.22-41.33.07.07.07-.29h-.29v.22Zm0,43.56v-.14a.29.29,0,0,0,.07-.22v-.14h-.07v-.07l-.07.07h-.08v.5Zm.14,2.52a.17.17,0,0,0-.07-.14h-.14l-.08.07v.07h.08v.07h.21Zm0-47.74.07-.14V24.5h-.21v.21Zm-.07,1.88s-.07,0-.07.14v.07h.21s.08,0,.08-.07v-.07l.07-.07Zm.58-6.7a.18.18,0,0,0,0-.11.16.16,0,0,1,0-.11H50a.2.2,0,0,0-.22.22.34.34,0,0,0,.07.22s.08,0,.08.07h.36ZM50,37.6h.14a.06.06,0,0,0,.07.07v-.14a.29.29,0,0,0,.08-.22h-.15L50,37.24v.07l-.07.08Zm.29-20.16a.21.21,0,0,0,.07-.14h-.07v-.07H50v.07a.17.17,0,0,0,.07.14Zm-.08,8.14v.07l.08-.29H50v.22Zm.15,10.58v-.07h.07V36L50.33,36h-.15l-.07.07v.07l-.07.07Zm.07-19.37h-.22v.08h-.07V17h.22v-.07l.07-.07ZM50.18,26v.29h.29v-.22l.07-.07Zm.36,11.59a.07.07,0,0,1,.08-.07h.07v.07c.05,0,.07,0,.07-.07h.07v-.14a.21.21,0,0,0-.14-.08H50.4v.08l-.07.14v.07l-.07.07v.15l-.08.07h.08V38h.14l.07-.07s0-.07,0-.07,0,0,0-.07Zm-.28,30.1h.14l.07-.07v-.22h-.14a.06.06,0,0,1-.07.07Zm.14-32.91v.08h.22s0-.08.07-.08v-.21a.21.21,0,0,1-.15-.07h-.21v.28Zm.07,32.91s-.07,0-.07,0,0,0-.07,0v.14l.14.15c.05,0,.07,0,.07,0s0,0,.08,0h.07v-.08h-.07a.29.29,0,0,0-.08-.21Zm.22-48.39v-.07l.07-.07V19.1h-.14a.09.09,0,0,0-.15,0l-.07.07a.17.17,0,0,0,.07.14Zm-.15,6.34a.47.47,0,0,0-.07.29c.05,0,.07,0,.07,0s0,0,.08,0l.07.07.07.07.07-.07a.19.19,0,0,0,.07-.14v-.07q.15-.36.36-.36h.15l.14-.08h.07l.08-.07v-.14l-.08-.07a.07.07,0,0,1-.07-.08.27.27,0,0,1-.21-.07h-.15a.21.21,0,0,0-.07.15.13.13,0,0,1-.14.14H50.9a.26.26,0,0,0-.14.07A2,2,0,0,1,50.54,25.65Zm.08-5a.29.29,0,0,0-.08.22c0,.05,0,.07.08.07h.14c.05,0,.07,0,.07-.07v-.15h.07v-.07ZM50.69,18l.07.07v.07a.14.14,0,0,1,.11,0,.16.16,0,0,0,.11,0h.07c.09,0,.14,0,.14-.07l.15-.14V17.8a.23.23,0,0,0-.08-.14c0-.05,0-.07-.07-.07a.29.29,0,0,0-.21-.08h-.15c-.09.1-.14.17-.14.22Zm1.37,20.52a.49.49,0,0,0,.07-.29V38a.43.43,0,0,0-.29-.28h-.36c-.1.09-.17.09-.22,0h-.43a.17.17,0,0,0-.07.14.21.21,0,0,0-.07.14v.15s.05.12.14.21h.29l.07-.07h.07l.08.07a.4.4,0,0,1,.21.15h.22A.42.42,0,0,0,52.06,38.47ZM50.69,71.59v.07l.07.07.14.07s0,.07.08.07h.14l.07-.14-.14-.14a.16.16,0,0,1-.11,0,.18.18,0,0,0-.11,0h-.07v.08Zm.14-.94.07-.07.08-.07s0,0,0-.07v-.08h-.15l-.07.08Zm0-2s0,0,0,.08v.14l.07-.07h.15v-.07h.07s0-.08-.07-.08v-.14H50.9v.07A.07.07,0,0,0,50.83,68.63Zm.29-52.12c0-.05,0-.08,0-.08s0,0,0-.07v-.21H51a.07.07,0,0,0-.08-.08l-.07.44Zm-.22,12a.26.26,0,0,0-.07.14v.07l.07.08h.22c0-.1,0-.15.07-.15v-.14l-.07-.07h-.07A.21.21,0,0,1,50.9,28.46Zm1,10.8c0-.1,0-.15-.14-.15a.44.44,0,0,0-.36-.21h-.07v-.15l-.08-.07v-.07h-.07v-.07h-.07v.07l-.14.14V39s-.08,0-.08.07a.07.07,0,0,0-.07.07v.29c.05,0,.12.05.22.15a.35.35,0,0,1,.14,0,.28.28,0,0,0,.15,0h.14a.14.14,0,0,0,.11,0,.16.16,0,0,1,.11,0,.15.15,0,0,0,.1,0,.18.18,0,0,1,.11,0H52v-.21ZM51,19.46l.14.14h.07a.21.21,0,0,0,.15-.07l.07-.07v-.07a.34.34,0,0,0-.07-.22c0-.05,0-.07-.08-.07a.17.17,0,0,0-.14-.07h-.07v.07l-.15.14v.22Zm.28,49.39a.21.21,0,0,0-.14.07H51V69l.07.08a.21.21,0,0,0,.07.14.17.17,0,0,0,.14-.07h.15v-.07s-.07,0-.07-.08a.07.07,0,0,0-.08-.07Zm-.07-52.06v.15l-.07.07v.22l.22-.08h.14v-.07h.07V17c.05-.05.05-.12,0-.22v-.07h-.07a.34.34,0,0,0-.22.07Zm.43,13h-.07s-.07,0-.07.07l-.14.14a.21.21,0,0,0,.07.15.23.23,0,0,0,.14.07h.15l.14-.22V30l.07-.07H51.7Zm-.07,5h.29v-.21l-.07-.07h-.15c0,.05,0,.07,0,.07s0,0,0,.07Zm.22-14.4c0,.1,0,.15.07.15h.22v-.15L52,20.32h-.07s-.07,0-.07-.07h-.07Zm.07-3.52c.1.09.1.14,0,.14v.14c0,.1,0,.15.07.15a.29.29,0,0,0,.22.07h.07c.1,0,.14-.07.14-.22s0-.07,0-.07,0,0,0-.07v-.14c-.05,0-.07,0-.07-.08s-.07,0-.07-.07h-.07L52,16.65l-.07.07h-.07Zm0,7.92a.29.29,0,0,0,.22.07h.14v-.29h-.07l-.29-.07Zm.07,3.31h.15s.07-.05.07-.15.07,0,.07-.07v-.07h-.14a.26.26,0,0,0-.15.07l-.07.07V28Zm0,3.24s-.07,0-.07.07v.07h.07v.07c.05,0,.07,0,.07-.07h.08a.26.26,0,0,1,.14.07h.36l-.14.08v.21l.14.15.07.07a.21.21,0,0,0,.07-.15v-.14a.17.17,0,0,0-.07-.14l-.07-.08a.06.06,0,0,1,.07-.07.15.15,0,0,1,0-.11.13.13,0,0,0,0-.1c0-.24-.09-.36-.28-.36h-.08a.19.19,0,0,0-.14-.08c-.1,0-.14.08-.14.22a.29.29,0,0,1-.08.22Zm.51-12.89c0-.05-.05-.07-.15-.07l-.07.07h-.07a.06.06,0,0,1-.07.07v.07a.07.07,0,0,0-.08.08v.14a.21.21,0,0,0,.15.07h.07l.07-.07.07-.07a.8.8,0,0,0,.15-.15.06.06,0,0,1,.07-.07v-.07Zm.14,6.84c0-.05,0-.07-.07-.07a1.19,1.19,0,0,0-.36-.15h-.07v.08c-.05,0-.08,0-.08.14a.29.29,0,0,0,.08.22c0,.09.07.14.21.14h.15v-.07h.07s0-.07.07-.07ZM53,21.76a.32.32,0,0,1-.14,0,.28.28,0,0,0-.15,0,.27.27,0,0,0-.14,0l-.14,0a.26.26,0,0,0-.15.07.21.21,0,0,0-.14.08.19.19,0,0,0-.07.14v.07a.21.21,0,0,0,.07.15h.57a.22.22,0,0,1,.15-.08c.09,0,.14,0,.14.08h.07a.07.07,0,0,1,.08-.08l.07-.07.07-.07v-.14l-.07-.08h-.15Zm-.86,45.43c-.1.2-.07.32.07.36a.18.18,0,0,1,.11,0,.16.16,0,0,0,.11,0,.4.4,0,0,0,.21-.15v-.07s.07,0,.07-.07a.21.21,0,0,0-.07-.15v-.07a.19.19,0,0,1-.07-.14.06.06,0,0,1-.07-.07l-.07-.08h-.08L52.2,67v.07A.17.17,0,0,1,52.13,67.19ZM52.34,36l.15.07.07-.07v-.36c-.05,0-.07,0-.07-.08a.33.33,0,0,0-.07-.21H52.2a.21.21,0,0,0-.07.14c0,.15,0,.22.14.22h.22l.07.07h-.14c0,.05,0,.07,0,.07s0,0,0,.07Zm.36-7.78c-.09-.1-.16-.14-.21-.14s-.07,0-.07,0,0,0-.08,0a.21.21,0,0,0-.14.07v.22a.52.52,0,0,0,.36.14l.07-.07C52.73,28.41,52.75,28.31,52.7,28.17Zm.22,5.33a.06.06,0,0,0-.07-.07v-.08l-.07-.07a.53.53,0,0,1-.22.07.19.19,0,0,0-.14.08h-.15v.07a.28.28,0,0,0-.07.21v.15a.41.41,0,0,0,.29.07l.07.07s.07,0,.07-.07l.22-.43ZM52.63,71l-.07-.07c0-.1,0-.15-.07-.15a.16.16,0,0,0-.11,0,.16.16,0,0,1-.11,0V71l.07.07s0,.07.08.07l.07-.07h.14Zm.43-36.43a.06.06,0,0,1-.07-.07l-.07-.08H52.7v.08h-.07v.07h-.07c0,.05,0,.07-.07.07v.07h-.07l-.08.15.08-.08h.43l.14-.14h.07Zm-.43,34.56h-.07v-.07c-.05,0-.07,0-.07.07a.21.21,0,0,0-.15.07c0,.05,0,.07.08.07v.08h.14l.07-.08Zm.07-32a.26.26,0,0,1-.14-.07h-.14v.28a.19.19,0,0,0,.14.08h.07v-.08h.07ZM52.63,26s.07,0,.07,0,0,0,.08,0h.07l.07.07v-.28h-.07a.07.07,0,0,0-.07-.08H52.7l-.07.08Zm.15-7.7a.17.17,0,0,0,.14.07H53l.07.07v-.29H53s-.05-.07-.14-.07h-.07v.07l-.08.07Zm.57,13.53-.14-.14-.15-.07L53,31.7l-.07.07L52.7,32v.28h.15a.65.65,0,0,0,.29-.07h.07v-.07h.07v-.07l.07-.07Zm-.29-12.45a.22.22,0,0,0,.15-.08l.07-.07s.07,0,.07-.07.15-.05.15-.14v-.15s-.08,0-.08-.07-.16-.14-.21-.14a.21.21,0,0,0-.15.07l-.28.29v.07a.18.18,0,0,0,0,.11.12.12,0,0,1,0,.1A.27.27,0,0,0,53.06,19.39ZM53,21.26a.06.06,0,0,1-.07-.07h-.07v.07h-.07v.21H53l.07-.14v-.07Zm-.14,47-.07.08.07.07v.14h.07s0-.07.07-.07.15,0,.15-.07V68.2l-.08-.07H53v.07h-.07A.06.06,0,0,0,52.85,68.27Zm-.07.65a.21.21,0,0,0,.07.15h.36l.07-.08h-.07v-.14l-.07-.07s0-.07-.08-.07-.24,0-.28.07Zm.14-41.33v.08a.27.27,0,0,0-.07.21c0,.1,0,.15.07.15h.29v.07s0,.07.07.07h.22l.07-.07V28l-.07-.07h-.08a.06.06,0,0,0-.07-.07l-.07-.07v-.07a.23.23,0,0,0-.14-.08Zm1,3.1c.14,0,.17-.05.07-.14s0-.15-.07-.15a.07.07,0,0,0-.07-.07l-.08-.07a.26.26,0,0,1-.14-.07v-.08a.9.9,0,0,1,0-.28,1.22,1.22,0,0,0,0-.22.19.19,0,0,0,.07-.14s0-.08,0-.08a.06.06,0,0,0-.07-.07h-.07c0,.05,0,.07-.07.07a.07.07,0,0,1-.07.08l-.08.07-.07.07h-.07l-.14.14-.22.29a.21.21,0,0,0-.07.15l.14.14.36.22.29.14h.07a.21.21,0,0,0,.15.07h.07ZM52.85,67.05a.06.06,0,0,1,.07.07v.07a.26.26,0,0,1,.14-.07h.22v-.07h.07v-.14s-.05-.12-.14-.22c-.24-.1-.36,0-.36.14Zm.07-50.26h.14a.07.07,0,0,1,.08.08h.07v-.29s-.05-.07-.15-.07h-.14Zm.43,6.27a.19.19,0,0,0-.14.07l-.07.07v.07c0,.05,0,.08,0,.08s0,0,0,.07a.36.36,0,0,0,.21.14.29.29,0,0,0,.22-.07c.1-.09.1-.22,0-.36v-.07h-.29Zm-.21.93a.19.19,0,0,0,.14.08h.14v-.29h-.28Zm.14,1-.07.22h.21s.08,0,.08-.15V25Zm0-8.06.14.07h.08v-.22s0-.07-.15-.07h-.07Zm.07,1.29a.16.16,0,0,1,0,.11.14.14,0,0,0,0,.11l.07.07a.13.13,0,0,0,.15.15.23.23,0,0,0,.14-.08s.07,0,.07-.07v-.14l.07-.07v-.08Zm.51-.79a.24.24,0,0,0-.29-.07H53.5l-.08.07v.15a.07.07,0,0,0,.08.07c0,.05.07.07.21.07h.07A.4.4,0,0,0,53.86,17.44ZM54.5,21a1.7,1.7,0,0,0-.36-.43h-.28l-.08.07-.21.22H53.5V21a.07.07,0,0,1,.07.07.44.44,0,0,1,.14.29h.07a.19.19,0,0,0,.08.14c0,.05,0,.08.07.08v.07a.18.18,0,0,1,.11,0,.12.12,0,0,0,.1,0l.08-.07.28-.22v-.07s.08,0,.08-.14v-.08A.07.07,0,0,0,54.5,21Zm-.79,8L53.57,29v.22l.07.07h.29V29Zm-.07,4.54a.21.21,0,0,0-.07.14v.08h.07l.14.07.08-.29Zm.14-14.18v.14h-.07v.07h.22s0-.07,0-.07,0,0,0-.07v-.07Zm.44,3.67a.4.4,0,0,0-.08-.29v-.14H54l-.07-.08v.08h-.07a.46.46,0,0,0-.15.36c0,.09,0,.14.07.14h.36Zm0,2.73a.21.21,0,0,0,.07-.14v-.14c0-.15-.19-.17-.43-.08,0,.05,0,.08,0,.08s0,0,0,.07l.08.07v.07q.14.15.21.15h.07Zm-.44,41.33.29-.07L54,66.69v.07h-.07c-.1,0-.15,0-.15.07Zm.8-38.59.07-.14v-.08L54.5,28l-.07-.07h-.14a.26.26,0,0,0-.15-.07H54v.07l-.07.07V28l-.07.07v.14s0,0,0,.07v.08a.69.69,0,0,0,.5.21h.07v-.07Zm-.29-1.87v.07s-.07.05-.07.14V27h-.36v.14l.36.14.07-.14V27h.14L54.5,27a.22.22,0,0,0,.08-.15v-.14Zm-.36-2.23.07.07h.14v-.07s.08,0,.08,0,0,0-.08,0v-.07H54l-.07-.07Zm.36,5.47a.26.26,0,0,1-.15-.07h-.07L54,29.9l-.07.14a.06.06,0,0,1,.07.07l.07.08h.15c0-.05,0-.08.07-.08Zm-.22-10.15.15.14v-.07s.07,0,.07,0,0,0,.07,0V19.6h-.07s-.07,0-.07,0,0,0-.08,0Zm.15,51a.09.09,0,0,0,0,.15V71l.07-.07h.07a.21.21,0,0,0,.14-.07v-.15l-.07-.07v-.07a.19.19,0,0,1-.14.07Zm.21-41.4v-.21h-.14a.17.17,0,0,0-.07.14v.07l.07.07h.14Zm-.07,37.59s.07,0,.07-.08v-.21l-.07.07h-.07l-.07.07v.15Zm.43-41.76h.07v-.29q-.13-.15-.21-.15h-.07l-.08.08c-.14.05-.16.19-.07.43h.36ZM54.5,24a.26.26,0,0,0-.07.15v.07l.07.07v.15s.08,0,.08.07v.07l.07-.07h.07v-.07h.07v-.15a.17.17,0,0,1-.07-.14V24Zm0,43.71a.27.27,0,0,0,.29.29h.07c.1,0,.15,0,.15-.08h.07a.28.28,0,0,0,.14-.43c-.09-.19-.21-.24-.36-.14s-.07,0-.07,0,0,0-.07,0l-.07.07a.06.06,0,0,1-.07.07v.08Zm.15-44.21c0,.05,0,.07.07.07h.14v-.21h-.07l-.07-.08h-.07Zm.14-1.8.15.07h.14v-.21L55,21.47a.07.07,0,0,0-.07-.07h-.15Zm.15,4.46a.29.29,0,0,0-.08.22v.14a.29.29,0,0,0,.22.08h.07a.21.21,0,0,0,.07-.15v-.21h-.07L55,26.15Zm.5,42.77.07.07h.07v.08h.58c.1,0,.14-.08.14-.22a.18.18,0,0,0,0-.11.12.12,0,0,1,0-.11h-.29l-.14.15s-.07,0-.07,0,0,0-.07,0h-.08c0,.05,0,.07-.07.07Zm.65,2L56,70.87v-.08h-.36v.08a.06.06,0,0,1,.07.07.19.19,0,0,1,.07.14h.07A.21.21,0,0,0,56,71Zm.57,0c-.19.09-.24.21-.14.36l.07.07.15.07a.27.27,0,0,0,.21.07H57v.08h.22v-.15s0-.07,0-.07,0,0,0-.07H57.1v-.07a.07.07,0,0,1-.08-.08.28.28,0,0,0-.07-.21v-.15l-.07.08h-.07C56.71,70.87,56.66,70.89,56.66,70.94Zm.72-2.31a.33.33,0,0,0,.08.36.23.23,0,0,1,.14.08.19.19,0,0,0,.14-.08.21.21,0,0,0,.15-.07v-.21a.13.13,0,0,0-.15-.15v-.07h-.07A.46.46,0,0,0,57.38,68.63Zm.94-1.51c-.1.19,0,.29.14.29,0,0,0,.07.08.07a.43.43,0,0,0,.21-.14s0-.12,0-.22v-.07L58.68,67h-.07A.44.44,0,0,0,58.32,67.12Z"/><path class="cls-1" d="M149.26,30.2l.1.09a.14.14,0,0,0,.09.05s0,.05,0,.05a.23.23,0,0,0,.09.33s0,.05.1.05a.16.16,0,0,0,.14-.05c.06-.06.1-.11.1-.14l0,.1.1.19.1.05v-.05h0c-.09.29-.22.65-.38,1.1s-.32.93-.48,1.44a.14.14,0,0,0-.1,0v0l-.09.09h.05v.1h0l.05,0a3.53,3.53,0,0,0-.14.43c0,.13-.07.27-.1.43h-.24l0,0h-.05v.1h.05v.05h0a0,0,0,0,0,.05-.05h.14l-.14.57a1.61,1.61,0,0,0-.09.44h-.1v.14h0a9.59,9.59,0,0,0-.29,1.73,1.25,1.25,0,0,1,0,.38,3.6,3.6,0,0,0,.07.58.54.54,0,0,0,.36.43h.19a2.72,2.72,0,0,0,1.59-.86h.05v0a.09.09,0,0,1,.07,0l.07,0a.16.16,0,0,0,.14,0s0,0,0,0l.1-.1,0-.05a.93.93,0,0,0,.09-.24l0-.09v0l0-.05a13.76,13.76,0,0,0,2-2.88.26.26,0,0,0,.1-.19c.35-.61.72-1.33,1.1-2.16.16-.35.29-.66.39-.91a1.26,1.26,0,0,1,.24-.48v-.1a.2.2,0,0,0,0-.14c.07-.2.18-.29.34-.29a.93.93,0,0,1,.24.09,4.38,4.38,0,0,1,.62.87,4.33,4.33,0,0,1,.49,1.58.69.69,0,0,1-.05.29l-.29.77a5.93,5.93,0,0,1-.34.72l-.38.76c-.19.39-.52,1-1,1.71a20,20,0,0,1-1.66,2.26,12.13,12.13,0,0,1-2.21,2,4.77,4.77,0,0,1-2.64.94h-.43a1.79,1.79,0,0,1-.48,0,3,3,0,0,1-2.31-1.82,4.54,4.54,0,0,1-.23-1l0-.05v0s0,0,0-.05.05,0,.05,0a.19.19,0,0,0,.05-.1l0,0,0,0v0a.19.19,0,0,0,.05-.1l.05-.05a.11.11,0,0,1,0-.09v-.05l0,0v-.1s0,0,0,0a.14.14,0,0,1,.05-.1v0a0,0,0,0,1,0-.05v-.09l.05,0v-.14a.19.19,0,0,0,.05-.1v-.05s0,0,0,0,0,0,0,0v-.1a.14.14,0,0,0,0-.1v-.09a.21.21,0,0,0,.05-.15h.05a.08.08,0,0,0,.09-.09c.07-.07.07-.1,0-.1a.08.08,0,0,0-.09-.09,5.23,5.23,0,0,0,.09-.58V36l0,.14c0,.06,0,.1,0,.1v.14h-.05v.14a0,0,0,0,0-.05.05v0l0,.05v.09l0,.05v0a0,0,0,0,1-.05,0V37a.19.19,0,0,0-.05.1s0,0,0,0,0,0,0,0,0,0-.05,0v0s0,0,0,0v.05a.12.12,0,0,1,0,.09v.1h0v.05l-.05,0v.09h-.05v.05l0,0v.05s0,0,0,0V38h-.05v.1h-.05v0l0,.05v0l0,.05v0h-.05v.09h-.05v0l0,0q-2.11,3.45-5.23,3.55a1.48,1.48,0,0,1-.43-.05,3,3,0,0,1-2.88-2.3,6.89,6.89,0,0,1-.29-2.59,19.8,19.8,0,0,1,.24-2.21l.48-2.11a.3.3,0,0,1,0-.1.17.17,0,0,0,0-.1l0,0v.05h0l0,0h.19s.05,0,.05,0,.08,0,.14-.1v0a.33.33,0,0,0,0-.2v0l0,0a.16.16,0,0,0,0-.1l0-.05v0h-.05s0,0-.05,0l0,0h-.15c.07-.26.15-.51.24-.77a5.08,5.08,0,0,0,.24-.81h.1v-.05a.2.2,0,0,0,.14-.05v-.1c0-.06,0-.09-.1-.09h0c0-.16.06-.3.09-.41a3.09,3.09,0,0,1,.15-.41,3.83,3.83,0,0,1,.21-.65l.17-.36a.14.14,0,0,1,0-.09,1.8,1.8,0,0,1,.24-.43v-.1l.14-.14a1.8,1.8,0,0,1,.39-.29,2,2,0,0,1,.62-.24,5.63,5.63,0,0,0,.58,0l.62,0,.74,0c.25,0,.48,0,.7.08.39,0,.58.22.58.57l-.1.34-1,2.49-.81,2.31-.34,1.05h0l-.09,0V34H140a0,0,0,0,1,0,0v0l0,.05.09-.05h.05a5.09,5.09,0,0,0-.21.72c0,.23-.11.43-.17.63v0h-.05v.24a1.53,1.53,0,0,1,0,.43v0h-.14l-.1.1v.09a.16.16,0,0,0,0,.1s.05,0,.05,0h.14c-.09,1.08.16,1.79.77,2.11h0v.14h0v.1l.15.14s0,0,0,0,0,0,0,.05l.1.09a.29.29,0,0,0,.19.24h.19s0,0,0,0l.05-.1v0q0-.24.24-.33h.1v-.05h0v0a1.91,1.91,0,0,0,1.06-.58l0,.05a.18.18,0,0,0,.05.15v0h0v.05l.05,0,.1,0v-.14a.14.14,0,0,1,0-.1.09.09,0,0,1,0-.07.14.14,0,0,0,0-.07v0s0-.05-.05-.05l0,0a6.48,6.48,0,0,0,.93-1.32c.27-.49.51-1,.7-1.37a3.7,3.7,0,0,0,.17-.4c0-.15.1-.3.16-.46v0h0v-.14l.44-1.3v-.09l.19-.67q.24-.87.45-1.59t.36-1.2a4.9,4.9,0,0,1,.22-.65c.08-.17.13-.29.17-.36a.12.12,0,0,1,0-.09,3,3,0,0,1,.24-.43.14.14,0,0,1,.05-.1s0-.08.1-.14a2,2,0,0,1,1-.53,5.44,5.44,0,0,0,.57,0l.63,0,.74,0c.24,0,.49,0,.74.08a.51.51,0,0,1,.53.57,2.1,2.1,0,0,1-.09.34s-.05,0-.05.05v.14a4.6,4.6,0,0,0-.24.55l-.38.89-.05.05h-.05l0-.05h-.14a.22.22,0,0,0-.24.14.3.3,0,0,0,.09.39h.05l.05.05h0v0h.05l-.1.24a.49.49,0,0,1,0,.15s0,.08-.08.14v-.14a0,0,0,0,1,0-.05.16.16,0,0,0,0-.1s0,0-.1,0,0,0,0,0,0,0-.05,0l0,.05-.1-.14v-.15q.09,0,0-.09a.16.16,0,0,0-.05-.1h-.14l-.05.05h-.09a.19.19,0,0,1-.1,0ZM136.83,32c.06.07.11.1.14.1H137v0l0-.05a.14.14,0,0,0,.05-.09h0l0-.05h-.2a.08.08,0,0,0-.09.09Zm.43.58a.2.2,0,0,0-.14,0H137v.1c0,.12,0,.19.1.19a0,0,0,0,0,.05,0h0a.21.21,0,0,0,.15-.05v0A.14.14,0,0,0,137.26,32.55Zm.1,4.51a.2.2,0,0,1-.05-.14l-.1-.1-.09,0h-.05l-.1.1a.09.09,0,0,0,0,.07.14.14,0,0,1,0,.07s.08,0,.14.1a.11.11,0,0,1,.1,0h.1Zm0-3.22v-.09l-.1,0-.05,0a0,0,0,0,1,0,0v0l.2,0Zm.19-2.11h-.1a0,0,0,0,0-.05-.05v.05h0v.1l0,.05h.05l.05-.05Zm0,.72a.22.22,0,0,0,.24.15h0c.07-.07.1-.12.1-.15a.2.2,0,0,0,.05-.14c-.07-.1-.13-.15-.19-.15h-.1l-.05.05-.09.1Zm.24,2.83.09-.19s-.05,0-.07-.05,0,0-.07,0-.1,0-.1.05v.19l.1,0Zm0-4.6h.05l0,0H138a.11.11,0,0,1,.05-.09h0v-.05h0l-.05,0H138a.16.16,0,0,0,0,.1h-.05Zm.15,7.44h-.1s-.05,0-.05,0v.05a0,0,0,0,0,.05,0l0,.05s.05,0,.05-.1l.05-.05Zm.14-1s0,0,0,0,0,0,0,0H138a0,0,0,0,1-.05,0v.14a.14.14,0,0,0,.1,0A.26.26,0,0,0,138.17,37.16Zm0-2.79h0c-.12,0-.16.07-.09.19s0,.15.05.15h.09c.07,0,.1,0,.1-.1h0v0a.08.08,0,0,1,0-.07.08.08,0,0,0,0-.07v-.05l-.2,0Zm.39,1.2c-.07-.09-.13-.14-.19-.14h-.1v0s-.05,0-.05.14.11.1.15.1h.09a.19.19,0,0,0,0-.1h.05Zm-.15,4a.16.16,0,0,0-.14-.05l-.05.05v.09c0,.07,0,.1.1.1h.05s0,0,0,0,0,0,.05,0v-.14Zm.34-.15-.1,0v0h-.09v0a.18.18,0,0,0-.05.15h.05s0,.05.09.05h0l.05-.05Zm0-4.13s-.05,0-.05,0,0,0,.05,0v.05l.05,0h0v0l0-.05a.14.14,0,0,1,0-.1h-.09Zm.29,1.44c.06,0,.09,0,.09-.07a.18.18,0,0,1,.05-.07l-.05,0a.26.26,0,0,0-.09-.14h-.15s0,0,0,0,0,0,0,0l-.05,0v.15a.28.28,0,0,0,.19.09Zm-.29,1s0,0,.09,0,.1,0,.1-.09h-.05l0,0,0-.05v.05l-.05,0Zm.19.29-.05,0h0c-.06,0-.09,0-.09.1a.14.14,0,0,0,.09,0h0l.05,0L139,38Zm.19-3.89c.07,0,.1,0,.1,0h.05a.11.11,0,0,1,.09,0h0a0,0,0,0,0,.05,0h.05s0,0,0,0,0,0,0,0,0,0,0,0a.23.23,0,0,0,.05-.15.13.13,0,0,0-.14-.14h-.24v0a.14.14,0,0,1-.1-.05s0,0,0,0-.21,0-.24,0h-.05a.36.36,0,0,0-.09.24.29.29,0,0,0,.24.19Zm.05,4V38l-.1-.05,0,.05v.1l0,0,0,.05h.05Zm.29,1.15h-.1s0-.05,0-.05a.16.16,0,0,0-.05.14l.05,0h0l0,0v0Zm0-6.24h.05a.14.14,0,0,0,.09-.05l0,0,0,0h-.14l-.05,0v0Zm.1-2.83a.16.16,0,0,0,0,.14l0,.05a.27.27,0,0,0,.19.05h0s0,0,0-.05l.05-.05,0-.1s0,0,0,0v-.05h-.14v0h0a.16.16,0,0,1-.1,0S139.57,30.16,139.57,30.2Zm.47,8.44v0a.14.14,0,0,1-.09-.05h0a.14.14,0,0,1,0,.07.09.09,0,0,0,0,.07l.05.05h0l.05,0v-.1Zm.05-7.87c0,.07,0,.1,0,.1a.16.16,0,0,0,.1.05.08.08,0,0,1,.07,0,.08.08,0,0,0,.07,0c.07-.06.1-.11.1-.14a0,0,0,0,0,.05-.05l-.1-.14s-.05,0-.05-.1v-.05a.26.26,0,0,0-.09-.14h0l-.1.05v.09l0,.05h0v.15h0Zm4.37,6.67V37.3c0-.06-.05-.1-.14-.1l0,0-.05,0c-.06,0-.1.07-.1.2s.07.14.2.14h.05Zm.29-2.21h-.19l-.05.05v.1l.05,0h.05v0a.14.14,0,0,0,.09-.05v0Zm.38-1.15L145,34v0a.14.14,0,0,0-.05.09.19.19,0,0,1,.1,0h0l0,0Zm.1,1.73a.16.16,0,0,0,0,.1l-.05.05h.05s0,0,0,0,0,0,.05,0v0a0,0,0,0,0,.05-.05s0,0,0,0l0,0Zm.38-2v0h0a.12.12,0,0,0,0,.1l0,.09h0l0,0h.1Zm.68,1.54s0,0,0-.05a0,0,0,0,0-.05.05c-.07,0-.1,0-.1,0v.09l0,0H146s0,0,0,.1-.05,0-.05,0,.05,0,.05,0v.1h0l.05,0s0-.05,0-.05,0,0,0,0,.05,0,.05-.1v0h.05s0,0,0,0Zm0-3.7s0,.05,0,.05h.09v-.09h-.19Zm.24.1-.19.1v0h0c0,.07,0,.1,0,.1h.1l.05-.05h0Zm.09,4.32v-.05s0,0,0,0-.05,0-.05,0,0,0,0,0h-.1v0h0v0h0c0,.07,0,.1,0,.1h.1s0,0,.05,0Zm.15-3.6-.05,0a.2.2,0,0,0,0-.14h-.14c-.07.06-.1.11-.1.14a.23.23,0,0,0,.05.15s0,0,.1,0l.09,0s0,0,0,0,0,0,.05,0Zm-.1-1.49c-.09.1-.11.16-.05.19v.05c.07.07.11.1.15.1s0,0,0,0v0h.05s0,0,.05,0H147v-.24l-.09-.1C146.84,31,146.75,31,146.62,31Zm.1,6.34c.06,0,.09,0,.09-.05l.05,0-.05,0h.05s0,0,0,0,.16-.15.09-.24l-.14-.15h-.1l-.09,0a.11.11,0,0,0,0,.19.23.23,0,0,1,0,.15c-.06.06-.06.11,0,.14a.09.09,0,0,0,.1.1Zm-.1-4.37a0,0,0,0,1,0,.05h.09a.11.11,0,0,1,.1,0h0c.09,0,.14,0,.14-.1a.14.14,0,0,0,0-.1.27.27,0,0,0-.1-.19.23.23,0,0,0-.24.05h0s0,0,0,0,0,0,0,.05h0Zm.63,4.75c0-.09-.07-.17-.2-.24a0,0,0,0,0-.05,0h-.09l0,.05s0,0,0,0,0,0,0,0l.1,0v.05l.05,0h.19A.09.09,0,0,0,147.25,37.73Zm-.29-8.5a.13.13,0,0,0,0,.1,0,0,0,0,0,.05.05v.05h0c.13,0,.19,0,.19-.1v-.19l0-.05h-.1c-.13,0-.19,0-.19.1Zm.43,5,.05,0v0a0,0,0,0,0-.05-.05h-.14l-.05.05h.05v0h0a0,0,0,0,0,.05,0Zm.14-4c0-.07,0-.1-.14-.1h0l-.09.1a.3.3,0,0,0,0,.19l.1.09.05.05.05,0s0,.05,0,.05v.05l.05-.05v-.19a.32.32,0,0,0-.05-.2Zm.1,2.16,0,0v-.05a0,0,0,0,1-.05,0h0l-.05,0h-.05l0,.1,0,0,.1.05a.11.11,0,0,0,.09-.05h0ZM147.39,34l.05,0v.05l.05,0v0h0l.05-.05s0,0,0,0a.14.14,0,0,0,0-.1v0h-.05v0h-.09V34S147.39,34,147.39,34Zm.24.67a.12.12,0,0,0,0-.07.1.1,0,0,1,0-.08l-.05,0s0,0,0,0l-.05,0a.12.12,0,0,0,.05.1v.09h0s0,0,.05,0Zm.09-2.45c0,.1,0,.14.1.14s.14,0,.14-.09h0a.19.19,0,0,0,0-.08s0,0,0-.07,0,0,0,0v0l0,0-.05,0A.09.09,0,0,0,147.72,32.26Zm.39,1.39h-.05v0l-.05,0,0-.05v.05h-.09l-.05,0h.05v0a0,0,0,0,1,0,.05h.14ZM148,32.5v0h.05a0,0,0,0,0,.05.05v0h0l.05,0h0v-.05l0,0-.05,0h0l-.05,0Zm.24.86v-.09h0l-.05,0-.1.09.05.05v0s0,0,0,.05h.05v-.05h0l.05,0v-.1Zm.34-3.84.1.1.09.05a.2.2,0,0,0,.14-.05l.1-.14v-.29a0,0,0,0,0-.05-.05h-.09s0,.05,0,.05,0,0,0,0,0,.05-.05.05l-.05,0,0,.05h-.05l0,.05Zm.19.68.1-.1-.1-.1v0a.08.08,0,0,0-.09.09v.1a.12.12,0,0,0,0,.09Zm.24.91A.16.16,0,0,1,149,31a.2.2,0,0,0-.14,0h-.1l.05.05.05.05s0,0,0,0v.05a.11.11,0,0,0,.09-.05l.05,0Zm0,8c0,.06,0,.09.05.09v0a.14.14,0,0,0,.09.05h0l.1-.1q.09-.09,0-.09l-.1-.1h-.1a.14.14,0,0,0-.09.05Zm.09-6.77c0,.09,0,.14.1.14a.31.31,0,0,0,.15-.09l0-.1-.05,0v-.05Zm.29,7.25s0,0,0,0h0v.1l0,0h0c.07,0,.1,0,.1,0h.14s.08,0,.15.1l.14.14a.19.19,0,0,1,.1.05h0a.12.12,0,0,0,0-.1l.15-.19a.14.14,0,0,1,.09-.05c.13,0,.2,0,.2-.14a.28.28,0,0,0-.1-.19h-.1a.26.26,0,0,0-.14.09,0,0,0,0,1-.05.05h-.1a.19.19,0,0,1-.19-.1l-.05,0h-.09s0,0,0,0,0,0,0,0v.1a.2.2,0,0,0-.14,0h0l-.1,0Zm.82-1.11a0,0,0,0,1,0,0l.05,0h0v0c.07,0,.1,0,.1,0v-.09a.14.14,0,0,0,0-.1,0,0,0,0,0-.05.05h0l-.1.09Zm.48,0a.31.31,0,0,0,.09.15h0c.1,0,.15,0,.15-.1s0-.1,0-.1v0s0,0,0,0,0,0,0-.05l-.19.1Zm0,1.3s.05,0,.05,0v0l0,0h0a.19.19,0,0,0,.05-.1v-.05a.14.14,0,0,0-.1,0v0a.08.08,0,0,0-.09.09Zm.48-.82c-.16,0-.26,0-.29.15s0,.22.19.28h.05c.13,0,.19,0,.19-.14A.23.23,0,0,0,151.23,38.93Zm0-.29c-.06.07-.08.1-.05.1a.19.19,0,0,0,.05.1v0h.1s0,0,0,0,0,0,0-.05v-.1a0,0,0,0,0-.05,0v0h-.05S151.21,38.64,151.18,38.64Zm.34-1.1a.16.16,0,0,0,0,.14l.09.1h.1l.09-.1a.31.31,0,0,0-.14-.24A.19.19,0,0,0,151.52,37.54Z"/><path class="cls-1" d="M167.31,30h.05v.05s0,0,0,0,0,0,0,0h.1v0l-.05.05s-.05,0-.05.09a.23.23,0,0,0,.05.15.14.14,0,0,0,.05.09s0,0,0,0,0,0,0,0h.05a.23.23,0,0,0,.15,0s0-.09,0-.19a.11.11,0,0,1,.05.1.14.14,0,0,1,0,.09,0,0,0,0,0,.05,0c-.07.54-.16,1.1-.29,1.68a8.5,8.5,0,0,1-.43,1.34l-.24.63v-.1h-.29l-.05,0h0v0h0s0,0,.05,0h.14s.05,0,.05,0h.1c-.07.19-.12.37-.17.55a3.67,3.67,0,0,1-.17.5h-.09v.1h0v0c-.57,1.79-.68,2.85-.33,3.17a.6.6,0,0,0,.43.14,3,3,0,0,0,1.82-1.1v0c.07.07.12.1.15.1a.29.29,0,0,0,.12,0,.08.08,0,0,1,.07,0,0,0,0,0,1,.05,0s0,0,0,0,0,0,0,0l.09-.1c.07-.06.09-.11.08-.14a.28.28,0,0,1,0-.15l-.05,0v0h0v0a18,18,0,0,0,1.83-2.64l.09-.19c.36-.61.72-1.33,1.11-2.16.16-.35.29-.66.38-.91s.16-.42.19-.48h0v-.1a.08.08,0,0,1,0-.07.14.14,0,0,0,0-.07c.06-.2.16-.29.29-.29a.36.36,0,0,1,.24.09,3.45,3.45,0,0,1,.67.87,4.55,4.55,0,0,1,.48,1.58.69.69,0,0,1-.05.29c-.09.26-.19.51-.29.77a4.69,4.69,0,0,1-.33.72l-.39.76c-.22.42-.56,1-1,1.78a16.23,16.23,0,0,1-1.7,2.31,11.4,11.4,0,0,1-2.28,2,4.83,4.83,0,0,1-2.71.84,3.86,3.86,0,0,1-.68,0,5.85,5.85,0,0,1-1-.29,9.66,9.66,0,0,1-.86-.5,2.86,2.86,0,0,1-.82-.84c-.8-1.22-.81-3,0-5.33a.7.7,0,0,1,0-.19.85.85,0,0,0,.08-.24,1.38,1.38,0,0,1,.12-.39l.14-.28c0,.06,0,.09.1.09l0,0,.1,0V34a0,0,0,0,0-.05-.05,0,0,0,0,1,0,0h-.09a.81.81,0,0,1,.09-.29l.87-2q.48-.91.24-1.35c-.07-.12-.14-.2-.22-.21l-.17,0c-.67,0-1.48.74-2.44,2.31l-.05-.05H161a.14.14,0,0,1-.05.1v0l.1.05a11,11,0,0,0-.62,1.13l-.63,1.32h-.14V35s0,0,.05,0c-.29.61-.56,1.21-.8,1.8s-.45,1.15-.64,1.66-.36,1-.48,1.34l-.29.87.14.29a.43.43,0,0,1,.12.31.6.6,0,0,1-.17.45,1.84,1.84,0,0,1-.88.48,3.63,3.63,0,0,1-.8.1,3.44,3.44,0,0,1-.62-.05q-.24,0-.24-.09a2,2,0,0,1-1.3-1.25,6.46,6.46,0,0,1-.4-2.28,16.27,16.27,0,0,1,.21-2.86,27.88,27.88,0,0,1,.63-3l.19-.72.19-.68h.05v0h0v0l0,0v-.15l-.09-.05.57-1.87a4.9,4.9,0,0,1,.22-.65l.17-.36a.14.14,0,0,0,0-.09,1.8,1.8,0,0,1,.24-.43.13.13,0,0,1,0-.1s0-.08.1-.14a2,2,0,0,1,1-.53l.6,0,.65,0,.74,0c.24,0,.47,0,.7.08a.51.51,0,0,1,.53.57,2.94,2.94,0,0,1-.1.34l-1,2.49c-.13.32-.34.92-.65,1.78s-.57,1.68-.79,2.45l.05,0a2,2,0,0,1,.24-.46,3.33,3.33,0,0,0,.24-.46l.05,0,0,0v-.1c.22-.45.44-.86.67-1.25s.44-.75.67-1.1h.05v.05a0,0,0,0,1-.05,0v.09l.09.1h.05v-.05a.12.12,0,0,0,0-.19h-.05V31.3h.05a.14.14,0,0,0,0-.1v0h0v-.05c1.76-2.66,3.51-4,5.23-4.08h.1a2.79,2.79,0,0,1,2.16.77,3.19,3.19,0,0,1,.77,2.44H168v.05h0v.05h-.05a.2.2,0,0,0,0-.14s-.05,0-.05-.05a.12.12,0,0,1,.05-.1V30a.09.09,0,0,0-.1-.1h-.14s0,0,0,.05h-.1l0,.05ZM155,32.4c.07-.06.07-.12,0-.19a.14.14,0,0,1-.05-.09V32s0-.06,0-.07a.08.08,0,0,1,0-.07h0l-.05-.05h-.19l-.15.19v.24a.28.28,0,0,0,.1.29h.05a.14.14,0,0,0,.09.05h.1l.05-.05h0C154.94,32.48,155,32.44,155,32.4Zm-.05-.62s.05,0,.15,0l.09-.1.05-.05v0h-.09a.14.14,0,0,0-.1-.05H155a.14.14,0,0,0-.05.09Zm.29-1.87c-.13.06-.19.14-.19.24a.2.2,0,0,0,.14.05h.05l.1-.05a.16.16,0,0,0,.05-.1l-.1-.09Zm.15,2.59v-.1c0-.06-.07-.09-.2-.09h-.09v.09q0,.15.09.15h.15Zm0,4.42s0,0,0,0,0,0,0,0v0l0-.1s0,0,0,0,0,0,0,0a.16.16,0,0,0-.1-.05l-.05,0v0h0a.11.11,0,0,0-.05.1c0,.06,0,.09.05.09s.11.1.14.1a0,0,0,0,0,.05.05v0h.05Zm.1-3.36s0-.05-.1-.05,0,0,0,.05-.05,0-.05,0l.14.1.05-.05Zm.14-2.07h-.14s0,.05,0,.05,0,0,0,.05a0,0,0,0,0,.05.05h.05v0l.09-.09Zm.05.77c0,.1.07.14.19.14l.05,0s.08,0,.15-.1v-.19a.28.28,0,0,0-.2-.1h-.09c-.07,0-.1,0-.1.1A.12.12,0,0,0,155.69,32.26Zm.24,2.78v0l0-.1a0,0,0,0,0,0,0,.14.14,0,0,0-.09-.05s0,.05-.05.05a.29.29,0,0,0,0,.19h0l.09.1Zm.24,2.88H156a0,0,0,0,0,0,0V38l0,0h.1l0,0V38Zm-.09-7.44s0,0,0,0,0,0,0-.05h.05l-.05-.05H156l-.05.05v.09Zm.14,6.48a.14.14,0,0,0-.05-.09h0l0,0v.1L156,37v0s0,.05.05.05l0,0,0,0Zm0-2.78c-.1,0-.14.06-.14.19l0,.1,0,.05h.05s.08,0,.14-.1v-.05h0v-.19l0,0h-.14Zm.24,5.18s0,0-.1,0h0v0l0,0v.05c0,.06,0,.1.14.1h.05s0-.05,0-.05,0,0,0,0h.05v-.1Zm.19-4c-.09-.1-.16-.14-.19-.14s-.05,0-.05,0h-.09v.2a.26.26,0,0,0,.14.09h0a.26.26,0,0,0,.09-.14h.05Zm.15,4,0-.1h0s0,0,0,0,0,0,0-.05h-.05v0l-.1,0v.2a.16.16,0,0,0,.1,0h.05Zm0-4.13v0h0s0,0,.05,0v0s0,0,0,0,0,0,0-.05h-.09v.15Zm0,1.25c0,.06.07.09.2.09h0a.22.22,0,0,0,.15-.24.3.3,0,0,0-.19-.09h-.1l-.05,0a0,0,0,0,0,0,0Zm.15,1-.05,0-.05,0,0,0v.09a0,0,0,0,0,0,0h.05l.05,0Zm-.05.29a0,0,0,0,0-.05,0,.23.23,0,0,0,0,.15l.1.05H157v-.05h0v-.1Zm.05-4.27a.3.3,0,0,0-.1.24c0,.13.1.19.29.19s.15,0,.15-.09a.17.17,0,0,1,.19,0s0,0,.09,0h0c.06,0,.1,0,.1-.09s0,0,0-.1-.06-.09-.19-.09h-.05a.29.29,0,0,1-.19-.05l0,0s-.05,0-.05,0,0,0-.05,0S157,33.36,157,33.46Zm.29,4.37a.23.23,0,0,0-.15,0v0s0,0,0,.05l.1.09h0l.05,0Zm.24,1.25s-.05,0-.05,0h-.1l0,0v0s0,.05,0,.05,0,0,0,0h0a.14.14,0,0,0,.05-.1h.05Zm.19-2.88c.06-.07.08-.12,0-.15v0c0-.06-.07-.09-.2-.09h0l-.05.09s-.05,0-.05.1l.14.14h.05l0,0Zm-.24-3.41h.05a.14.14,0,0,0,.09.05l.1-.1v-.05h-.05a.14.14,0,0,0-.1,0,.16.16,0,0,0,0,.1h-.05Zm.14-2.79q-.09.11,0,.15t.24.09h.05s0,0,0,0a.15.15,0,0,1,0-.08.08.08,0,0,0,0-.07V30h-.1l-.05-.05h-.09Zm.29,5.52s0,0,0-.09a.16.16,0,0,1,0-.1l-.05,0,0-.05h0v.05h0v0a.12.12,0,0,0,0,.1v.09s0,0,0,0h0Zm.39,2.31a.13.13,0,0,0-.15-.15H158a.14.14,0,0,0-.05.1v.1c0,.06.06.09.19.09h.05l.05,0,0,0Zm-.2.57s0,0-.09,0-.05,0-.05,0v.1H158s0,0,0,0h.05Zm.15-8.06a.19.19,0,0,1-.05.1c-.07.12-.05.2.05.24s.09,0,.19,0h0a.08.08,0,0,0,.09-.09v-.1a.11.11,0,0,0,0-.09.16.16,0,0,1-.09-.15.2.2,0,0,0-.05-.14h-.14a.11.11,0,0,0-.05.09v.1Zm.19,4.46s0,0,0,0h-.05s0,0,0,0l0,.14h0l0,0v0S158.43,34.84,158.43,34.8Zm.53,1s0-.05,0-.05,0,0,0,0h0s0,0-.1,0-.05,0-.05,0h-.05v.09l.1,0,0,0H159Zm.09-2.83h0l.05,0v-.09l-.1-.05-.05,0s0,0,0,0v.09Zm.24,1.34v-.09s0,0-.09,0a0,0,0,0,0,0,0l-.05,0v.09a.14.14,0,0,0,.05.1h.1Zm.05-.43h-.14l0,0V34s0,0,0,0l.09,0,.05-.09,0-.05Zm.19-.53-.09-.09h-.05v-.05l0,.05v0a.14.14,0,0,1-.05.09l.1.1h.05l0,0A.19.19,0,0,1,159.53,33.36Zm.1-.24h-.15s0,0,0,0,0,0-.05,0v0a0,0,0,0,1,.05.05h.09l.05-.05v0Zm2.93,4-.05,0c-.07-.06-.11-.1-.15-.1h0a.3.3,0,0,0-.15.24.19.19,0,0,0,.19.15h0l.1-.1A.2.2,0,0,0,162.56,37.11ZM162.8,35h-.1v0h-.1a.2.2,0,0,0,0,.14.14.14,0,0,0,.09,0h0l.05,0s0,0,.05,0Zm-.05-1.1a.14.14,0,0,0-.05.1.21.21,0,0,1,.05-.15Zm.48,0v0l-.19-.09v.19h0a0,0,0,0,0,0,.05s.05,0,.05-.1Zm.14,1.87,0,0,.05,0v-.05h-.19l-.05.05v.09Zm.34,1a.3.3,0,0,0-.19-.09l-.05,0a.09.09,0,0,0-.1.1v.1c.07.06.11.09.15.09h0l.15-.09Zm0-7.05a.12.12,0,0,0-.1,0h-.09l-.05,0s0,0,.05,0l0,0h.05l0,0h.05Zm.09,4.08-.09-.15h-.05l0,.05-.05,0c0,.09,0,.14.1.14l.05,0h.09Zm.29-5a.31.31,0,0,0,.15-.09.28.28,0,0,0-.1-.19H164c-.09,0-.14,0-.14.09v.1l.1.09Zm.2,6.53a.11.11,0,0,0,.09,0c0-.06,0-.09,0-.09v0h-.09a0,0,0,0,1-.05,0l-.05,0,.05.1v.05h-.1a.14.14,0,0,0-.05.1v.19h.05a0,0,0,0,1,0-.05l.1-.1v-.14A0,0,0,0,0,164.29,35.33Zm0-3.89,0,0a0,0,0,0,0,0,.05h.1v-.05a0,0,0,0,0,0,0s0,0-.05,0h-.14Zm.28.15-.24.09h0v.05l.1.1a.14.14,0,0,0,.09,0h.05Zm0,4.22a.14.14,0,0,0-.09-.05s0,0,0,0a0,0,0,0,0-.05.05v0l.05,0V36h0l0-.05h.15Zm-.14-3.55a.12.12,0,0,0,0,.07.09.09,0,0,1,0,.07s0,0,0,0,0,0,0,0l.07,0a.1.1,0,0,1,.08,0s0,0,0,0h.05v0s-.05,0-.05-.1l0-.09h-.1a.28.28,0,0,0-.19.09Zm.24-1.44a.29.29,0,0,0,0,.19,0,0,0,0,1,0,0v.05a.11.11,0,0,1,.09.05s.05,0,.05,0,0,0,.05,0h.1c.06,0,.09,0,.09,0a0,0,0,0,0,0-.05v-.05a.14.14,0,0,1,0-.1v0s0-.05,0-.05,0,0,0-.05c-.16-.06-.25-.06-.28,0Zm.05,1.78a.09.09,0,0,1,0,.07.12.12,0,0,0,0,.07l.09.1H165a.16.16,0,0,0,.15-.1c.06-.1,0-.18-.1-.24a.12.12,0,0,0-.19,0l-.05,0A.14.14,0,0,1,164.72,32.6Zm.09,4.56.1,0v0H165l-.05-.05.09-.09a.2.2,0,0,0,.1-.2.28.28,0,0,1-.07-.09.32.32,0,0,0-.12-.1s0,0,0,0,0,0-.05,0a0,0,0,0,0-.05.05.2.2,0,0,0,0,.14s0,0,0,0,0,0,0,0h0V37s-.05,0-.05.15,0,0,.05,0h.09Zm.48.38c0-.1,0-.18-.14-.24h-.1l-.05.05s0,0,0,0,0,0-.05,0v0a.11.11,0,0,0,.05.1l0,.05.05,0h.2ZM165.05,29c-.06.06-.06.11,0,.14l.1.09h0c.06,0,.12,0,.19-.14a.2.2,0,0,0,0-.14l-.09-.1h-.05A.13.13,0,0,0,165.05,29Zm.53,1c0-.13-.05-.15-.14-.05h-.05a.14.14,0,0,0,0,.09h-.05a.1.1,0,0,0,0,.08.12.12,0,0,1,0,.07h0a.19.19,0,0,0,.14.14.16.16,0,0,0,.05.1v.05h0v-.05l.05-.05a.19.19,0,0,0-.05-.1A.67.67,0,0,0,165.58,30Zm.1,3.88s0,0,0,0l0,0-.05,0a0,0,0,0,0,0,0,.14.14,0,0,0-.1,0v.09s.05,0,.05,0h-.05a.16.16,0,0,0,0-.1l-.05,0h-.1v0a0,0,0,0,1,.05.05l0,0a.14.14,0,0,0,.09,0h.05l.05-.05,0,0Zm0-1.72-.1-.1h-.1l0,0v.09l.09.1a.16.16,0,0,0,.1,0s.05,0,.05-.05Zm-.05,2.44a.12.12,0,0,1,.09,0v-.05s0,0,0-.1-.05,0-.05,0h0v0c-.06,0-.1,0-.1.05s0,0,0,0,0,0,0,.05l.05,0Zm.19-2.44a.14.14,0,0,0,.05.09h0a.26.26,0,0,0,.14-.09A.21.21,0,0,0,166,32l0-.09s0,0,0,0h0l-.1.1C165.77,32.08,165.79,32.12,165.82,32.12Zm.29,1.39,0,0a0,0,0,0,0,0-.05.14.14,0,0,0-.05-.09l-.05,0h-.09v0s0,0,0,.05l0,0Zm0-1.2s0,0,0,0,0,0,.05,0h.09v-.09l-.05-.05h-.09Zm.24,1v-.15l0,0h-.05l0,0s-.05,0-.05.05v0l.05.1,0,0v0h.1Zm.29-4s0,0,0,.05a.14.14,0,0,0,0,.1c.07.06.11.1.15.1a.14.14,0,0,0,.09-.05c.07-.07.1-.11.1-.15a.16.16,0,0,1,.05-.14V29H167s-.05,0-.05.09,0,.05-.09.05a.16.16,0,0,1-.1.05v.05h-.09Zm.19.82s0-.05,0-.05a.12.12,0,0,0,0-.09v-.05l0-.1h0l-.05,0a0,0,0,0,0-.05.05v.05l.05.05v.09Zm.29.91v0h-.05a.14.14,0,0,0,0-.1h-.1l0,.05h0v.05s0,0,0,0,0,0,0,.05h.15V31Zm.19,8.07a.15.15,0,0,0,.14-.1v0a.08.08,0,0,0-.09-.09h-.1a.15.15,0,0,0-.14.09l0,.1V39Zm-.15-5.86a.16.16,0,0,0,.05.1v0l.15-.1h-.05v0l-.05-.05a0,0,0,0,0,0,.05Zm.15-1.15a.14.14,0,0,0-.05.1.2.2,0,0,0,.05.14h.05s0,0,0,0l0-.05a.11.11,0,0,0,0-.09v0l0-.05V32Zm1.34,7.3c0-.1,0-.15-.05-.15s0-.05,0-.05h-.15s0,.05,0,.05,0,0,0,0l0,.05h-.1a.2.2,0,0,1-.14-.05l-.1,0a0,0,0,0,0,0-.05h-.05s0,0,0,.1-.05,0-.05.05a.16.16,0,0,0-.1-.05l-.07,0a.09.09,0,0,1-.07,0v0s-.05,0-.05,0h-.05a.11.11,0,0,1,0,.1v0h.34a.28.28,0,0,1,.19.09c.07.07.11.1.15.1l.09.1h.05c0-.07,0-.1.05-.1l.14-.24.1-.05h.05a.11.11,0,0,0,.09,0Zm-.29-1.16a.21.21,0,0,0,0,.15l.05,0s0,0,0,0h.05v-.05h0a.2.2,0,0,0,0-.14V38l-.05,0,0,0A.16.16,0,0,0,168.36,38.16Zm.44,0c0,.13,0,.21.14.24H169c.06,0,.09,0,.09-.14v0l0-.09v0h0Zm.14,1.4a.19.19,0,0,0,.1-.05s0-.08-.1-.15-.08,0-.14.1l0,.1v0h0S168.94,39.59,168.94,39.56Zm.53-.58c0-.1,0-.18-.14-.24s-.28,0-.34.14v0c.06.13.13.19.19.19l0,.05C169.33,39.17,169.4,39.11,169.47,39Zm-.29-.48a.08.08,0,0,0,0,.07.14.14,0,0,1,0,.07l.05,0s.05,0,.05,0h0l0,0c0-.07,0-.1,0-.1v-.1h0s-.05,0-.05.05Zm.72-1c.06-.16,0-.24-.1-.24s-.19,0-.19.1v.14a.16.16,0,0,0,.1,0h.14Z"/><path class="cls-1" d="M170,35.38l0-.05a0,0,0,0,0-.05,0h-.1l.15-.43c.09-.25.19-.5.28-.74s.21-.49.34-.75v0h.1l.09-.09h.05l-.05,0v-.1l-.05-.05v0a11.75,11.75,0,0,1,4-4.85,7.61,7.61,0,0,1,2.23-1,7.88,7.88,0,0,1,1.51-.21,5.2,5.2,0,0,1,1,.09,2.3,2.3,0,0,1,1.63,1.15,4.16,4.16,0,0,1,.48,1.49l.05,0v0l.77-1.24.05-.1s0,0,0,0,0,0,0,0A1.37,1.37,0,0,1,183,28a2.67,2.67,0,0,1,.56-.15,4.84,4.84,0,0,1,.69,0h.31a1.47,1.47,0,0,1,.36,0v.1h0V28a.2.2,0,0,1,0,.14.27.27,0,0,0-.05.19v.05l.05,0a.26.26,0,0,0,.14.09s.11.05.24.05a.08.08,0,0,1,.07,0,.15.15,0,0,0,.08,0,.14.14,0,0,1,.09.05l.05.05s.05,0,.05,0v.05h.09c.1,0,.12,0,.05-.09v-.1s0-.05-.05-.05v-.09a.22.22,0,0,1,0-.15h0a.26.26,0,0,0-.1-.19.2.2,0,0,0-.14-.05h-.05l-.1-.09.05-.05v0l-.05-.05c.29.1.61.23,1,.38,0,0,.08,0,.15.1s.06.16,0,.29v.05c-.26.54-.59,1.32-1,2.33s-.82,2-1.2,3.09A24.4,24.4,0,0,0,183.2,37c-.2.85-.18,1.38,0,1.61a.83.83,0,0,0,.48.14,2.92,2.92,0,0,0,1.85-1.13,17.67,17.67,0,0,0,2.28-3.14.28.28,0,0,1,.1-.2v0l.57-1c.07-.19.15-.38.24-.58s.2-.38.29-.57l0-.1a13.83,13.83,0,0,0,.53-1.29l.05-.05c0-.07,0-.11,0-.12a.08.08,0,0,0,0-.07c.07-.16.16-.24.29-.24a.32.32,0,0,1,.24.09,2.43,2.43,0,0,1,.67.82,4.27,4.27,0,0,1,.48,1.63.55.55,0,0,1,0,.24c-.1.26-.2.51-.29.77s-.21.51-.34.77l-.38.71c-.23.42-.57,1-1,1.78a17.14,17.14,0,0,1-1.71,2.31,11.4,11.4,0,0,1-2.28,2,4.83,4.83,0,0,1-2.71.84,3.73,3.73,0,0,1-.67,0,4.75,4.75,0,0,1-1.11-.34,5.19,5.19,0,0,1-1-.62,3.07,3.07,0,0,1-.81-1.06l.05,0,0,0a0,0,0,0,1,.05-.05v0l0,0s0,0,.05,0v0l.05,0v-.05s0,0,0,0v0s0,0,0-.05l.05,0v-.05l.05,0v0l0,0v-.05l0,0v-.09h.05v0a0,0,0,0,1,.05-.05v-.1h0v-.09l.05,0v-.1h0V38.5h.05v-.14h0v-.2H180V38l-.05.1-.72,1a6.75,6.75,0,0,1-.43.55,5.84,5.84,0,0,1-4.75,2.55l-.22,0a1.1,1.1,0,0,0-.26,0,6.08,6.08,0,0,1-1.95-.46,3.52,3.52,0,0,1-1.25-.89,4,4,0,0,1-.69-1.12,4.07,4.07,0,0,1-.29-1.18,1.79,1.79,0,0,1,0-.48,6.78,6.78,0,0,1,.15-1.42,12.73,12.73,0,0,1,.33-1.32v.15s.05,0,.05,0h0v0a0,0,0,0,0,.05,0Zm.72-.1v-.05h0v.05a.14.14,0,0,0-.1,0,.07.07,0,0,0,0,.1v0l0,0h.05s0,0,0,0l.05,0v-.15Zm.44-1.44h0v0c-.07,0-.1,0-.1,0H171s0,0,.05,0V34l0,0h.05s0-.05,0-.05,0,0,0,0Zm.52,2.26h0v-.05h-.05a0,0,0,0,0,0,0h-.1v0h0l0,.05.05,0h.15Zm-.09-3.26v0c0,.1.06.18.19.24l.05,0a.14.14,0,0,0,.09,0V33Zm.81,1.77,0,0v0s0-.05-.05-.05h0l-.1.05h0v.09l.09.1c.07,0,.1,0,.1-.05h.14Zm1.4-.81c0,.06,0,.09,0,.09v0l.1.1H174q.24,0,.24-.15v-.14c-.07-.07-.11-.1-.15-.1h0a.3.3,0,0,0-.2.05A.16.16,0,0,1,173.84,33.8Zm6.14-.92a6.59,6.59,0,0,0,.12-.74,4.5,4.5,0,0,0,0-.46,1.72,1.72,0,0,0-.09-.52,1.23,1.23,0,0,0-.72-1l-.29-.1h-.24q-1.92,0-3.84,3.65a9.14,9.14,0,0,0-1.06,2.88,2.92,2.92,0,0,0,.15,1.49.6.6,0,0,0,.26.33,2.43,2.43,0,0,1,.27.19l.14.1h.05a.2.2,0,0,0,.14,0h.05l.19,0,.19,0a2.45,2.45,0,0,0,1.42-.46,5.7,5.7,0,0,0,1.18-1.13,9,9,0,0,0,.91-1.44c.25-.51.48-1,.67-1.39v-.1a.46.46,0,0,0,.12-.24.85.85,0,0,1,.12-.28v0a.36.36,0,0,1,0-.1.16.16,0,0,0,0-.09.93.93,0,0,0,.09-.24.49.49,0,0,0,.05-.2.09.09,0,0,1,0-.07.12.12,0,0,0,0-.07Zm-5.66,1.64a.14.14,0,0,1,0-.1h-.15s0,0,0,0,0,0-.05,0,0,.05,0,.05,0,0,0,0v0s0,0,0,0h0s.05,0,.05,0,0,0,.05,0l0,0Zm6.91-2.21.05-.05s0,0,0,0V32h-.09l0-.05h-.05s0,.05,0,.05l0,0h0l-.05,0a.2.2,0,0,0-.05.14l.05.05a0,0,0,0,0,.05,0h.14A.16.16,0,0,0,181.23,32.31Zm.05-1.15h0c.13,0,.2,0,.2-.1h0c0-.1,0-.16,0-.19l-.24.24Zm.19,1.82v-.1h-.15V33h.2Zm.38.43a.38.38,0,0,0,0-.24l0-.05s0,0-.1,0-.14,0-.14.09a.22.22,0,0,0,0,.15v.09h.05a.16.16,0,0,1,.1.05h.09ZM182,32h0a0,0,0,0,0-.05,0l0,0c-.07.07-.07.1,0,.1a0,0,0,0,0,0,0H182Zm.82,1.83v-.1l-.05-.05h-.09a.12.12,0,0,0-.05.1s0,0,.05,0Zm-.1.38v0s.05,0,.05,0v.15H183a.21.21,0,0,0,0-.15v-.09Zm.29-4.95a.25.25,0,0,0-.05.15v.05s0,.05,0,.05,0,0,0,0l.1.05h0c.06,0,.09,0,.09-.05h.05a.23.23,0,0,0,0-.24v-.05l0,0a.14.14,0,0,0-.1-.05A.3.3,0,0,0,183.05,29.23Zm0,2.17a.19.19,0,0,0,.1,0,.14.14,0,0,1,0-.1v-.14l0,.05H183v.24Zm.05,1.72a0,0,0,0,1,0,.05l0-.09v0l0-.1H183l.05,0v.14Zm.57-3.45h.2s0,0,0-.05v-.19h-.19v.14l-.05.05Zm.29-1a.16.16,0,0,0,.05.19l.05.05h.14v-.1c0-.09,0-.16-.05-.19l0-.05a.14.14,0,0,0-.1.05Zm.05,3.79v.19h.05v0h.09V32.5Zm.53-3,0,0s0,0,0,0,0,0,0,0,.05,0,.05-.05h.14v0c.07-.07.1-.12.1-.15a.19.19,0,0,0-.05-.1s-.05,0-.05,0h-.14s-.05,0-.05,0,0,0,0,0,0,.05,0,.05,0,0,0,0a.12.12,0,0,0,0,.1Z"/><path class="cls-1" d="M136.81,23.87h-.07l-.07.07h-.15v.15h-.07V24l-.14-.07h-.07a.26.26,0,0,0-.15.07H136l-.14.15c0,.19,0,.31.14.36a.59.59,0,0,0,.14.18c.05,0,.08.08.08.18V25l.07.07V25l.07-.14h.14v.07c-.52,1.25-1.1,2.61-1.72,4.1s-1.32,3-2.09,4.57-1.59,3.12-2.45,4.68a45,45,0,0,1-2.74,4.36c-.81,1.1-1.6,2.11-2.37,3l-.07.08.79-.08q4.32-.06,8.82-.18l8.82-.21c2.88-.07,5.64-.14,8.28-.18l7.27-.15h.07V45c.05,0,.08,0,.08,0s0,0,.07,0h.64A.07.07,0,0,1,160,45V45l.07.07h.21v-.22h-.07c.77,0,1.48-.07,2.13-.07h1.83V45h.15a.06.06,0,0,0,.07.07h.14c.05,0,.12,0,.22-.14s.07,0,.07-.08v-.07c.05,0,.07,0,.07-.07h2.81a1.34,1.34,0,0,1,.65.29,1.29,1.29,0,0,1,.14.86c-.09.38-.19.76-.28,1.12s-.2.73-.29,1.11q-.36,1-.69,1.77a8.29,8.29,0,0,1-.54,1.11c-.09.19-.19.29-.28.29s-.17.05-.22,0h-.29v-.07h-.07v-.07a.6.6,0,0,1-.22-.36s0-.12.15-.22v-.22c.09-.14,0-.26-.15-.35h-.07s-.07-.08-.21-.08h-.08a.21.21,0,0,1-.14.08l-.15.14-.28.21-.08.08-.25.25a.44.44,0,0,0-.1.32v.07l.07.08v.14h-.72v-.07h.07v-.29h-.07s0-.07-.08-.07h-.07a.46.46,0,0,0-.29.14v.15l.15.14h-8.53c-3.44,0-7.14,0-11.13,0l-12.35.07-12.13,0-10.87.08V51.3s-.07,0-.07-.07a.06.06,0,0,0-.07-.07h-.08c-.14,0-.21,0-.21.14a.22.22,0,0,1-.22.14h-.07c0,.05,0,.08-.07.08h-2.59a.07.07,0,0,1-.08-.08v-.07h-.07l-.07-.07h-.21l-.22.22H103c-.43,0-.82,0-1.18,0s-.71,0-1,0v-.22l.22-.29s.07,0,.07,0,0,0,.07,0v-.14L101,50.8h-.15a.33.33,0,0,0,.08-.44v-.07l-.15-.14h-.07s-.07,0-.07.07v.22c-.1.24-.17.36-.22.36a.06.06,0,0,1-.07.07l-.14.14a.07.07,0,0,0-.08.07l-.07.08v.07l.15.07c0,.05,0,.07,0,.07s0,0,0,.07h.07c0,.05,0,.08,0,.08s0,0,0,.07H98.87a9.47,9.47,0,0,0-1.08.07l-1.41.18a10.4,10.4,0,0,0-1.47.32.22.22,0,0,0-.15.08.28.28,0,0,0-.21.07,3.89,3.89,0,0,0-1.23.58l-.14.14-.36.32a.94.94,0,0,0-.29.54V54l.07.14v.14a.07.07,0,0,1,.08.08l.07.07q.14.15.36.36a1.82,1.82,0,0,0,.79.36,6.54,6.54,0,0,0,1.8.21h.22a3.33,3.33,0,0,0,.79-.07,1.76,1.76,0,0,0,.57-.07h.29c.82-.14,1.87-.38,3.17-.72A35.6,35.6,0,0,0,105,53.1l.43-.21,1.8-.8v.07h.07c0,.05,0,.08.15.08h.14v-.08h.14v-.07h.08V52h.07v-.14H109a7,7,0,0,1,1,.07H110l1.73.14c.52,0,1,.12,1.58.22h.07a15,15,0,0,1,1.77.36,7.41,7.41,0,0,1,1.54.57l-1.58,1h-.07l-.07-.07h-.22s-.12,0-.21.14l-.36.29-.08.08h-.07v.07H114a.07.07,0,0,1-.07.07v.07h-.08V55l-.64.36v-.07l-.08-.07v-.07h-.21a.22.22,0,0,0-.22.14c-.09.1-.07.19.07.29l-1.36.65v-.08h-.07q0-.13-.15,0h-.07c0,.05,0,.08.07.08v.07c-.38.14-.74.29-1.08.43a7.2,7.2,0,0,1-1.08.36h-.29V57h-.21v.07h-.08v.22a32.77,32.77,0,0,1-9.93,1.51h-.43c-.24,0-.82,0-1.73-.11a15.69,15.69,0,0,1-2.95-.54q-4.19-1.23-4.18-4a5.34,5.34,0,0,1,2.45-4.54q2.44-1.73,7.77-2.66l.65-.14q.51-.08,1.44-.15c.63,0,1.42-.1,2.38-.14,1.39-.1,3.12-.2,5.18-.29s4.47-.19,7.2-.29q3.67-2.73,7.63-9.43a66,66,0,0,0,4.68-8.68q2-4.5,3.24-7.95l.51-1.23c.43-1.24.87-2.53,1.33-3.85s.9-2.67,1.33-4.07h.15a.27.27,0,0,0,.21-.07h.07v-.29l-.14-.07h-.14L136,7.52h.07l.07-.07h.29a.34.34,0,0,1,.22-.07l.14.07c.05,0,.12,0,.22-.14V7.09a.34.34,0,0,0-.22-.07L136.74,7h-.58c.15-.38.28-.78.4-1.19s.23-.8.32-1.19H137V4.5H137s0-.07.07-.07.15-.17.15-.22V4h-.08V3.92h-.07V3.78h.07v.07h.15l.07-.07h.07l.07-.14V3.42h-.28a1.09,1.09,0,0,1,.14-.5h.14l.07-.08V2.63s0-.07-.07-.07h-.07l.36-1.44a2.8,2.8,0,0,0,.33-.47,1,1,0,0,1,.61-.47h.65V.32h.28V.18h.07V.11h.51a6.39,6.39,0,0,1,1.87.29,1.73,1.73,0,0,1,1.22,1.15,1.51,1.51,0,0,0,0,.22.69.69,0,0,1,0,.36c-.09.38-.27,1.12-.53,2.23s-.62,2.45-1.05,4h-.07l-.14-.07h-.15a.22.22,0,0,0-.21.14.16.16,0,0,1,0,.11s0,.08,0,.18h.14c0,.05.05.07.14.07h.08v.29L141.49,9h-.21V9.4h.21a12.79,12.79,0,0,0-.5,1.87c-.05,0-.07,0-.07-.07h-.22v.07l-.07.07v.22h.14v.07h.07l-1,3.46h-.15c0-.05,0-.08-.07-.08h-.14a.07.07,0,0,1-.07.08l-.08.07v.07c-.05,0-.07,0-.07.07v.07c0,.05,0,.07.07.07v.08a.29.29,0,0,0,.22.07h.14c-.24.82-.5,1.62-.79,2.41s-.55,1.6-.79,2.41v-.07H138v-.07h-.07l-.07.07h-.07c0,.05,0,.07,0,.07s0,0,0,.07a.29.29,0,0,0,.07.22H138l-.08.07h-.07l-.21.22c0,.05,0,.07-.08.07a.21.21,0,0,1-.14-.07c-.05,0-.07,0-.07.07a.22.22,0,0,0-.14.22v.14a.25.25,0,0,0,.21.07h.07c.05,0,.07,0,.07-.07l.08-.07h.14l-.72,1.94a1.53,1.53,0,0,0-.11.36.57.57,0,0,1-.18.36v.08a.36.36,0,0,1,0,.18.12.12,0,0,0,0,.1h-.07s0-.07,0-.07,0,0,0-.07-.08,0-.08-.07h.15c0-.05,0-.07.07-.07v-.15Zm-35,26.21c0-.1,0-.15-.07-.15a.09.09,0,0,0-.15,0h-.14v.22c0,.09,0,.14.07.14v.07h.15l.07-.07.07-.07Zm1.22-.72-.07.07h-.07l-.07.07v.22h.07a.06.06,0,0,0,.07-.07H103Zm.29,4.75-.07-.14h-.14c-.15,0-.22,0-.22.14v.07h-.07a.24.24,0,0,0,.14.22l.07.07h.15l.14-.15Zm.29-3v.07h-.07l-.07.07v.14h.28Zm1.08-3.82a.29.29,0,0,1-.07-.22.26.26,0,0,0-.14-.07s-.08,0-.08,0,0,0-.07,0v.08h-.14a.34.34,0,0,1,0,.18.15.15,0,0,0,0,.1c0,.05,0,.08,0,.08s0,0,0,.07h.14a.48.48,0,0,0,.36-.15Zm1.15,0c0-.14,0-.22-.07-.22a.06.06,0,0,0-.07-.07l-.07-.07h-.07a.21.21,0,0,1-.15.07s0-.07,0-.07,0,0,0-.07a.12.12,0,0,1-.11,0,.16.16,0,0,0-.11,0h-.07l-.07.07v.14c0,.05,0,.07.07.07v.08l.07.07V47.2l.08.07.07.07v.07a.22.22,0,0,0,.21.15h.15l.07-.08.14-.07Zm-.36,6.27v.21l.29-.14h-.07v-.07a.07.07,0,0,0-.07-.08C105.54,53.53,105.49,53.56,105.49,53.61Zm1.37-6.41.07-.08H107l.15-.14v-.14l-.07-.07a.07.07,0,0,1-.08.07.21.21,0,0,0-.14.07Zm.29,3.09H107a.07.07,0,0,0-.07.07h-.07v.08l.07.07v.07H107l.08-.07h.07Zm-.15,3.1q-.14.21.15.36s0,.07.14.07h.07c.15-.1.17-.19.08-.29v-.14s0-.07,0-.07,0,0,0-.08l-.07-.07Zm.44,1a.07.07,0,0,1-.08.07c0,.05,0,.07-.07.07v.07l.07.08v.07s.08,0,.08,0,0,0,.07,0l.21-.07-.07-.07a.29.29,0,0,0-.07-.22V54.4Zm.64-7.56c0-.1,0-.15-.07-.15h-.21v-.21a.07.07,0,0,1-.08-.08h-.36l.08.08v.07a.26.26,0,0,1,.07.14h.07l.07.08h.07s.08,0,.08.07,0,.07,0,.07,0,0,0,.07H108l.07-.07Zm.29,7.48a.26.26,0,0,0-.07.15l.07.07a.06.06,0,0,0,.07.07h.29s0-.07,0-.07,0,0,0-.07v-.15l-.07-.07s0-.07-.14-.07h-.15v.07A.07.07,0,0,0,108.37,54.32Zm.51-5.32s0-.07,0-.07,0,0,0-.08a.23.23,0,0,0-.14.08h-.14V49l.07.07s0,.07.07.07h.22Zm-.22,1.73-.07.07v.43c0,.05,0,.07.07.07h.07c0-.1,0-.14.07-.14v-.43Zm0,3v.07h.22v-.07l-.08-.07s0-.07-.07-.07h-.07l-.07.14Zm1.15-4.47v-.07s-.07,0-.07-.07v-.07h-.22s0-.07.08-.07v-.29l-.08.07h-.07l-.07.07V49h.07v.14l.07.07v.07a.07.07,0,0,0,.08.08h.14v-.08Zm-.07,7.13c0,.05,0,.07.07.07s0,.15.07.15H110a.26.26,0,0,0,.14-.07.16.16,0,0,0,0-.11.14.14,0,0,1,0-.11h-.29Zm.07-3.45.22.21h.07v.07h.07l.08-.07a.06.06,0,0,0,.07-.07V53s-.07,0-.07,0,0,0-.08,0,0-.07-.07-.07h-.29Zm.29-2.81s0-.07.07-.07h.08V50l-.08-.08v-.14l-.07.07H110l-.07.07v.22Zm.36,4.82a.19.19,0,0,0,.07-.14s0-.12-.14-.22h-.14a.4.4,0,0,0-.29.15v.29l.14.14h.07C110.36,55.19,110.46,55.12,110.46,55Zm-.29-8.35.29-.14s0-.08-.07-.08v-.14h-.14s-.08,0-.08.07Zm.36,3.82s0-.08-.07-.08v-.07s0-.07-.07-.07h-.14l-.08.07v.07c0,.1,0,.15.08.15h.21Zm0,3.24s-.12,0-.21.14-.1.17,0,.22,0,.14.07.14h.14a.29.29,0,0,0,.22-.07V54a.24.24,0,0,0-.07-.29c-.05,0-.08,0-.08,0S110.58,53.68,110.53,53.68Zm1.3-5a.34.34,0,0,0-.07-.22v-.07l-.08-.14-.14-.08h-.14v.08l-.07.07c0,.09,0,.14-.08.14v.29l.08.07a.26.26,0,0,0,.21.08.29.29,0,0,0,.22-.08c0-.05,0-.07,0-.07S111.83,48.76,111.83,48.71Zm-.43,3.67.07.07h.21l.08-.07v-.14a.07.07,0,0,1-.08-.08h-.14l-.14.08Zm.36-1.94-.08-.08v.08h-.07l-.07.07c-.05,0-.07,0-.07.07a.06.06,0,0,1,.07.07v.08h.07a.22.22,0,0,0,.15-.08Zm.57-.15v-.07s0-.07-.07-.07a.17.17,0,0,0-.07-.14.16.16,0,0,0-.11,0,.12.12,0,0,1-.11,0l-.07.07v.14l.07.07v.08h.22a.21.21,0,0,1,.14-.08h.08Zm.08-1.87a.26.26,0,0,0,.07-.14V48.2a.4.4,0,0,0-.15-.21h-.07c-.19,0-.29,0-.29.14v.07a.26.26,0,0,0,.07.15v.14h.15a.18.18,0,0,0,.11,0A.12.12,0,0,1,112.41,48.42ZM112,49.86h.22s0-.07.07-.07v-.07h.07s0-.07,0-.07,0,0,0-.08V49.5l-.07-.07v.07h-.07a.13.13,0,0,0-.15.15Zm1.3-1.51-.07-.29h-.15a.19.19,0,0,0-.14.07v.29H113Zm.22-.29h-.15v.22h.15l.07-.08V48Zm0,5.83a.07.07,0,0,0-.08.08s.08,0,.08.14h.5c.09-.1.14-.17.14-.22a.19.19,0,0,0-.07-.14v-.07a.26.26,0,0,0,.15-.07h.07l.07-.08a.21.21,0,0,0,.14.08s.05.07.15.07a.26.26,0,0,0,.14-.07.12.12,0,0,1,0-.11.18.18,0,0,0,0-.11v-.07l-.07-.15V53l-.07-.07h-.07l-.15.14v.14h-.07V53.1a.41.41,0,0,0-.29-.07.65.65,0,0,0-.29.07l-.07.14v.22a.06.06,0,0,0,.07.07l.08.08s.07,0,.07,0,0,0,.07,0h-.22a.31.31,0,0,1-.21.07.17.17,0,0,0-.14.07Zm.79-4.75a.33.33,0,0,0,.07-.21v-.08c-.1-.19-.22-.24-.36-.14s-.12,0-.22.14l-.07.08v.14c-.1.09-.1.17,0,.21H114a.31.31,0,0,0,.22-.07A.06.06,0,0,0,114.28,49.14Zm-.51-2.81c0,.05,0,.07,0,.07s0,0,0,.08H114l.07-.08h.07l.08-.07v-.07h-.08v-.07s0-.07-.07-.07h-.22a.06.06,0,0,1-.07.07Zm1.66,3.75-.07-.07-.08-.08h-.07l-.14.08a.21.21,0,0,0-.15.07.21.21,0,0,1-.14.07l-.07.07h-.07l-.07.07h.07v.07h.28a.29.29,0,0,0,.22.08h.14a.13.13,0,0,0,.15-.15Zm-.65-2.38s.07,0,.07.07h.07l.15-.07v-.14l-.07-.08v-.07s-.08,0-.08,0,0,0-.07,0h-.07Zm1.58-.43-.14.14a.06.06,0,0,0-.07.07v.22h.14a.06.06,0,0,1,.07-.07Zm.65,2.66c-.05,0-.07,0-.07,0s0,0-.07,0h-.15a.28.28,0,0,0-.21.07v.15a.42.42,0,0,0,.14.28h.15a.36.36,0,0,0,.21-.14Zm.94-1.36a.26.26,0,0,0-.07-.15.19.19,0,0,0-.08-.14h-.07a.18.18,0,0,0-.11,0,.12.12,0,0,1-.1,0v.07l-.08.07v.22h.08l.07.07h.07a.29.29,0,0,0,.22-.07v-.07ZM131.7,26.75c0,.05,0,.07,0,.07s0,0,0,.07h.07c0,.05,0,.07.07.07l.07.08H132v-.29l-.07-.07h-.15C131.72,26.68,131.7,26.7,131.7,26.75Zm.36.5-.14.07.07.15a.19.19,0,0,1,.14.07.07.07,0,0,1,.08.07h.28a.41.41,0,0,0,.29-.07v-.29a.06.06,0,0,0-.07-.07h-.36a.29.29,0,0,1-.22.07Zm1-.79.14-.07h.15c.09,0,.14-.05.14-.15h.07s0-.07,0-.07,0,0,0-.07a.23.23,0,0,0,.07-.14l.07-.08h-.07a.07.07,0,0,0-.07-.07h-.37v.07h-.14l-.14.22v.22h-.08l-.07.14Zm0-4.75.14.29h.07c.05,0,.08,0,.08.07a.06.06,0,0,0,.07-.07l.14-.15v-.21l-.14-.15h-.07a.22.22,0,0,0-.15.08h-.07l-.07.07Zm.58,3.1a.31.31,0,0,0-.22-.08h-.07l-.15.15a.28.28,0,0,0-.07.21v.08c0,.09.1.19.29.28h.14a.34.34,0,0,1,.22-.07c0-.05,0-.07.07-.07v-.14l-.07-.15V25Zm.07-2,.14.07H134v-.29a.06.06,0,0,0-.07-.07h-.14v.22Zm.14-1.44h.22a.06.06,0,0,0,.07-.07v-.15H134l-.07.08-.07.07Zm.65,1.15h-.36v.22l-.07.07v.07c0,.05,0,.07,0,.07s0,0,0,.07v.08c0,.05,0,.07.08.07h.14a.14.14,0,0,1,0-.11.16.16,0,0,0,0-.11v-.14h.22l.07-.07a.06.06,0,0,0,.07-.07l-.07-.08Zm-.07-2.45v-.28h-.08l-.07-.08h-.14v.36ZM135,23a.06.06,0,0,0-.07-.07.49.49,0,0,0-.29.07h-.07a.21.21,0,0,0-.07.15v.07a.57.57,0,0,0,.07.36h.36l.07-.07a.21.21,0,0,1,.15.07.4.4,0,0,0,.21.15h.07a.07.07,0,0,0,.08.07s.07,0,.07,0,0,0,.07,0h.07l.07-.08a.4.4,0,0,0,.15-.29.54.54,0,0,0-.51-.43.26.26,0,0,0-.14.07Zm.72,1.44-.14-.14-.15-.14a.12.12,0,0,1-.1,0,.18.18,0,0,0-.11,0h-.15v-.15s0-.05-.07-.14h-.14a.06.06,0,0,1-.07.07V24a.22.22,0,0,1-.08.15l-.07.07v.21a.09.09,0,0,0,0,.15l.15.07a.39.39,0,0,0,.28.15h.08a.8.8,0,0,0,.36-.08h.07s.07,0,.07,0,0,0,.07,0Zm-1.08-10.58a.06.06,0,0,0,.07.07h.15a.17.17,0,0,0,.07-.14v-.07l-.07-.15v.08h-.22Zm.58,1.51c0,.05.05.07.14.07a.07.07,0,0,0,.07.08l.08-.08s.07,0,.07-.14,0-.07,0-.07,0,0,0-.07v-.07h-.43l-.07.07v.21Zm.43,4.4a.19.19,0,0,1-.14-.08h-.15v.15c-.09.09-.09.14,0,.14h.07l.08.07h.14Zm0-3h.14s.12,0,.22,0h.29l.07-.07c0-.05,0-.07.07-.07v-.15c0-.24-.09-.36-.29-.36a.15.15,0,0,1-.1,0,.14.14,0,0,0-.11,0l-.07.07v.15a.21.21,0,0,0-.08.14c0,.05,0,.07,0,.07s0,0,0,.07h-.07v.08l-.07.07h.07Zm.29-6.69A.21.21,0,0,1,136,9.9V9.76H136l-.29-.07v.36Zm-.07,3.24.07-.08v-.14h-.22s-.07,0-.07.14v.08Zm.43-2.81a.48.48,0,0,0-.43-.22l-.08.07v.36c0,.15.12.22.22.22s.07,0,.07,0,0,0,.07,0,0-.07.08-.07A.24.24,0,0,0,136.31,10.48Zm0,10.73.07-.29h-.07V20.7l-.15-.22H136l-.07.08-.07.07v.07c0,.05,0,.07.07.07s0,.07.07.07h.22l.07.08h-.07c-.05,0-.08,0-.08.07v.07l-.07.07Zm.36-2.6-.07-.07h-.08a.72.72,0,0,0-.28.07h-.15c-.19.2-.21.34-.07.44a.34.34,0,0,0,.22.07l.07.07h.07l.07-.07a1.19,1.19,0,0,1,.15-.36l.07-.07Zm-.15-5.25s-.14-.07-.28-.07a.29.29,0,0,0-.22.07H136v.14a.33.33,0,0,0,.36.22h.14A.8.8,0,0,0,136.52,13.36Zm.29,6.48a.16.16,0,0,0,0-.11.12.12,0,0,1,0-.11h-.14l-.15.07v.08h-.07l-.29.28h.15l.14-.07h.29Zm.29-2.74V17L137,17a.07.07,0,0,0-.07-.08h-.15l-.14.08a.4.4,0,0,0-.15.21s0,.08,0,.08,0,0,0,.07v-.51h-.21v.07q-.15.15,0,.15v.07l.21.22.07.14.08.07h.07a.33.33,0,0,1,.21-.07c0-.05,0-.07.08-.07H137v-.07l.07-.15Zm-.86,5.4c0,.05,0,.07.14.07h.07v-.28h-.14l-.07-.08h-.08v.15C136.16,22.45,136.19,22.5,136.24,22.5Zm.21,1.3a.06.06,0,0,0,.07-.07l.08-.08v-.07s0-.07,0-.07,0,0,0-.07v-.15h-.07c-.09.1-.14.17-.14.22v.22h.07A.06.06,0,0,0,136.45,23.8Zm-.07-12.67a497582161908,497582161908,0,0,0,.14.14h.15v-.22s0-.07-.15-.07h-.07A.21.21,0,0,1,136.38,11.13Zm.5-4.69h-.28v.15s-.08,0-.08.07h.08a.07.07,0,0,1,.07.07c.05,0,.07,0,.07-.07s.07,0,.07-.07a.06.06,0,0,1,.07-.07Zm-.07,6.34-.07.07h-.07v.07l-.07.08v.07c0,.1.14.14.28.14H137v.15h.14c.05,0,.07,0,.07.07h.08l.07-.07v-.07a.07.07,0,0,0,.07-.08h-.07a.26.26,0,0,0-.07-.14h-.08V13h-.07v-.08c-.1-.09-.17-.14-.22-.14Zm.87,3.17c.09,0,.14-.07.14-.22v-.07l-.14-.14a.22.22,0,0,1-.15-.08c-.05,0-.07,0-.07,0s0,0-.07,0V15.3a.57.57,0,0,1,.07-.36c0-.09,0-.14.07-.14v-.07c.05,0,.07,0,.07-.08v-.07h-.07l-.07-.07-.07.07-.07.07-.07.08-.08.07h-.07s-.07,0-.07.07-.07,0-.07,0,0,0-.08,0l-.21.29v.14a.21.21,0,0,0,.07.15l.43.21a.41.41,0,0,0,.29.15V16Zm-.8-6.84c0,.05,0,.07.08.07v.07h.21V9s0-.08-.07-.08H137V9Zm0,13.54v.14c0,.05.05.07.15.07v.07h.07v-.28ZM137,8.32a.41.41,0,0,0-.07.29c.09.09.16.14.21.14h.22a.29.29,0,0,0,.07-.22V8.46a.19.19,0,0,0-.07-.14V8.25C137.29,8.15,137.17,8.17,137,8.32Zm0,1.87v.21h.22v-.14l.07-.07Zm.29-4,.07.07a.44.44,0,0,0,.14.29v.07l.15.22a.15.15,0,0,1,.1,0,.14.14,0,0,0,.11,0H138a.45.45,0,0,0,.19-.15.86.86,0,0,1,.18-.21V6.23l-.44-.43h-.29v.07c-.09.14-.19.22-.28.22Zm.21,12.89.07-.29h-.14l-.07.07v.07l-.07.07Zm.07-4.61.08.07v-.07a.07.07,0,0,0,.07-.08v-.07h-.07a.34.34,0,0,0-.22-.07l-.07-.07v.29Zm.15,5.18.07-.07-.07-.15v-.07h-.07v-.07h-.15v.07a.29.29,0,0,0-.07.22l-.07.07v.15h.29S137.75,19.72,137.75,19.62ZM138,8s0-.08-.07-.08,0-.07-.14-.07h-.07c-.1,0-.15.07-.15.22a.21.21,0,0,0-.07.14v.08l.07.07a.29.29,0,0,1,.22.07h.14V8.32a.06.06,0,0,0,.07-.07Zm-.21-3.17V4.65l.07-.08h-.29v.22Zm.29,7.34h-.36v.08c-.1.09-.1.14,0,.14a.36.36,0,0,1,.18,0,.12.12,0,0,0,.1,0H138v-.14l.07-.07h.14v-.08h.08V12l.07-.07v-.08H138Zm0-1.22a.07.07,0,0,0,0-.14v-.15a.27.27,0,0,0-.36,0,.22.22,0,0,0-.08.15v.14c.05,0,.08,0,.08.07a.27.27,0,0,0,.21.07H138A.19.19,0,0,0,138,10.91Zm.36,2.59a.37.37,0,0,0,0-.14.61.61,0,0,1,0-.22c-.1,0-.15,0-.15-.07H138a.21.21,0,0,0-.15-.07h-.07c0,.05,0,.07-.07.07v.14c-.05,0-.07,0-.07.08l-.08.07v.07l.08.14c0,.15.21.22.5.22a.21.21,0,0,0,.15-.07h.07Zm-.65-4v.22h.14l.07.07V9.54s-.07,0-.07,0,0,0-.07,0Zm.07,5.62s-.07,0-.07.14v.07l.07.07H138s.08,0,.08-.07v-.07l.07-.07v-.07Zm.14-10H138s0-.12.14-.22h-.07a.06.06,0,0,0-.07-.07l-.15.07v.07h-.07Zm.22,9.5.07.07v-.29l-.07-.07H138v.07l-.08.08v.07s.08,0,.08,0,0,0,.07,0ZM138,2.48l.14.15h.15V2.34h-.22l-.07.07Zm.21,7,.08.07v.15h.07v.07l.07-.07.07-.08V9.32s-.07,0-.07-.07V9.18h-.14l-.15.14A.21.21,0,0,0,138.25,9.47Zm0,.5a.29.29,0,0,0-.07.22v.21h.36c.05,0,.07,0,.07-.14s0-.12,0-.21,0-.08-.07-.08Zm.43,6.48c0-.09,0-.14-.07-.14s0-.07-.07-.07h-.21v.14a.07.07,0,0,0-.08.07l-.07.07v.08h.15s.14.07.28.07h.07Zm-.28-11.3a.77.77,0,0,0-.07.36V5.8h.07l.07.07h.14l.07-.07s.08,0,.08.07v.07h.36a.43.43,0,0,0,.21-.14s0-.07.08-.07V5.58s.07,0,.07-.14V5.36a.46.46,0,0,0-.29-.14h-.07a.34.34,0,0,0-.22.07h-.07v.07h-.07s-.08,0-.08-.07V5.15L138.54,5s-.07,0-.07,0,0,0-.07,0Zm.36,2.23a.47.47,0,0,0-.29.07.57.57,0,0,0-.07.36l.07.07a.21.21,0,0,1,.14.08h.07c.15.14.22.19.22.14l.22.15h.29a.23.23,0,0,0,.14-.08,1.23,1.23,0,0,1,.14-.5V7.52h-.14V7.45h-.07l-.07-.07Zm-.15,1.3a.06.06,0,0,0,.07-.07s0-.08-.14-.08h-.07v.08c-.05,0-.05.09,0,.14h.14Zm0-1.95c-.05,0-.07,0-.07.15l.07.07h.22V6.66h-.15l-.07-.07Zm0,4.9.07.07c0,.05,0,.07.15.07h.07s.07,0,.07-.07l.07-.07c0-.1,0-.15-.07-.15a.06.06,0,0,0-.07-.07h-.07l-.07-.07v.07h-.08a.26.26,0,0,0-.07.15Zm.65,3.1a.21.21,0,0,1,.07-.15c0-.05,0-.07-.07-.07l-.14-.15H139v-.07a.21.21,0,0,0-.14-.07c0-.05,0-.07-.07-.07s-.07,0-.07.07a.29.29,0,0,0-.08.22v.07l.29.29h.15C139.21,14.8,139.26,14.77,139.26,14.73ZM139,16.31v.29h.15v-.08a.06.06,0,0,0,.07-.07s0-.07,0-.07,0,0,0-.07Zm.07-3.6h.15c.05,0,.07,0,.07-.07v-.15H139Zm.37,1.15s0-.07-.08-.07a.19.19,0,0,1-.14-.07H139V14a.07.07,0,0,1,.08.08h.21a.07.07,0,0,0,.08-.08Zm.35-4.46.08-.29a.21.21,0,0,1-.15-.07h-.21a.31.31,0,0,1-.07.21V9.4h-.15l-.07.07v.14c0,.05,0,.08.07.08h.15s0-.08,0-.08,0,0,0-.07V9.4Zm-.28,1.15a.34.34,0,0,0,.07-.22v-.07l-.14-.07h-.15v.29s.05.07.15.07Zm-.07-4.18s0,.07-.08.07v.15h.08l.07.07.07-.07.07-.07V6.37Zm.21-3.81h.22s.07-.05.07-.15V2.34l.07-.07h-.36v.14l-.07.07Zm.43,9.21h-.43v.07c-.05,0-.07.05-.07.15v.07s.07,0,.07,0,0,0,.07,0l.07-.07a.12.12,0,0,0,.11,0,.18.18,0,0,1,.11,0,.21.21,0,0,0,.07-.15Zm.15-7h-.29s-.07,0-.07,0,0,0-.08,0v.07l-.07.07h.07v.15a.29.29,0,0,0,.22.07c.1,0,.14-.05.14-.15s.08,0,.08-.07h.07V4.86l.07-.07s0-.07-.07-.07Zm.29.72a.12.12,0,0,1-.11,0,.18.18,0,0,0-.11,0h-.07l-.08.08-.14.07v.07s0,.07-.07.07a.26.26,0,0,1-.07.15v.07c-.05,0-.08,0-.08.07a.77.77,0,0,0-.07.29v.14a.06.06,0,0,0,.07.07.07.07,0,0,0,.08.08.06.06,0,0,1,.07.07h.14a.29.29,0,0,0,.22.07h.07l.07-.07h.08V6.37h-.08V6.3l-.07-.07c0-.05,0-.07.07-.07l.08-.07h.07V6l.07.08v.07h.29V6.3l-.08.07v.07h.22a.21.21,0,0,0,.15-.07V6.16h-.29V6.09s-.08,0-.08,0,0,0,.08,0,0-.07.14-.07l.15-.07h-.15s0-.07-.07-.07h-.07V5.73a.22.22,0,0,1-.15-.08h-.07l-.21-.14Zm-.44,7.77h-.21a.22.22,0,0,0-.08.15v.07c0,.05,0,.07.08.07H140l.07.07Zm.51-2.23-.07-.07-.08-.07a.28.28,0,0,1-.21.07h-.08V11h-.07a.21.21,0,0,1-.07.15v.07l.07.07h.07v.07a.21.21,0,0,0,.15-.07l.22-.14Zm-.44-7h.08l.07.07h.14V3.78l-.07-.07h-.14a.23.23,0,0,0-.08.14Zm.8,4.61a.07.07,0,0,0-.08-.08h-.07a.06.06,0,0,0-.07-.07.21.21,0,0,0-.14.07q-.23.22,0,.36l.07.07h.07a.29.29,0,0,0,.22-.07ZM140.63,1c0,.05,0,.08.07.08V1c.05,0,.07,0,.07-.07V.83a.06.06,0,0,1,.07-.07V.69h.08V.47h-.29V.61a.73.73,0,0,1-.07.29V1Zm.07,4.32s.05.07.14.07H141l.07-.07h.07V5.22a.29.29,0,0,0,.08-.22l-.15-.14h-.14s-.12,0-.22.14Zm.22-1.94h.29V3.21a.07.07,0,0,0,.07-.08V3.06H141v.22Zm.36,2.88h.07s.05.07.14.07h.08V6.23l.07-.07V6.09h-.07L141.49,6h-.14v.08a.07.07,0,0,1-.07.07Zm.14,1.29V7.6l-.07.07h.07v.07h.15s0,.07.07.07h.07V7.6l-.07-.08Zm.36-.57s0,.07.07.07H142V6.81h-.08l-.07-.08h-.14V7ZM151,47.63a.12.12,0,0,0,.14.14h.22l.14-.14v-.07c0-.05-.05-.12-.14-.22l-.08-.07c0-.05,0-.07,0-.07s0,0,0-.08a.21.21,0,0,1,.07-.14l.14-.14h.08v-.15s-.05-.09-.15-.14h-.07v-.07l.14-.15v-.07l-.07-.07v-.07a.06.06,0,0,1-.07-.07V46a.21.21,0,0,1-.15-.07h-.07V46l-.07.08v.14a.48.48,0,0,1-.22.43.4.4,0,0,0-.21.15l-.14.14V47s.07,0,.07,0,0,0,.07,0,.09.16.14.18a.72.72,0,0,1,.15.11Zm0,.5-.15-.14h-.21v.14l.14.15c.1,0,.14-.05.14-.15Zm.79.8c.09-.29.07-.46-.07-.51h-.29l-.22.22v.21s0,.12.15.22h.14A.3.3,0,0,0,151.79,48.93Zm.43.07v-.15c-.05,0-.07,0-.07-.07h-.07c-.05,0-.08,0-.08,0s0,0-.07,0h-.07V49s.07,0,.07.07l.07.07a.21.21,0,0,0,.15-.07h.14Zm.07-3a.12.12,0,0,1,0-.11.18.18,0,0,0,0-.11l-.07-.14H152a.15.15,0,0,1,0,.1.14.14,0,0,0,0,.11V46l.15.15h.14v-.07Zm.51,2.3a.31.31,0,0,0-.36.07.22.22,0,0,0-.08.15l.08.07a.06.06,0,0,0,.07.07s0,.07.07.07a.17.17,0,0,0,.14-.07h.15Zm.21-.5s-.07,0-.07-.08,0-.07-.07-.07h-.22v.15c0,.09,0,.14.07.14s0,.07.08.07h.07c0-.05,0-.07.07-.07H153Zm.29-2.45s.07,0,.07.07h.15V45.4q.14,0,0-.15v-.07h-.08l-.07.07-.07.07Zm1.08,3.45c.05,0,.07,0,.07-.07a.25.25,0,0,0-.07-.21l-.07-.08a.21.21,0,0,0-.15-.07h-.07l-.07-.07a.29.29,0,0,0-.29-.15h-.21c-.1.1-.15.17-.15.22a.65.65,0,0,0,.07.36l.08.15s.07,0,.07,0,0,0,.07,0v.07a1.36,1.36,0,0,0,.36.14h.07s.15-.07.29-.21Zm-.58,1.23a.22.22,0,0,0,.08-.15l-.08-.07-.07-.07s0-.07-.14-.07-.12,0-.22.14v.07c0,.15,0,.22.07.22a.21.21,0,0,0,.15.07c.09,0,.14,0,.14-.07A.06.06,0,0,0,153.8,50.08Zm-.21-2.38c-.05,0-.07,0-.07.07s0,.15.07.15a.06.06,0,0,0,.07.07.34.34,0,0,0,.22-.07v-.36h-.08s-.07,0-.07,0,0,0-.07,0Zm.43-.65a.09.09,0,0,0,0,.15l.07.07.07-.07h.08v-.15l-.08-.14-.07.07Zm.79,1.44c0-.05,0-.07,0-.07s0,0,0-.07v-.07l-.07-.08a.23.23,0,0,0-.14-.07s-.12,0-.22.15,0,.07,0,.07,0,0,0,.07l.14.15a.26.26,0,0,0,.15.07l.07-.15Zm.58-1.22c0-.1,0-.15-.14-.15a.26.26,0,0,0-.15-.07H155a.21.21,0,0,1-.15.07.26.26,0,0,0-.07.15v.07c-.05,0-.07,0-.07.07l.07.07a.26.26,0,0,0,.07.15l.08.07h.14a.29.29,0,0,0,.22-.07l.07-.07Zm.86,2.16-.07-.07v-.08a.29.29,0,0,0-.22.08v.21Zm1.23-3.1h.07s.07,0,.07-.07v-.21h-.14v.07h-.07v.28Zm.36,3.24c.09,0,.14-.09.14-.29v-.14s-.07,0-.07-.07l-.07-.07-.08-.07-.21.21v.07a.21.21,0,0,0-.07.15l.07.14s.07,0,.07.07Zm.93-2.23v-.22a.21.21,0,0,0-.07-.14l-.07-.07a.29.29,0,0,0-.29.21.23.23,0,0,1-.14.08l-.08.07h-.28a.21.21,0,0,0-.15.07s0,.07-.07.07v.22a.46.46,0,0,0,.14.29V48h.29a.06.06,0,0,0,.07-.07h.08c.14-.15.21-.24.21-.29a.23.23,0,0,1,.15-.22h.14v-.07Zm-.57,3.1a.29.29,0,0,1-.08-.22.06.06,0,0,1-.07-.07l-.07.07h-.14v.14a.21.21,0,0,0,.07.15c0,.05,0,.07.07.07h.22Zm1.08-.43a.16.16,0,0,1-.11,0,.14.14,0,0,0-.11,0c-.05,0-.12,0-.22.15s-.07.28.08.28a.19.19,0,0,0,.14.08c.05,0,.12,0,.22-.15Zm-.22-3c0,.05,0,.07.07.07h.08a.23.23,0,0,0,.07-.14v-.43h-.07c-.05,0-.08,0-.08.07h-.07Zm.36,2.59-.07-.07v-.07h-.22v.07s0,.07,0,.07,0,0,0,.08h.21Zm1.08-1.87h.07l.08-.07v-.15h-.29Zm-.14,1.15a.23.23,0,0,1,.14.08h.07V49h.15v-.07a.07.07,0,0,0,.07-.08.23.23,0,0,0-.07-.14.26.26,0,0,1-.15-.07h-.21Zm.64,1.73c0-.1,0-.14-.14-.14s-.05-.08-.14-.08-.15,0-.15.08a.17.17,0,0,0-.07.14c-.1.1-.1.17,0,.22a.21.21,0,0,0,.07.14h.15c.09,0,.19-.07.28-.21Zm-.57-4.82.07.07v.07h.07c.05,0,.08,0,.08-.07h.07v-.29l-.07.07h-.08s-.07,0-.07,0,0,0-.07,0Zm.43.21-.14.08h-.07v.14l.07.07h.36l-.08-.07v-.14h-.07V46Zm.43,3.6s-.07,0-.07,0,0,0-.07,0h-.29a.21.21,0,0,1-.07.15v.14c0,.05,0,.07,0,.07s0,0,0,.07h.07A.07.07,0,0,0,161,50a.22.22,0,0,0,.15-.08l.14-.14Zm1-1.44-.07-.07V48l-.07-.07c-.15,0-.22,0-.22.07v.14l.07.07h.15l.07-.07ZM162,46.48h.22V46.4c.05,0,.07,0,.07-.07l-.07-.07v-.07h-.15c0,.05,0,.07-.07.07Zm.87-.36a.22.22,0,0,0-.08-.15.19.19,0,0,0-.07-.14.23.23,0,0,0-.29.07V46s0,0,0,.08l.08.14h.21l.07-.07Zm-.44-.72a.23.23,0,0,0,.08.14v.15l.07-.08h.07l.07-.07h.07v-.29h-.21l-.07.07ZM164,48.06c.09,0,.14,0,.14-.07V47.7H164l-.07.07h-.08l-.07.08V48c.05,0,.07,0,.07.07Zm1.37.87a.22.22,0,0,1-.08-.15v-.07h-.07v.07c-.1,0-.14,0-.14.07l-.08.08V49s0-.07-.07-.07,0-.08-.07-.08,0-.07-.14-.07a.29.29,0,0,0-.22.07h-.07c-.1.1-.14.17-.14.22a.27.27,0,0,0,.07.21l.14.15c-.05,0-.07,0-.07.07a.57.57,0,0,0-.36.07c-.05,0-.07,0-.07.08v.07a.21.21,0,0,0,.07.14h.5l.07-.07v-.07h.08v-.07a.22.22,0,0,1-.08-.15l-.07-.07h.07a.26.26,0,0,0,.15-.07H165v.07h.22a.06.06,0,0,0,.07-.07.29.29,0,0,0,.08-.22Zm.64-3c0-.14-.05-.21-.14-.21h-.29l-.14.14h-.07c0,.05,0,.07-.08.07a.21.21,0,0,0-.14.08v.07h.14a.07.07,0,0,0,.08.07h.43C165.9,46.19,166,46.12,166,46Zm-.29,2a.17.17,0,0,0-.07-.14h-.14l-.07.07h-.07s0,.07,0,.07,0,0,0,.07v.07h.21l.07-.07Zm1.23.58-.15-.15c0-.05,0-.07-.07-.07V48.2l-.07-.07V48l-.07-.07c-.05,0-.07,0-.07.07h-.22a.28.28,0,0,0-.07.21c-.05,0-.07,0-.07.08l.07.07a.19.19,0,0,0,.07.14h.07v.08a.16.16,0,0,1,.11,0,.16.16,0,0,0,.11,0h.14a.26.26,0,0,0,.15.07v-.07Zm.58-2.52a.26.26,0,0,0,.07-.15v-.14h-.07s0-.07,0-.07,0,0,0-.08h-.29v.08a.06.06,0,0,0-.07.07c-.05,0-.07,0-.07.07a.46.46,0,0,0,.14.29h.29A.07.07,0,0,0,167.49,46.05Z"/><path d="M3.79,8.88v4.57H1.7V.85H5.53a5.07,5.07,0,0,1,3.36,1,3.51,3.51,0,0,1,1.2,2.85,3.94,3.94,0,0,1-1.25,3A4.74,4.74,0,0,1,5.46,8.88Zm0-6.31V7.18H5.14a3,3,0,0,0,2.05-.63,2.2,2.2,0,0,0,.7-1.75c0-1.49-.86-2.23-2.58-2.23Z"/><path d="M15.38,13.66a4.47,4.47,0,0,1-3.33-1.26,4.54,4.54,0,0,1-1.24-3.34A4.75,4.75,0,0,1,12.1,5.52a4.78,4.78,0,0,1,3.5-1.28,4.33,4.33,0,0,1,3.29,1.24,4.81,4.81,0,0,1,1.17,3.44,4.72,4.72,0,0,1-1.27,3.45A4.55,4.55,0,0,1,15.38,13.66Zm.1-7.79a2.34,2.34,0,0,0-1.89.83A3.48,3.48,0,0,0,12.89,9a3.32,3.32,0,0,0,.7,2.22,2.36,2.36,0,0,0,1.89.82,2.27,2.27,0,0,0,1.85-.8A3.58,3.58,0,0,0,18,9a3.59,3.59,0,0,0-.64-2.29A2.24,2.24,0,0,0,15.48,5.87Z"/><path d="M27.36,6.4a1.66,1.66,0,0,0-1.07-.29,1.83,1.83,0,0,0-1.51.81,3.71,3.71,0,0,0-.6,2.23v4.3h-2v-9h2V6.31h0a3.11,3.11,0,0,1,.92-1.48,2,2,0,0,1,1.38-.54,1.77,1.77,0,0,1,.85.17Z"/><path d="M34.06,13.36a3.49,3.49,0,0,1-1.57.29c-1.74,0-2.62-.83-2.62-2.51V6.05h-1.5V4.45h1.5V2.37l2-.58V4.45h2.15v1.6H31.91v4.5a1.76,1.76,0,0,0,.29,1.14,1.21,1.21,0,0,0,1,.35,1.39,1.39,0,0,0,.89-.3Z"/><path d="M40.91,1.79A1.83,1.83,0,0,0,40,1.55c-1,0-1.48.56-1.48,1.68V4.45h2.09v1.6H38.49v7.4h-2V6.05H34.92V4.45h1.54V3A2.83,2.83,0,0,1,37.39.75a3.37,3.37,0,0,1,2.33-.82,3.48,3.48,0,0,1,1.19.16Z"/><path d="M46,13.66a4.47,4.47,0,0,1-3.33-1.26,4.54,4.54,0,0,1-1.24-3.34,4.75,4.75,0,0,1,1.29-3.54,4.78,4.78,0,0,1,3.5-1.28,4.29,4.29,0,0,1,3.28,1.24A4.77,4.77,0,0,1,50.7,8.92a4.72,4.72,0,0,1-1.27,3.45A4.55,4.55,0,0,1,46,13.66Zm.09-7.79a2.36,2.36,0,0,0-1.89.83A3.54,3.54,0,0,0,43.53,9a3.27,3.27,0,0,0,.7,2.22,2.35,2.35,0,0,0,1.88.82,2.24,2.24,0,0,0,1.85-.8A3.58,3.58,0,0,0,48.61,9,3.59,3.59,0,0,0,48,6.68,2.22,2.22,0,0,0,46.11,5.87Z"/><path d="M54.82,13.45h-2V.13h2Z"/><path d="M58.51,2.56a1.25,1.25,0,0,1-.86-.32,1.07,1.07,0,0,1-.36-.83,1.08,1.08,0,0,1,.36-.83,1.18,1.18,0,0,1,.86-.34,1.23,1.23,0,0,1,.88.34,1.08,1.08,0,0,1,.36.83,1.09,1.09,0,0,1-.36.82A1.27,1.27,0,0,1,58.51,2.56Zm1,10.89h-2v-9h2Z"/><path d="M66.17,13.66a4.47,4.47,0,0,1-3.33-1.26A4.58,4.58,0,0,1,61.6,9.06a4.72,4.72,0,0,1,1.3-3.54,4.76,4.76,0,0,1,3.49-1.28,4.31,4.31,0,0,1,3.29,1.24,4.82,4.82,0,0,1,1.18,3.44,4.76,4.76,0,0,1-1.27,3.45A4.59,4.59,0,0,1,66.17,13.66Zm.1-7.79a2.34,2.34,0,0,0-1.89.83A3.48,3.48,0,0,0,63.68,9a3.27,3.27,0,0,0,.71,2.22,2.34,2.34,0,0,0,1.88.82,2.25,2.25,0,0,0,1.85-.8A3.58,3.58,0,0,0,68.76,9a3.59,3.59,0,0,0-.64-2.29A2.23,2.23,0,0,0,66.27,5.87Z"/></svg>