<?xml version="1.0" encoding="utf-8"?>
<!-- Generator: Adobe Illustrator 16.0.0, SVG Export Plug-In . SVG Version: 6.00 Build 0)  -->
<!DOCTYPE svg PUBLIC "-//W3C//DTD SVG 1.1//EN" "http://www.w3.org/Graphics/SVG/1.1/DTD/svg11.dtd">
<svg version="1.1" id="Layer_1" xmlns="http://www.w3.org/2000/svg" xmlns:xlink="http://www.w3.org/1999/xlink" x="0px" y="0px"
	 width="108.383px" height="39.365px" viewBox="0 0 108.383 39.365" enable-background="new 0 0 108.383 39.365"
	 xml:space="preserve">
<g>
	<path fill="#F16048" d="M13.465,7.681l-3.6,17.042c-0.768,3.672-2.376,5.928-6.313,5.928C1.272,30.651,0,29.259,0,27.267
		c0-1.632,1.032-3.217,2.928-3.217c0.96,0,2.352,0.072,2.352,1.608c0,0.265-0.048,0.601-0.144,0.96
		c-0.6-0.504-0.96-0.624-1.44-0.624c-1.104,0-1.68,0.889-1.68,1.776c0,1.248,0.936,1.681,1.632,1.681c1.08,0,1.729-0.48,2.28-2.953
		L9.697,9.362c-2.088,0.863-3.384,2.688-3.384,5.256c0,1.225,0.312,1.416,0.336,1.633c-1.656,0-2.568-0.601-2.568-2.329
		c0-3.191,4.417-6.24,8.425-6.24H13.465z"/>
	<path fill="#F16048" d="M23.977,13.682l-1.728,8.16c-0.072,0.313-0.096,0.553-0.096,0.769c0,0.672,0.312,1.032,0.984,1.032
		c0.936,0,1.584-1.057,1.944-2.257h1.008c-1.368,3.913-3.528,4.44-4.825,4.44c-1.344,0-2.208-0.768-2.352-2.208
		c-0.744,1.104-1.872,2.208-3.576,2.208c-1.632,0-3.192-1.008-3.192-3.864c0-3.24,1.992-8.4,6.168-8.4
		c1.368,0,1.944,0.528,1.944,1.224v0.168l0.264-1.271H23.977z M15.696,21.626c0,1.849,0.768,1.872,1.2,1.872
		c0.696,0,1.704-0.72,1.992-2.112l1.152-5.424c0-0.288-0.216-0.912-0.984-0.912C17.016,15.05,15.696,19.371,15.696,21.626z"/>
	<path fill="#F16048" d="M30.167,13.682l-1.728,8.16c-0.072,0.313-0.096,0.553-0.096,0.769c0,0.672,0.312,0.888,0.984,0.888
		c0.936,0,1.8-0.912,2.16-2.112h1.008c-1.368,3.913-3.744,4.44-5.041,4.44c-1.44,0-2.568-0.864-2.568-2.88
		c0-0.456,0.072-0.984,0.192-1.561l1.632-7.704H30.167z M29.087,8.57c1.056,0,1.92,0.863,1.92,1.92c0,1.056-0.864,1.896-1.92,1.896
		s-1.896-0.84-1.896-1.896C27.191,9.433,28.031,8.57,29.087,8.57z"/>
	<path fill="#F16048" d="M43.464,15.77c-0.864,0-1.512,1.008-1.872,2.208l-1.632,7.705h-3.456l1.752-8.281
		c0.048-0.191,0.072-0.384,0.072-0.6c0-0.528-0.192-1.057-0.72-1.057c-0.936,0-1.584,1.032-1.944,2.232l-1.632,7.705h-3.457
		l2.544-12.001h3.456l-0.264,1.248c1.008-1.152,2.088-1.368,2.928-1.368c1.272,0,2.208,0.576,2.473,2.064
		c1.152-1.776,2.448-2.041,3.336-2.041c1.536,0,2.665,0.792,2.665,2.713c0,1.944-1.152,4.848-1.152,6.192
		c0,0.6,0.24,1.008,0.96,1.008c1.056,0,1.488-0.864,2.017-2.112h1.008c-1.344,3.937-3.192,4.44-4.464,4.44
		c-2.088,0-2.832-1.344-2.832-2.712c0-1.632,1.08-4.585,1.08-6.121C44.329,16.202,44.041,15.77,43.464,15.77z"/>
	<path fill="#F16048" d="M54.24,23.546c0.912,0,2.064-0.6,2.832-1.271c-0.504,2.736-2.232,3.552-4.152,3.552
		c-2.232,0-3.72-1.104-3.72-3.816c0-2.76,1.56-8.545,6.48-8.545c2.136,0,2.64,1.104,2.64,2.305c0,2.784-2.64,4.896-5.521,5.064
		c-0.024,0.24-0.048,0.504-0.048,0.72C52.751,23.067,53.399,23.546,54.24,23.546z M55.872,14.738c-1.2,0-2.4,2.664-2.904,4.944
		c1.873-0.096,3.504-1.944,3.504-3.96C56.472,15.122,56.328,14.738,55.872,14.738z"/>
	<path fill="#F16048" d="M69.36,25.203c2.496,0.552,5.017,3.097,8.064,3.097c0.648,0,1.32-0.097,2.017-0.384
		c-0.24,2.304-1.2,3.768-2.497,3.768c-3.432,0-6.457-5.448-10.705-5.448c-0.192,0-0.36,0-0.552,0.024l3.576-16.634
		c-2.088,0.864-3.36,2.664-3.36,5.232c0,1.225,0.313,1.416,0.336,1.632c-1.656,0-2.568-0.6-2.568-2.328
		c0-3.192,4.417-6.24,8.425-6.24c0.336,0,0.648,0.024,0.96,0.048L69.36,25.203z"/>
	<path fill="#F16048" d="M83.64,13.682l-1.729,8.16c-0.072,0.313-0.096,0.553-0.096,0.769c0,0.672,0.312,0.888,0.984,0.888
		c0.936,0,1.584-0.912,1.944-2.112h1.008c-1.368,3.913-3.528,4.44-4.824,4.44c-1.368,0-2.232-0.792-2.376-2.28
		c-1.2,1.969-2.544,2.28-3.553,2.28c-1.44,0-2.568-0.864-2.568-2.88c0-0.456,0.072-0.984,0.192-1.561l1.632-7.704h3.456l-1.728,8.16
		c-0.048,0.24-0.072,0.456-0.072,0.672c0,0.553,0.192,0.984,0.72,0.984c0.936,0,1.56-0.912,1.92-2.112l1.632-7.704H83.64z"/>
	<path fill="#F16048" d="M90.791,15.77c-0.864,0-1.512,1.008-1.872,2.208l-1.632,7.705h-3.457l2.544-12.001h3.456l-0.264,1.248
		c1.008-1.152,2.064-1.345,2.809-1.345c1.536,0,2.664,0.792,2.664,2.713c0,1.944-1.152,4.848-1.152,6.192
		c0,0.6,0.24,1.008,0.96,1.008c1.056,0,1.488-0.864,2.016-2.112h1.008c-1.344,3.937-3.192,4.44-4.464,4.44
		c-2.088,0-2.832-1.344-2.832-2.712c0-1.632,1.08-4.585,1.08-6.121C91.655,16.202,91.367,15.77,90.791,15.77z"/>
	<path fill="#F16048" d="M108.383,13.682l-1.728,8.16c-0.072,0.313-0.096,0.553-0.096,0.769c0,0.672,0.312,0.888,0.984,0.888
		c0.216,0,0.36-0.023,0.528-0.096c-0.648,1.68-1.104,2.424-2.4,2.424c-1.296,0-2.16-0.84-2.352-2.232
		c-0.72,1.104-1.872,2.232-3.576,2.232c-1.632,0-3.192-1.008-3.192-3.864c0-3.24,1.992-8.4,6.168-8.4
		c1.368,0,1.944,0.528,1.944,1.224v0.168l0.264-1.271H108.383z M100.103,21.626c0,1.849,0.768,1.872,1.2,1.872
		c0.696,0,1.704-0.72,1.992-2.112l1.152-5.424c0-0.288-0.216-0.912-0.984-0.912C101.423,15.05,100.103,19.371,100.103,21.626z"/>
</g>
</svg>
