<svg id="Layer_1" data-name="Layer 1" xmlns="http://www.w3.org/2000/svg" viewBox="0 0 80 80"><defs><style>.cls-1,.cls-3{fill:#719a4e;}.cls-2{fill:#7fad5b;}.cls-2,.cls-3{fill-rule:evenodd;}.cls-4{fill:#fff;}</style></defs><title>android</title><g id="Layer_1-2" data-name="Layer_1"><circle class="cls-1" cx="40" cy="40" r="40"/><path class="cls-2" d="M79.89,43A40,40,0,0,1,.11,43C1.66,22.36,18.93,5.42,40,5.42S78.34,22.36,79.89,43Z"/><path class="cls-3" d="M77.8,53.1A40,40,0,0,1,40.06,80L31.49,65.15h0A3,3,0,0,1,31,63.42v-6.5a3,3,0,0,1,.13-.85H28.7a3.29,3.29,0,0,1-3.31-3.25V30.25h0V28.2c0-4.4,3-8.24,7.43-10.26l-.59-.87-.58-.85-1.3-1.92a.5.5,0,0,1,.14-.71.54.54,0,0,1,.73.14l1.4,2.06.58.87.6.88a17.78,17.78,0,0,1,12.42,0l.6-.88.59-.87,1.4-2.06a.52.52,0,0,1,.72-.14.51.51,0,0,1,.14.71l-1.3,1.92-.58.85-.59.87c4.43,2,7.43,5.87,7.43,10.26l2.87,3.09a3.15,3.15,0,0,1,5.43,1.51h0Zm-44.06-29h0a1.54,1.54,0,1,1,1.56-1.54A1.55,1.55,0,0,1,33.74,24.11Zm12.52,0h0a1.54,1.54,0,1,1,1.57-1.54A1.55,1.55,0,0,1,46.26,24.11ZM17,33.33V46.5a3.13,3.13,0,0,0,6.26,0V33.33a3.13,3.13,0,0,0-6.26,0Z"/><g id="_2016151392480" data-name=" 2016151392480"><path class="cls-4" d="M47.19,17.94l.59-.87.58-.85,1.3-1.92a.5.5,0,0,0-.14-.71.52.52,0,0,0-.72.14l-1.4,2.06-.59.87-.6.88a17.78,17.78,0,0,0-12.42,0l-.6-.88-.58-.87-1.4-2.06a.54.54,0,0,0-.73-.14.51.51,0,0,0-.14.71l1.3,1.92.58.85.59.87c-4.43,2-7.43,5.86-7.43,10.26H54.61C54.61,23.81,51.61,20,47.19,17.94ZM33.74,24.11h0a1.54,1.54,0,1,1,1.56-1.54A1.55,1.55,0,0,1,33.74,24.11Zm12.52,0h0a1.54,1.54,0,1,1,1.57-1.54A1.55,1.55,0,0,1,46.26,24.11Z"/><path class="cls-4" d="M54.61,52.82V30.25H25.38V52.82a3.28,3.28,0,0,0,3.31,3.25h2.38a3,3,0,0,0-.13.85v6.5a3.14,3.14,0,0,0,6.27,0v-6.5a3,3,0,0,0-.13-.85H42.9a3,3,0,0,0-.12.85v6.5a3.13,3.13,0,0,0,6.26,0v-6.5a3,3,0,0,0-.13-.85H51.3A3.28,3.28,0,0,0,54.61,52.82Z"/><path class="cls-4" d="M17,33.33V46.5a3.13,3.13,0,0,0,6.26,0V33.33a3.13,3.13,0,0,0-6.26,0Z"/><path class="cls-4" d="M56.7,33.33V46.5a3.13,3.13,0,0,0,6.26,0V33.33a3.13,3.13,0,0,0-6.26,0Z"/></g></g></svg>