<svg id="Layer_1" data-name="Layer 1" xmlns="http://www.w3.org/2000/svg" viewBox="0 0 80 80"><defs><style>.cls-1{fill:#dd0031;}.cls-2{fill:#c3002f;}.cls-3{fill:#fff;}</style></defs><title>Angular</title><polygon class="cls-1" points="40 0 40 0 40 0 2.76 13.28 8.44 62.52 40 80 40 80 40 80 71.56 62.52 77.24 13.28 40 0"/><polygon class="cls-2" points="40 0 40 8.88 40 8.84 40 49.36 40 49.36 40 80 40 80 71.56 62.52 77.24 13.28 40 0"/><path class="cls-3" d="M40,8.84,16.72,61H25.4l4.68-11.68H49.84L54.52,61H63.2L40,8.84Zm6.8,33.32H33.2L40,25.8Z"/></svg>