<?xml version="1.0" encoding="utf-8"?>
<!-- Generator: Adobe Illustrator 16.0.0, SVG Export Plug-In . SVG Version: 6.00 Build 0)  -->
<!DOCTYPE svg PUBLIC "-//W3C//DTD SVG 1.1//EN" "http://www.w3.org/Graphics/SVG/1.1/DTD/svg11.dtd">
<svg version="1.1" id="Layer_1" xmlns="http://www.w3.org/2000/svg" xmlns:xlink="http://www.w3.org/1999/xlink" x="0px" y="0px"
	 width="80px" height="80px" viewBox="266.007 356 80 80" enable-background="new 266.007 356 80 80" xml:space="preserve">
<g>
	<path fill="#252F3E" d="M288.552,389.455c0,0.984,0.106,1.783,0.292,2.368c0.213,0.585,0.479,1.224,0.852,1.916
		c0.133,0.213,0.186,0.426,0.186,0.612c0,0.266-0.16,0.532-0.505,0.798l-1.676,1.118c-0.24,0.16-0.479,0.239-0.692,0.239
		c-0.266,0-0.532-0.133-0.798-0.373c-0.373-0.399-0.692-0.825-0.958-1.25c-0.266-0.452-0.532-0.958-0.825-1.57
		c-2.075,2.448-4.683,3.672-7.822,3.672c-2.235,0-4.018-0.639-5.322-1.916c-1.304-1.277-1.969-2.98-1.969-5.109
		c0-2.261,0.798-4.097,2.421-5.481c1.623-1.383,3.778-2.075,6.519-2.075c0.905,0,1.836,0.08,2.821,0.213
		c0.984,0.133,1.995,0.346,3.06,0.585v-1.942c0-2.022-0.426-3.433-1.25-4.257c-0.852-0.825-2.288-1.224-4.337-1.224
		c-0.931,0-1.889,0.106-2.874,0.346c-0.985,0.239-1.942,0.532-2.874,0.904c-0.426,0.187-0.745,0.293-0.932,0.346
		c-0.186,0.053-0.319,0.08-0.426,0.08c-0.372,0-0.559-0.266-0.559-0.825v-1.304c0-0.426,0.053-0.745,0.187-0.931
		c0.133-0.187,0.372-0.373,0.745-0.559c0.932-0.479,2.049-0.878,3.353-1.198c1.304-0.346,2.688-0.505,4.151-0.505
		c3.166,0,5.481,0.718,6.971,2.155c1.463,1.437,2.208,3.619,2.208,6.545v8.621H288.552z M277.749,393.499
		c0.878,0,1.783-0.16,2.74-0.479c0.958-0.319,1.81-0.905,2.528-1.703c0.426-0.505,0.745-1.064,0.905-1.703s0.266-1.41,0.266-2.315
		v-1.117c-0.771-0.187-1.597-0.346-2.448-0.453c-0.852-0.106-1.676-0.16-2.501-0.16c-1.782,0-3.086,0.346-3.964,1.064
		c-0.878,0.718-1.304,1.729-1.304,3.06c0,1.25,0.319,2.182,0.984,2.821C275.594,393.18,276.525,393.499,277.749,393.499z
		 M299.115,396.373c-0.479,0-0.798-0.08-1.011-0.266c-0.213-0.16-0.399-0.532-0.559-1.038l-6.253-20.567
		c-0.16-0.532-0.239-0.878-0.239-1.064c0-0.426,0.213-0.665,0.638-0.665h2.608c0.505,0,0.852,0.08,1.038,0.266
		c0.213,0.16,0.373,0.532,0.532,1.038l4.47,17.614l4.151-17.614c0.133-0.532,0.292-0.878,0.505-1.038s0.585-0.266,1.064-0.266h2.128
		c0.506,0,0.852,0.08,1.064,0.266c0.213,0.16,0.399,0.532,0.506,1.038l4.203,17.827l4.604-17.827
		c0.159-0.532,0.346-0.878,0.532-1.038c0.213-0.16,0.559-0.266,1.037-0.266h2.475c0.426,0,0.665,0.213,0.665,0.665
		c0,0.133-0.026,0.266-0.053,0.426s-0.08,0.373-0.187,0.665l-6.412,20.567c-0.16,0.532-0.346,0.878-0.559,1.038
		s-0.559,0.266-1.011,0.266h-2.289c-0.505,0-0.852-0.08-1.063-0.266c-0.213-0.186-0.399-0.532-0.506-1.064l-4.124-17.162
		l-4.098,17.135c-0.133,0.532-0.293,0.878-0.506,1.064c-0.212,0.186-0.585,0.266-1.064,0.266H299.115z M333.305,397.092
		c-1.384,0-2.768-0.16-4.098-0.479s-2.368-0.665-3.06-1.064c-0.426-0.24-0.719-0.506-0.825-0.745
		c-0.106-0.24-0.159-0.505-0.159-0.745v-1.357c0-0.559,0.213-0.825,0.612-0.825c0.159,0,0.318,0.026,0.479,0.08
		s0.399,0.16,0.665,0.266c0.904,0.399,1.89,0.718,2.927,0.931c1.064,0.213,2.102,0.319,3.166,0.319c1.677,0,2.98-0.292,3.885-0.878
		c0.905-0.585,1.384-1.437,1.384-2.528c0-0.745-0.239-1.357-0.719-1.862c-0.479-0.505-1.383-0.958-2.687-1.384l-3.858-1.197
		c-1.942-0.612-3.379-1.517-4.257-2.714c-0.878-1.171-1.331-2.475-1.331-3.858c0-1.118,0.239-2.102,0.719-2.954
		c0.479-0.851,1.117-1.596,1.916-2.182c0.798-0.612,1.702-1.064,2.767-1.384c1.064-0.319,2.182-0.452,3.353-0.452
		c0.586,0,1.197,0.027,1.783,0.106c0.611,0.08,1.17,0.186,1.729,0.292c0.532,0.133,1.037,0.266,1.517,0.426
		c0.479,0.16,0.851,0.319,1.117,0.479c0.372,0.213,0.639,0.426,0.798,0.666c0.16,0.212,0.24,0.505,0.24,0.878v1.25
		c0,0.559-0.213,0.851-0.612,0.851c-0.213,0-0.559-0.106-1.011-0.319c-1.517-0.691-3.22-1.037-5.109-1.037
		c-1.517,0-2.714,0.239-3.538,0.745c-0.825,0.506-1.251,1.277-1.251,2.368c0,0.745,0.267,1.384,0.799,1.889
		c0.531,0.505,1.516,1.011,2.926,1.463l3.778,1.197c1.916,0.612,3.3,1.463,4.125,2.554c0.824,1.091,1.224,2.341,1.224,3.725
		c0,1.144-0.239,2.182-0.692,3.086c-0.479,0.905-1.117,1.703-1.942,2.341c-0.824,0.666-1.809,1.144-2.953,1.49
		C335.912,396.905,334.662,397.092,333.305,397.092z"/>
	<g>
		<path fill="#FF9900" d="M338.334,410.022c-8.754,6.466-21.473,9.897-32.408,9.897c-15.326,0-29.135-5.667-39.564-15.086
			c-0.825-0.745-0.08-1.756,0.904-1.171c11.282,6.546,25.197,10.51,39.592,10.51c9.711,0,20.381-2.021,30.199-6.173
			C338.52,407.335,339.771,408.958,338.334,410.022z"/>
		<path fill="#FF9900" d="M341.979,405.872c-1.117-1.438-7.396-0.692-10.243-0.347c-0.852,0.106-0.984-0.638-0.213-1.197
			c5.002-3.512,13.224-2.501,14.182-1.33c0.957,1.197-0.267,9.419-4.949,13.356c-0.719,0.612-1.41,0.293-1.091-0.505
			C340.729,413.215,343.096,407.282,341.979,405.872z"/>
	</g>
</g>
</svg>
