<svg id="svg2" xmlns="http://www.w3.org/2000/svg" xmlns:xlink="http://www.w3.org/1999/xlink" viewBox="0 0 80 80"><defs><style>.cls-1{fill:url(#linear-gradient);}.cls-2{fill:#fff;}</style><linearGradient id="linear-gradient" x1="-402.97" y1="2.89" x2="-398.48" y2="-1.68" gradientTransform="translate(98360.72 -630.2) scale(244.08)" gradientUnits="userSpaceOnUse"><stop offset="0" stop-color="#070135"/><stop offset="1" stop-color="#612d50"/></linearGradient></defs><title>Boostrap</title><g id="layer1"><path id="rect3050" class="cls-1" d="M13,.06h53.9A12.88,12.88,0,0,1,79.7,12.88V67.09A12.87,12.87,0,0,1,66.89,79.9H13A12.87,12.87,0,0,1,.18,67.09V12.88A12.77,12.77,0,0,1,13,.06Z"/><g id="text3836"><path id="path3841" class="cls-2" d="M40.55,34.38A6.42,6.42,0,0,0,45.11,33a4.73,4.73,0,0,0,1.57-3.89,4.71,4.71,0,0,0-1.57-3.88,6.94,6.94,0,0,0-4.56-1.4H33.48V34.22h7.07M41,56.14c2.67,0,4.56-.47,5.81-1.56a6.37,6.37,0,0,0,2-5A5.94,5.94,0,0,0,47,44.79c-1.26-1.09-3.3-1.55-5.81-1.55H33.64v13H41m12.09-18a11.89,11.89,0,0,1,6.44,4.36,13.15,13.15,0,0,1,2.36,7.92c0,4.82-1.57,8.39-4.87,10.73s-8.17,3.57-14.92,3.57H20.76V15.26H40.08c6.91,0,11.93,1.09,15.08,3.11s4.71,5.44,4.71,10a11.15,11.15,0,0,1-1.73,6.21,10.89,10.89,0,0,1-5,3.73"/></g></g></svg>