<svg id="Layer_1" data-name="Layer 1" xmlns="http://www.w3.org/2000/svg" viewBox="0 0 80 80"><defs><style>.cls-1{fill:#264de4;}.cls-2{fill:#2965f1;}.cls-3{fill:#ebebeb;}.cls-4{fill:#fff;}</style></defs><title>Css3</title><polygon id="polygon2989" class="cls-1" points="39.96 80 11.15 72 4.73 0 75.27 0 68.85 71.98 39.96 80"/><polygon id="polygon2991" class="cls-2" points="63.35 67.41 68.84 5.89 40 5.89 40 73.88 63.35 67.41"/><polygon id="polygon2993" class="cls-3" points="19.45 32.59 20.24 41.42 40 41.42 40 32.59 19.45 32.59"/><polygon id="polygon2995" class="cls-3" points="17.86 14.72 18.66 23.55 40 23.55 40 14.72 39.98 14.72 17.86 14.72"/><polygon id="polygon2997" class="cls-3" points="40 55.53 39.96 55.53 30.13 52.88 29.5 45.84 24.72 45.84 20.64 45.84 21.87 59.7 39.96 64.73 40 64.72 40 55.53"/><polygon id="polygon3005" class="cls-4" points="60.5 32.59 62.09 14.72 39.98 14.72 39.98 23.55 52.42 23.55 51.61 32.59 39.98 32.59 39.98 41.42 50.84 41.42 49.82 52.88 39.98 55.53 39.98 64.72 58.07 59.7 58.21 58.21 60.29 34.96 60.5 32.59"/></svg>