<svg id="Layer_1" data-name="Layer 1" xmlns="http://www.w3.org/2000/svg" viewBox="0 0 80 80"><title>Github</title><path d="M52.73,78.36h-.36L52,78V66.73a12.47,12.47,0,0,0-1.45-6.55C58.91,58.73,68,54.36,68,38a18.79,18.79,0,0,0-4-11.64c.73-2.18,1.09-6.18-.73-11.27L62.18,14a3.8,3.8,0,0,0-1.45-.36c-2.18,0-5.45.73-10.91,4.36A74.12,74.12,0,0,0,40,16.91,45.78,45.78,0,0,0,29.82,18c-5.09-3.27-8.73-4-10.91-4-.73,0-1.09.36-1.45.36a1.65,1.65,0,0,0-1.09,1.09c-1.82,5.09-1.45,9.09-.73,11.27a18.75,18.75,0,0,0-4,11.64c0,16,9.45,20.36,17.45,22.18A25.34,25.34,0,0,0,28,63.45a7.32,7.32,0,0,1-3.27.73,5.47,5.47,0,0,1-4-1.45l-.36-.36c-.37-.37-.37-.73-.73-.73l-.36-.36-.36-.36a10.34,10.34,0,0,0-8-5.09c-1.82,0-3.27.73-3.64,1.82-.73,1.82,1.45,3.27,2.55,4,0,0,2.18,1.09,3.64,5.09.73,2.55,4,7.27,11.64,7.27h2.55V79.1l-.36.36h0C10.91,72.91,0,57.64,0,40.55A40,40,0,1,1,52.73,78.36Z"/></svg>