<svg id="Layer_1" data-name="Layer 1" xmlns="http://www.w3.org/2000/svg" viewBox="0 0 80 80"><defs><style>.cls-1{fill:#e44d26;}.cls-2{fill:#f16529;}.cls-3{fill:#ebebeb;}.cls-4{fill:#fff;}</style></defs><title>Html5</title><polygon id="polygon3028" class="cls-1" points="75.27 0 68.85 71.98 39.96 80 11.15 72 4.73 0 75.27 0"/><polygon id="polygon3030" class="cls-2" points="40 73.88 63.34 67.41 68.84 5.89 40 5.89 40 73.88"/><polygon id="polygon3032" class="cls-3" points="27.5 23.55 40 23.55 40 14.72 39.98 14.72 17.86 14.72 18.07 17.09 20.24 41.42 40 41.42 40 32.59 28.31 32.59 27.5 23.55"/><polygon id="polygon3034" class="cls-3" points="29.5 45.84 24.72 45.84 20.64 45.84 21.87 59.7 39.96 64.73 40 64.72 40 55.53 39.96 55.53 30.13 52.88 29.5 45.84"/><polygon id="polygon3044" class="cls-4" points="39.98 41.42 50.84 41.42 49.82 52.88 39.98 55.53 39.98 64.72 58.07 59.7 58.21 58.21 60.29 34.96 60.5 32.59 58.12 32.59 39.98 32.59 39.98 41.42"/><polygon id="polygon3046" class="cls-4" points="39.98 23.52 39.98 23.55 61.27 23.55 61.27 23.55 61.29 23.55 61.48 21.57 61.88 17.09 62.09 14.72 39.98 14.72 39.98 20.2 39.98 23.52"/></svg>