<svg id="Layer_1" data-name="Layer 1" xmlns="http://www.w3.org/2000/svg" viewBox="0 0 80 80"><defs><style>.cls-1{fill:#e4a227;}.cls-2{fill:#f0bf26;}.cls-3{fill:#ebebeb;}.cls-4{fill:#fff;}</style></defs><title>JavaScript</title><polygon class="cls-1" points="11.14 72.01 4.73 0 75.27 0 68.84 72 39.96 80 11.14 72.01"/><polygon class="cls-2" points="39.94 73.79 63.28 67.31 68.77 5.79 39.94 5.79 39.94 73.79"/><polygon class="cls-3" points="39.92 55.44 39.89 55.45 30.05 52.8 29.42 45.75 24.65 45.75 20.55 45.75 21.8 59.62 39.89 64.64 39.92 64.63 39.92 55.44"/><polygon class="cls-3" points="41.12 41.33 41.12 32.51 30.24 32.51 31.52 18.64 41.15 18.39 41.12 9.2 23.53 9.2 22.88 15.71 20.8 38.97 20.59 41.33 22.97 41.33 41.12 41.33"/><polygon class="cls-4" points="41.06 18.4 41.1 18.39 50.74 18.97 51.57 28.09 56.33 28.09 60.43 28.09 58.89 11.02 41.1 9.2 41.06 9.21 41.06 18.4"/><polyline class="cls-4" points="59.52 18.43 58.76 9.2 40.11 9.2 40.11 14.93 40.11 18.4 40.11 18.43 59.52 18.43"/><polygon class="cls-4" points="39.9 32.51 39.9 41.33 50.77 41.33 49.75 52.79 39.9 55.45 39.9 64.64 58 59.62 58.14 58.13 60.2 34.88 60.43 32.51 58.04 32.51 39.9 32.51"/></svg>