<svg id="Layer_1" data-name="Layer 1" xmlns="http://www.w3.org/2000/svg" viewBox="0 0 193 52"><defs><style>.cls-1{fill:#fc5f45;}</style></defs><title>logoJaime</title><path class="cls-1" d="M22.22,18.88a18.87,18.87,0,0,1-1.28,4,10.5,10.5,0,0,1-2,3A8.52,8.52,0,0,1,16,27.77a10.44,10.44,0,0,1-3.86.66,5.85,5.85,0,0,1-.88-.07c-.33,0-.66-.09-1-.15s-.63-.14-.92-.23a4.46,4.46,0,0,1-.69-.24L9.62,23a4.7,4.7,0,0,0,.57.37,5.69,5.69,0,0,0,.71.32,5.44,5.44,0,0,0,.76.22,3.25,3.25,0,0,0,.74.09,3.76,3.76,0,0,0,2.94-1.27,8.45,8.45,0,0,0,1.7-4L20,5.12h5.19Z"/><path class="cls-1" d="M40.72,22.63c-.08.33-.15.73-.22,1.2s-.13,1-.19,1.46-.11,1-.14,1.49-.06.9-.06,1.25H35c0-.16,0-.36,0-.62l.06-.76c0-.26,0-.52.07-.77s.05-.46.07-.63h-.06c-.31.42-.63.81-1,1.2a6.56,6.56,0,0,1-1.1,1,5.79,5.79,0,0,1-1.35.71,5.32,5.32,0,0,1-1.72.26A5,5,0,0,1,27.9,28a4.37,4.37,0,0,1-1.58-1.25,5.69,5.69,0,0,1-1-2A9.83,9.83,0,0,1,25,22.1a12.58,12.58,0,0,1,.16-1.84,12.11,12.11,0,0,1,.61-2.3A11.56,11.56,0,0,1,27,15.56a9,9,0,0,1,2-2.15A10,10,0,0,1,32,11.86a12.82,12.82,0,0,1,4.08-.59c.61,0,1.22,0,1.83.08s1.22.11,1.81.19,1.16.17,1.71.28,1.07.21,1.55.32Zm-4.25-7.77a8.45,8.45,0,0,0-.85,0,4.65,4.65,0,0,0-1.93.37,4.7,4.7,0,0,0-1.45,1,5.63,5.63,0,0,0-1,1.34A8.74,8.74,0,0,0,30.55,19a8.85,8.85,0,0,0-.35,1.51,9.35,9.35,0,0,0-.11,1.3,4.73,4.73,0,0,0,.12,1.09,2.47,2.47,0,0,0,.38.87,1.83,1.83,0,0,0,.63.58,1.86,1.86,0,0,0,.87.2A2.64,2.64,0,0,0,33.71,24,5.4,5.4,0,0,0,35,22.69a8.9,8.9,0,0,0,.89-1.86,17.82,17.82,0,0,0,.59-2L37.28,15A7.81,7.81,0,0,0,36.47,14.86Z"/><path class="cls-1" d="M52,27.89l-.66.15c-.25.06-.52.11-.8.16s-.58.08-.88.11-.61,0-.9,0a5.18,5.18,0,0,1-1.83-.28,3.46,3.46,0,0,1-1.26-.78,3.06,3.06,0,0,1-.72-1.2,4.63,4.63,0,0,1-.24-1.53c0-.23,0-.49,0-.78s.07-.59.11-.9.09-.64.15-1,.12-.64.18-.94.12-.51.22-1,.22-1,.35-1.67.27-1.29.42-2,.29-1.36.43-2,.25-1.18.35-1.67.17-.82.21-1h5.12l-2,9.2c-.09.38-.18.79-.27,1.26a5.76,5.76,0,0,0-.15,1.2.91.91,0,0,0,.39.85,1.58,1.58,0,0,0,.87.24,4,4,0,0,0,.84-.09,4.44,4.44,0,0,0,.78-.23c-.14.64-.27,1.27-.4,1.89S52.12,27.25,52,27.89ZM53.64,6.4a2.52,2.52,0,0,1-.24,1.12,2.71,2.71,0,0,1-.65.85,2.68,2.68,0,0,1-1,.55,3.5,3.5,0,0,1-1.19.2,3.14,3.14,0,0,1-1.12-.19,2.64,2.64,0,0,1-.9-.51A2.47,2.47,0,0,1,48,7.65a2.3,2.3,0,0,1-.21-1,2.51,2.51,0,0,1,.87-2,2.84,2.84,0,0,1,1-.55A3.71,3.71,0,0,1,50.83,4,3.37,3.37,0,0,1,52,4.14a2.64,2.64,0,0,1,.88.51,2.37,2.37,0,0,1,.59.78A2.13,2.13,0,0,1,53.64,6.4Z"/><path class="cls-1" d="M82.44,15.57a6.33,6.33,0,0,1,0,.64c0,.27-.07.54-.12.83s-.1.57-.15.84-.1.5-.14.69L80,28H74.92l2-9.33c.07-.34.13-.69.19-1.05a4.73,4.73,0,0,0,.1-.83,1.84,1.84,0,0,0-.38-1.24,1.5,1.5,0,0,0-1.18-.44,2.59,2.59,0,0,0-1.3.41A5.93,5.93,0,0,0,73,16.64,8.25,8.25,0,0,0,72,18.17,6.74,6.74,0,0,0,71.29,20L69.61,28H64.52l2-9.33c.07-.34.13-.69.2-1.05a5.62,5.62,0,0,0,.09-.83,1.79,1.79,0,0,0-.39-1.24,1.49,1.49,0,0,0-1.17-.44,2.56,2.56,0,0,0-1.31.41,6,6,0,0,0-1.3,1.1,7.94,7.94,0,0,0-1.07,1.54A6.58,6.58,0,0,0,60.91,20L59.18,28H54.07L56.5,16.82c.09-.49.19-1,.29-1.48s.18-1,.25-1.42.14-.88.2-1.27.11-.71.14-1h5c0,.3-.07.61-.1.94s-.08.63-.11.93-.08.56-.11.79-.06.39-.08.49H62a11.47,11.47,0,0,1,1.28-1.41,8.47,8.47,0,0,1,1.46-1.12,7.85,7.85,0,0,1,1.58-.75A5.2,5.2,0,0,1,68,11.27a3.9,3.9,0,0,1,2.9,1A4.42,4.42,0,0,1,72,15a12.1,12.1,0,0,1,1.32-1.52,9.55,9.55,0,0,1,1.54-1.18,8,8,0,0,1,1.69-.77,6.07,6.07,0,0,1,1.79-.27,4,4,0,0,1,3.06,1.11A4.52,4.52,0,0,1,82.44,15.57Z"/><path class="cls-1" d="M100.41,15.89a5.17,5.17,0,0,1-.53,2.32A4.71,4.71,0,0,1,98.09,20a10.66,10.66,0,0,1-3.34,1.2,26.74,26.74,0,0,1-5.17.49.55.55,0,0,0,0,.17V22a3.11,3.11,0,0,0,.16,1,2.14,2.14,0,0,0,.55.89,2.72,2.72,0,0,0,1,.65,4.33,4.33,0,0,0,1.6.25,8.25,8.25,0,0,0,1.25-.11,10.37,10.37,0,0,0,1.38-.3,12.18,12.18,0,0,0,1.4-.48,11,11,0,0,0,1.29-.61l-.79,3.77a11.22,11.22,0,0,1-1.13.49,12.43,12.43,0,0,1-1.38.43,14.73,14.73,0,0,1-1.58.31,13.93,13.93,0,0,1-1.72.11,8.39,8.39,0,0,1-3.18-.54,6.12,6.12,0,0,1-2.18-1.47A5.55,5.55,0,0,1,85,24.28a8.35,8.35,0,0,1-.4-2.62,11.49,11.49,0,0,1,.69-4,10,10,0,0,1,2-3.31,9.44,9.44,0,0,1,7.15-3.1,8.51,8.51,0,0,1,2.75.39,5.22,5.22,0,0,1,1.85,1,3.92,3.92,0,0,1,1,1.47A4.48,4.48,0,0,1,100.41,15.89ZM95.6,16a1.24,1.24,0,0,0-.44-1,1.79,1.79,0,0,0-1.24-.39,3.23,3.23,0,0,0-1.35.3,4.55,4.55,0,0,0-1.18.84A5.38,5.38,0,0,0,90.47,17a6.9,6.9,0,0,0-.57,1.6A9.83,9.83,0,0,0,94.19,18,2.16,2.16,0,0,0,95.6,16Z"/><path d="M114.3,44.32H99.46l5.29-24.85h5.65l-4.3,20.24h9.17Z"/><path d="M134.66,38.43c-.1.52-.2,1.06-.29,1.62s-.17,1.1-.24,1.62-.13,1-.18,1.47-.08.85-.1,1.18H128.3q.06-.49.12-1c0-.35.08-.67.12-1s.09-.58.13-.82.05-.42.07-.52h-.07a13.31,13.31,0,0,1-1.45,1.54,10,10,0,0,1-1.61,1.19,8.4,8.4,0,0,1-1.74.77,6.21,6.21,0,0,1-1.81.28,4.29,4.29,0,0,1-3.33-1.23,4.84,4.84,0,0,1-1.14-3.44c0-.17,0-.4,0-.69s.08-.59.13-.9.11-.62.16-.91.1-.55.15-.76l2.16-10.26h5.51l-2.13,10c0,.19-.09.38-.13.59s-.07.41-.1.61,0,.37-.07.54a3.14,3.14,0,0,0,0,.38,1.74,1.74,0,0,0,.42,1.22,1.54,1.54,0,0,0,1.21.46,3.17,3.17,0,0,0,1.68-.49,5.67,5.67,0,0,0,1.48-1.26,8.75,8.75,0,0,0,1.13-1.75A8.53,8.53,0,0,0,129.9,35l1.78-8.38h5.53Z"/><path d="M157.63,30.8c0,.18,0,.41,0,.7s-.08.59-.13.9-.11.61-.17.91-.11.54-.15.75L155,44.32h-5.49L151.6,34.2q.1-.56.21-1.14a5.6,5.6,0,0,0,.1-.9,2,2,0,0,0-.42-1.33,1.61,1.61,0,0,0-1.28-.5,2.94,2.94,0,0,0-1.48.45A6,6,0,0,0,147.28,32a7.93,7.93,0,0,0-1.18,1.67,6.57,6.57,0,0,0-.72,1.93l-1.84,8.77H138l2.63-12.16c.11-.54.21-1.07.31-1.61s.2-1.05.28-1.54.15-1,.22-1.37.11-.78.14-1.07H147c0,.33-.07.67-.11,1s-.08.69-.12,1-.08.61-.11.86-.07.42-.09.53h.07a11.33,11.33,0,0,1,1.37-1.5,9.82,9.82,0,0,1,1.62-1.22,8.71,8.71,0,0,1,1.78-.83,5.84,5.84,0,0,1,1.83-.3,4.28,4.28,0,0,1,3.32,1.22A4.9,4.9,0,0,1,157.63,30.8Z"/><path d="M177,38.46c-.08.36-.16.8-.23,1.3s-.15,1-.21,1.59-.12,1.09-.16,1.61-.06,1-.06,1.36H170.8q0-.26,0-.66c0-.28,0-.55.06-.84s.05-.56.08-.83.05-.5.08-.68H171c-.34.45-.68.88-1,1.3a7.36,7.36,0,0,1-1.2,1.1,5.45,5.45,0,0,1-3.33,1,5.51,5.51,0,0,1-2.31-.47,4.51,4.51,0,0,1-1.71-1.35,6.41,6.41,0,0,1-1.06-2.16,10.63,10.63,0,0,1-.36-2.89,13.73,13.73,0,0,1,.18-2,13.09,13.09,0,0,1,.66-2.5,12.8,12.8,0,0,1,1.33-2.6,9.9,9.9,0,0,1,2.17-2.33,11.07,11.07,0,0,1,3.21-1.68,13.67,13.67,0,0,1,4.43-.64c.66,0,1.32,0,2,.08s1.32.12,2,.21,1.27.18,1.87.3,1.16.23,1.68.35ZM172.4,30c-.32,0-.63,0-.92,0a5.08,5.08,0,0,0-2.1.4,5.13,5.13,0,0,0-1.56,1,5.86,5.86,0,0,0-1.12,1.45,9.59,9.59,0,0,0-.72,1.66,9.22,9.22,0,0,0-.38,1.64,9.56,9.56,0,0,0-.12,1.4,5.56,5.56,0,0,0,.13,1.19,2.88,2.88,0,0,0,.41.94,2,2,0,0,0,.69.63,1.89,1.89,0,0,0,.94.22,2.87,2.87,0,0,0,1.76-.57,5.75,5.75,0,0,0,1.35-1.46,9.22,9.22,0,0,0,1-2,21.1,21.1,0,0,0,.64-2.21l.91-4.14A6.85,6.85,0,0,0,172.4,30Z"/></svg>