<svg id="svg3614" xmlns="http://www.w3.org/2000/svg" xmlns:xlink="http://www.w3.org/1999/xlink" viewBox="0 0 80 80"><defs><style>.cls-1{fill:url(#linear-gradient);}.cls-2{fill:url(#linear-gradient-2);}.cls-3{fill:url(#radial-gradient);}</style><linearGradient id="linear-gradient" x1="-66.94" y1="1408.26" x2="15.47" y2="1359.57" gradientTransform="translate(32.18 -278.5) scale(0.25)" gradientUnits="userSpaceOnUse"><stop offset="0" stop-color="#909ca9"/><stop offset="1" stop-color="#ededee"/></linearGradient><linearGradient id="linear-gradient-2" x1="-66.5" y1="1149.21" x2="-0.19" y2="1149.21" gradientTransform="translate(32.18 -278.5) scale(0.25)" gradientUnits="userSpaceOnUse"><stop offset="0" stop-color="#939fab"/><stop offset="1" stop-color="#dcdee1"/></linearGradient><radialGradient id="radial-gradient" cx="-20113.62" cy="-2922.21" r="414.16" gradientTransform="matrix(-0.05, -0.01, 0.02, -0.1, -938.46, -422.5)" gradientUnits="userSpaceOnUse"><stop offset="0" stop-color="#ee352c"/><stop offset="1" stop-color="#a91d22"/></radialGradient></defs><title>MicrosoftSQLServer</title><g id="layer1-2"><path id="path3639" class="cls-1" d="M49.59,37.33l-16,5.22L19.65,48.7l-3.89,1c-1,.94-2,1.89-3.16,2.87s-2.38,2-3.26,2.73a24.93,24.93,0,0,0-3.18,3.15,14.07,14.07,0,0,0-2.34,4,6.63,6.63,0,0,0,.94,6c1.65,2.43,4.93,4.89,8.75,6.57a56.86,56.86,0,0,0,7.7,2.58,103,103,0,0,0,16.4,2.33,18.54,18.54,0,0,0,2.12,0,27.49,27.49,0,0,0,1.57-3,74.78,74.78,0,0,0,5.67-15,68.85,68.85,0,0,0,1.45-10.42c.09-1.17.13-5.1,0-6.44a46.36,46.36,0,0,0-.6-5.68,1.45,1.45,0,0,1,0-.5A20,20,0,0,1,50,38.23l-.4-.9Zm-3.65,2.14a40.41,40.41,0,0,1,.63,6.07,3.18,3.18,0,0,1,0,.82c-.1,0-2.05-1.15-3.44-2-1.21-.75-3.5-2.28-3.87-2.57-.12-.09-.1-.1.89-.44,1.68-.58,5.66-1.86,5.8-1.86Zm-8.17,2.68a4,4,0,0,1,1.06.58,78.88,78.88,0,0,0,7.33,4.08c.45.19.5.11-.54.82a52.65,52.65,0,0,1-8.32,4.46l-1.1.48a3.57,3.57,0,0,1,.15-.67,34.89,34.89,0,0,0,1.28-8.5c0-1.21,0-1.22.13-1.24Zm-1.67.64A27.62,27.62,0,0,1,36,46.31a30.82,30.82,0,0,1-1.11,5.27c-.13.44-.25.83-.27.85a20.09,20.09,0,0,1-2.25-2.2A16.23,16.23,0,0,1,30.17,47a10.05,10.05,0,0,1-.67-1.65c.17-.13,6.55-2.59,6.6-2.55ZM28.19,45.9l0,0a2.84,2.84,0,0,1,.19.44,16.25,16.25,0,0,0,2,3.59,20,20,0,0,0,2.8,3l.59.51c.08.06.1.06-1.87.8-2.3.87-4.78,1.74-7.65,2.66l-2.05.67c-.11,0-.08,0,.24-.52a66,66,0,0,0,4.78-9.63c.21-.54.41-1.07.45-1.19A.4.4,0,0,1,28,46a.7.7,0,0,1,.23-.06Zm-2.43,1a23.07,23.07,0,0,1-1.19,2.5c-1.16,2.29-2.46,4.53-4.17,7.28-.3.48-.57.91-.61,1s-.09.06-.27-.31a10.86,10.86,0,0,1-.94-2.8,11.54,11.54,0,0,1,.07-3.61c.15-.76.15-.74.51-.92C20.7,49.21,25.71,46.86,25.76,46.91Zm20.88.85v.51a66.28,66.28,0,0,1-.71,9.1c-.07.47-.14.86-.14.87L45,58a30.81,30.81,0,0,1-5.56-2.38,27.36,27.36,0,0,1-2.84-1.73s.52-.29,1.12-.59a71,71,0,0,0,6.62-3.89c.74-.49,1.85-1.3,2.09-1.51Zm-30,3.58c.05,0,0,.09,0,.53s-.12.9-.14,1.3A8.81,8.81,0,0,0,17.51,58c.24.5.44.92.43.92s-8.1,2.42-10.61,3.11l-1.45.4c-.09,0-.1,0-.07-.2A12.68,12.68,0,0,1,9.34,56.2a15.79,15.79,0,0,1,4-3.05c1.23-.7,3.14-1.75,3.28-1.81ZM35.5,54.72a6,6,0,0,1,.66.35,36,36,0,0,0,9.27,3.6l.28.07-.38.21c-1.61.9-6.9,3.1-12.31,5.13-.79.29-1.56.59-1.71.65l-.27.09s.22-.45.49-1a61.39,61.39,0,0,0,3.82-8.67c.07-.26.15-.47.15-.47Zm-1.92.62s-.09.27-.21.57a80.29,80.29,0,0,1-4.2,8.46c-.45.79-.83,1.44-.84,1.44l-.81-.48a24.91,24.91,0,0,1-6.33-5.39L21,59.67l1.11-.3a79.07,79.07,0,0,0,10.63-3.68l.87-.35Zm12,4.18v0c0,.26-.61,2.76-1.11,4.56-.43,1.51-.79,2.7-1.45,4.79-.3.93-.54,1.68-.56,1.68l-.16,0a50.82,50.82,0,0,1-9.84-2.77c-.84-.34-2.06-.88-2.13-.94a15.79,15.79,0,0,1,1.62-.77c5.51-2.4,11.22-5.14,13.18-6.32a1.44,1.44,0,0,1,.45-.22Zm-27.61.95s-1.52,2.23-3.66,5.25l-2,2.74c-.32.46-.81,1.19-1.09,1.63l-.51.78-.54-.46a20.44,20.44,0,0,1-2.26-2.3,10,10,0,0,1-2-3.91c-.13-.58-.13-.87,0-.9s3.41-.82,6.44-1.52l4.33-1c.7-.17,1.27-.3,1.28-.29Zm1.55.59.39.43a22.56,22.56,0,0,0,5.68,4.65,2.52,2.52,0,0,1,.65.43c-.09.06-7.48,2.68-10.9,3.87l-3.52,1.23-.24-.16-.22-.16.35-.5c1.13-1.65,2.56-3.45,5.68-7.2l2.13-2.59ZM29.14,68s.55.19,1.21.43a38.39,38.39,0,0,0,4.49,1.39A49.9,49.9,0,0,0,41.63,71c.26,0,.41.06.36.08s-1.86.65-3.17,1.06c-2.08.65-8.43,2.53-13.62,4l-1.83.52a.92.92,0,0,1-.52-.13,9.81,9.81,0,0,1,.65-.82,72.4,72.4,0,0,0,4.91-6.61c.4-.59.72-1.09.73-1.11ZM27,68s-.84,1.39-2.35,3.77c-.64,1-1.35,2.15-1.6,2.54s-.62,1-.81,1.33l-.35.62-.18,0c-.43-.11-3.49-1.2-4.3-1.52a27.11,27.11,0,0,1-2.82-1.29A12.26,12.26,0,0,1,12.5,72.1l3.68-1c5.31-1.45,8.24-2.28,10.16-2.88L27,68Zm15.07,3.54h0c0,.12-1.91,5.56-2.63,7.29-.16.39-.22.48-.31.48s-3-.41-4.77-.67c-3-.45-8.07-1.33-9.35-1.63L24.74,77l1.81-.41c3.87-.87,5.73-1.34,7.62-1.92a54.84,54.84,0,0,0,7.12-2.75,5.48,5.48,0,0,1,.78-.33Z"/><path id="path3667" class="cls-2" d="M33.09,0a76.09,76.09,0,0,0-7.33,2.64,45.77,45.77,0,0,0-8.44,4.23A6.09,6.09,0,0,0,15.7,8.5a1.14,1.14,0,0,0-.07.41l1.63,1.53,3.85,1.24,9.2,1.64,10.5,1.8.11-.9h-.1L39.44,14l-.28-.49c-1.43-2.52-3-5.64-3.92-7.74A38.39,38.39,0,0,1,33.47.88C33.24.07,33.21,0,33.09,0Zm-.2.62h0S33,1,33,1.38a26.41,26.41,0,0,0,1.17,5.09c.45,1.34.45,1.26-.07,1.11-1.24-.35-6.77-1.3-10.78-1.85l-1.18-.18C22.09,5.5,25,4,26.34,3.36,28,2.58,32.55.68,32.89.62ZM21.22,6l.47.16A72.22,72.22,0,0,0,34.26,8.6l.75.08a7.44,7.44,0,0,1-.75.41c-1.72.86-3.61,1.9-4.92,2.72a4.64,4.64,0,0,1-.78.44l-.57-.1-.48-.07-1.22-1.19c-2.13-2.06-3.8-3.66-4.44-4.27Zm-.48.38,1.71,2.13c.94,1.17,1.87,2.33,2.08,2.58a3.39,3.39,0,0,1,.36.47c-.05,0-2.47-.44-3.75-.73s-1.86-.45-2.68-.71L17.8,10V9.78c0-.81,1-2,2.78-3.25l.16-.11Zm14.5,2.89s.11.11.26.44c.41.91,1.69,3.36,2,3.83.1.16.26.17-1.45-.11-4.1-.66-5.42-.88-5.42-.9a1.09,1.09,0,0,1,.27-.19A22.9,22.9,0,0,0,34.6,9.83l.58-.49s0,0,.06,0Z"/><path id="path2851" class="cls-3" d="M15.76,8.35a1.18,1.18,0,0,0,0,1.05,5.15,5.15,0,0,0,1.13,1.34s5.38,5.25,6,6a16.78,16.78,0,0,1,4.4,11.5A18.68,18.68,0,0,1,25.41,37c-2.52,5.5-7.83,11.56-16,18.3l1.2-.4a36.63,36.63,0,0,1,4.3-2.55,153,153,0,0,1,20-8.95C46.2,39.09,64.82,34.1,75.42,32.48l1.11-.17L76.36,32a36.31,36.31,0,0,0-2.43-3.42,29.2,29.2,0,0,0-8.59-7.15c-4.74-2.65-10.88-4.71-18.65-6.26-1.47-.29-4.68-.84-7.3-1.25-5.55-.87-9.12-1.45-13.07-2.14-1.42-.25-3.53-.6-4.94-.91a29.87,29.87,0,0,1-3.2-.86c-.89-.34-2.14-.68-2.42-1.7Zm3.12,3a4,4,0,0,1,.46.14c.46.15,1.05.33,1.75.53.49.13,1,.28,1.59.42l1.34.35c.08.09,1.31,4,1.72,5.49.15.58.28,1.05.26,1.06a2.32,2.32,0,0,1-.3-.46,25.05,25.05,0,0,0-6.24-7C19.14,11.6,18.88,11.38,18.88,11.37Zm6,1.65a2.87,2.87,0,0,1,.66.11c2.06.45,5.74,1.17,8.11,1.56a4.27,4.27,0,0,1,.72.16,1,1,0,0,1-.33.2c-.4.2-2,1.16-2.54,1.52A22.58,22.58,0,0,0,28,19.31c-.35.35-.65.64-.66.64a3.49,3.49,0,0,1-.14-.46,41,41,0,0,0-2.16-5.92,5.24,5.24,0,0,1-.23-.55Zm10.49,2a4.44,4.44,0,0,1,.43,1.35,20.59,20.59,0,0,1,.58,5.54c0,.51-.05,1-.07,1l0,.13-.63-.2c-1.29-.41-3.39-1-5.2-1.54a19,19,0,0,1-1.87-.56,29.63,29.63,0,0,1,2.14-2.14A54.82,54.82,0,0,1,35.33,15Zm.83.12s5,.83,7.27,1.26c1.68.32,4.12.84,4.27.89s-.18.17-1,.53a52.62,52.62,0,0,0-7.93,4.31c-.62.42-1.14.76-1.15.76s0-.35,0-.77a17,17,0,0,0-1.3-6.58,1.57,1.57,0,0,1-.15-.4ZM49,17.67a9.36,9.36,0,0,1-.27,1.6,30.79,30.79,0,0,1-3,7,9.24,9.24,0,0,1-.51.82,4.15,4.15,0,0,1-.73-.38,39.53,39.53,0,0,0-4.74-2.33L38.8,24c-.08-.08,3.81-2.65,5.87-3.89C46.31,19.11,49,17.62,49,17.67Zm.92.15c.11,0,2.31.6,3.46.94a71.85,71.85,0,0,1,8.24,3l.88.4-.62.14A89.83,89.83,0,0,0,48,26.63c-.36.14-.66.26-.69.26a3.06,3.06,0,0,1,.25-.62,25,25,0,0,0,2.34-8.06c0-.21,0-.39.09-.39ZM28,22.85s1.71.36,2.63.62A43.13,43.13,0,0,1,35,24.91s-.32.29-.71.63c-1.58,1.32-3.11,2.71-5,4.48-.54.52-1,.94-1,.94s0-.08,0-.17a27.55,27.55,0,0,0-.17-7.3,3,3,0,0,1-.06-.64Zm35.34,0s-.78,1.28-1.28,2c-.73,1.05-1.79,2.43-4.2,5.45-1.26,1.6-2.69,3.4-3.18,4l-.89,1.11a5.48,5.48,0,0,1-.35-.49,25.61,25.61,0,0,0-4.89-5.42c-.36-.3-.77-.62-.9-.72a1.44,1.44,0,0,1-.25-.21s2-.91,3.62-1.55c2.73-1.11,6.46-2.44,9.26-3.3,1.47-.44,3-.89,3.06-.87Zm.93.24a3.35,3.35,0,0,1,.69.34,41,41,0,0,1,8.09,6.07c.64.63,2.22,2.27,2.2,2.28l-1.21.1a120.17,120.17,0,0,0-17.89,3l-.81.19s.44-.47,1-1a30.8,30.8,0,0,0,7.35-9.77c.28-.6.53-1.11.55-1.15ZM37.34,25.89c.17,0,1.74.77,2.93,1.36s2.73,1.42,2.81,1.5-.57.31-1.29.67c-2.27,1.14-4.22,2.21-6.25,3.45-.59.36-1.07.65-1.09.65s0-.05.3-.64a26,26,0,0,0,2.46-6.66c0-.21.1-.34.13-.33Zm-1.58.29a21.09,21.09,0,0,1-.63,2.33A31.15,31.15,0,0,1,33,33.42c-.19.34-.48.84-.65,1.11l-.3.49-.68-.65a9.29,9.29,0,0,0-2.25-1.67,5.11,5.11,0,0,1-.59-.33A48.62,48.62,0,0,1,32.19,29C33.34,28.07,35.73,26.14,35.76,26.18Zm9.62,3.95.59.39a47.38,47.38,0,0,1,4.18,3.08c.68.57,2,1.76,2.29,2l.15.16-1,.27c-5.54,1.54-9.83,2.9-14.83,4.75-.55.2-1,.37-1.06.37s-.14.06,1.11-1.09A53.31,53.31,0,0,0,45,30.78Zm-2.53.64s-1.63,2.36-2.63,3.68C39,36,36.93,38.66,35.48,40.38c-.61.72-1.13,1.31-1.16,1.33s0-.17,0-.45a10,10,0,0,0-1-4.35c-.28-.56-.32-.7-.27-.75.23-.2,3.75-2.21,6-3.4,1.53-.83,3.88-2,3.9-2ZM27.56,34.51a5,5,0,0,1,.63.32,13.29,13.29,0,0,1,2.08,1.41,3.91,3.91,0,0,1-.71.57c-1.15.83-2.89,2.15-3.9,2.95s-1.1.88-1,.69a21.09,21.09,0,0,0,1.62-2.8,21.17,21.17,0,0,0,1-2.53,3.34,3.34,0,0,1,.26-.61Zm4.08,3.2c.05,0,.13.09.46.58a8.84,8.84,0,0,1,1.36,3.53l0,.24-1.66.64c-3,1.15-5.69,2.28-7.54,3.13-.52.24-1.43.68-2,1s-1.08.53-1.08.52A9.77,9.77,0,0,1,22,46.7a49,49,0,0,0,9.1-8.39c.25-.3.48-.57.51-.59Zm-1.88.47a29.31,29.31,0,0,1-2.27,2.56A40.65,40.65,0,0,1,20,46.81l-.73.46c-.08,0,0-.07,1.29-1.44.79-.87,1.4-1.58,2.09-2.48a4.14,4.14,0,0,1,1.2-1.15c1.8-1.3,5.89-4.07,5.94-4Z"/></g></svg>