<svg id="Layer_1" data-name="Layer 1" xmlns="http://www.w3.org/2000/svg" viewBox="0 0 80 80"><defs><style>.cls-1{fill:#00d8ff;}</style></defs><title>react</title><circle class="cls-1" cx="40.01" cy="39.92" r="7.15"/><path class="cls-1" d="M40,56.3c-10,0-18.81-1.18-25.38-3.43a32.13,32.13,0,0,1-10.45-5.6C1.45,44.93,0,42.38,0,39.92c0-4.73,5.18-9.36,13.88-12.37C21,25.07,30.29,23.69,40,23.69c9.54,0,18.7,1.34,25.77,3.79a32.76,32.76,0,0,1,10.11,5.33C78.57,35.06,80,37.52,80,39.93c0,4.91-5.8,9.88-15.14,13C58.26,55.09,49.43,56.3,40,56.3Zm0-29.2c-9.21,0-18.33,1.34-25,3.66C7,33.55,3.43,37.37,3.43,39.92s3.86,6.82,12.32,9.71C22,51.75,30.36,52.88,40,52.88c9.06,0,17.5-1.14,23.78-3.23,8.79-2.92,12.8-7.09,12.8-9.73,0-1.35-1-3-2.89-4.5a29.44,29.44,0,0,0-9-4.73C57.94,28.39,49.18,27.1,40,27.1Z"/><path class="cls-1" d="M23.79,75.55A7.51,7.51,0,0,1,20,74.61c-4.09-2.36-5.51-9.17-3.79-18.21C17.59,49,21,40.27,25.89,31.85,30.66,23.59,36.38,16.33,42,11.42a32.34,32.34,0,0,1,9.67-6.09c3.29-1.21,6.14-1.21,8.22,0,4.26,2.45,5.67,10,3.67,19.59C62.19,31.75,58.83,40,54.13,48.15c-5,8.69-10.42,15.69-15.65,20.26a32.23,32.23,0,0,1-10.07,6.25A13.92,13.92,0,0,1,23.79,75.55ZM27.37,32.7l1.48.85c-4.6,8-8,16.53-9.31,23.48-1.58,8.33-.06,13.34,2.14,14.61a4.24,4.24,0,0,0,2.12.48c2.83,0,7.29-1.79,12.45-6.29,4.94-4.31,10.11-11,14.94-19.39,4.53-7.85,7.75-15.74,9.09-22.21,1.87-9.07.26-14.62-2-15.95-1.17-.67-3.06-.58-5.34.26A29.09,29.09,0,0,0,44.3,14c-5.37,4.67-10.85,11.62-15.44,19.57Z"/><path class="cls-1" d="M56.23,75.59c-3.87,0-8.79-2.34-13.91-6.75C36.6,63.92,30.77,56.58,25.9,48.17h0C21.12,39.91,17.7,31.32,16.26,24a32.7,32.7,0,0,1-.46-11.42c.6-3.46,2-5.92,4.1-7.13C24.14,3,31.36,5.48,38.71,12c5.21,4.63,10.68,11.66,15.39,19.81,5,8.69,8.4,16.87,9.74,23.68a32.59,32.59,0,0,1,.4,11.85c-.66,3.55-2.14,6.07-4.27,7.31A7.43,7.43,0,0,1,56.23,75.59ZM28.86,46.46c4.61,8,10.34,15.19,15.69,19.79C51,71.78,56.07,73,58.28,71.69s4-6.75,2.24-15.52C59.24,49.73,56,41.9,51.16,33.54c-4.54-7.85-9.77-14.58-14.71-19C29.53,8.42,23.92,7,21.63,8.36c-1.17.67-2,2.36-2.45,4.76a29.09,29.09,0,0,0,.44,10.18c1.37,7,4.64,15.21,9.24,23.16Z"/></svg>