<svg id="Layer_1" data-name="Layer 1" xmlns="http://www.w3.org/2000/svg" viewBox="0 0 70.71 80"><defs><style>.cls-1{fill:#fff;}.cls-2{fill:#8ed6fb;}.cls-3{fill:#1c78c0;}</style></defs><title>webpack</title><path class="cls-1" d="M35.35,0,70.71,20V60L35.35,80,0,60V20Z"/><path class="cls-2" d="M64.4,58.62,36.52,74.39V62.11l17.37-9.55L64.4,58.62Zm1.91-1.72v-33l-10.2,5.89V51l10.2,5.89ZM6.2,58.62,34.08,74.39V62.11L16.7,52.56,6.2,58.62ZM4.29,56.9v-33l10.2,5.89V51Zm1.2-35.11L34.08,5.62V17.49L15.76,27.56l-.15.08L5.49,21.79Zm59.62,0L36.52,5.62V17.49L54.84,27.55l.15.09,10.12-5.85Z"/><path class="cls-3" d="M34.08,59.32,16.94,49.89V31.23l17.14,9.89Zm2.44,0L53.66,49.9V31.23L36.52,41.12ZM18.1,29.07l17.2-9.46,17.2,9.46L35.3,39Z"/></svg>